<svg xmlns="http://www.w3.org/2000/svg" viewBox="0 0 400 400" id="Business-Deal-3--Streamline-Milano.svg" height="400" width="400"><desc>Business Deal 3 Streamline Illustration: https://streamlinehq.com</desc><g fill="#000000"><path d="M210.94 70.46a11.34 11.34 0 0 0 6.92 1.58c0.92 0 15.32 -0.22 15.82 -0.18s13.6 4.54 15.02 4.92a1.02 1.02 0 0 0 1.12 -0.54c0.72 -1.42 -2.28 -1.34 -2.3 -6 3.26 0 11.8 0.92 13.72 -1.84 1.42 -2 1.16 -6.7 1.1 -27.2 0 -6.12 -2.68 -11.32 -8.76 -11.12 -0.58 0 -38.22 0.78 -39.14 0.88 -5.08 0.44 -7.62 3.18 -8 8.62 -0.16 1.8 0 21.08 0.56 24a10 10 0 0 0 3.94 6.88zm0 -36.5c2.4 -1.5 4.72 -1.12 16.36 -1.42 10.32 -0.28 27.56 -0.74 28.56 -0.46a6.72 6.72 0 0 1 4.4 5c0.68 2.54 0.68 28.12 0 29.4 -1.62 2.92 -5.8 1.46 -13.6 2a0.96 0.96 0 0 0 -0.92 0.92 8.98 8.98 0 0 0 0.82 4.86c-8.38 -2.54 -9.32 -3.74 -12.4 -4.18 -4 -0.56 -15.84 0.22 -18 0 -4.82 -0.26 -7.22 -3.58 -7.42 -9.88 0 -2 -0.32 -17.18 -0.32 -17.54 -0.16 -3.18 -0.16 -6.84 2.46 -8.66z" stroke-width="1"></path><path d="M231.14 62.42a0.9 0.9 0 0 0 1.46 -0.18 174.52 174.52 0 0 1 14.6 -21.58 0.48 0.48 0 0 0 -0.66 -0.68 76.18 76.18 0 0 0 -14.9 20.18 86.6 86.6 0 0 0 -9.16 -9.1c-1 -0.68 -1.58 -0.1 -1.3 0.9 0.08 0.28 8.44 8.5 9.96 10.46zM122 93.36c-3.04 1.78 -7.14 0 -9.74 -2.18a0.82 0.82 0 0 0 -1.38 0.62 7.4 7.4 0 0 0 4 5.84 0.48 0.48 0 0 0 0.5 -0.8 6.26 6.26 0 0 1 -2.32 -3.14c2.14 1.42 6.2 3.38 9.44 0.3a0.4 0.4 0 0 0 -0.5 -0.64zm1.72 -7.64a0.46 0.46 0 0 0 0.2 0.88 2.92 2.92 0 0 0 2.74 -3.86c-0.64 -1.4 -2 -1.22 -2.26 -4.34a0.42 0.42 0 1 0 -0.84 0 16.94 16.94 0 0 0 0 2.22c0.32 1.84 1.78 2.14 1.54 3.4a2.48 2.48 0 0 1 -1.38 1.7zM114 75.4c0.26 2.54 -0.6 4.18 0.14 5.02a1.38 1.38 0 0 0 2.42 -0.88 22 22 0 0 0 -0.56 -4.42 1.04 1.04 0 0 0 -2 0.28zm16.6 -1.16a1.04 1.04 0 0 0 -2 0.28 20.84 20.84 0 0 1 -0.2 4 1.36 1.36 0 0 0 1.38 1.44c2 0.04 1.3 -2.86 0.82 -5.72zm-16.06 -4.82a0.8 0.8 0 0 0 -0.14 -1.58c-2.42 -0.2 -4 2.5 -4.28 3.54 -0.2 0.54 0.64 0.84 0.86 0.28a4.58 4.58 0 0 1 3.56 -2.24zm12.84 -0.46c2.98 0 3.06 1.18 3.58 1.18a0.44 0.44 0 0 0 0.38 -0.68 0.18 0.18 0 0 0 0 -0.12c-0.28 -0.56 -1.12 -2.28 -4.18 -1.78 -0.76 0.1 -0.68 1.42 0.22 1.4zM124.48 132a1.38 1.38 0 1 0 0 -2.76 1.38 1.38 0 1 0 0 2.76zm0.38 6.3a1.52 1.52 0 0 0 3.02 0 1.52 1.52 0 0 0 -3.02 0zm163.62 -47.74a3.28 3.28 0 0 1 -3.78 -1.32c0.3 -0.64 3.02 -4.58 3.46 -5.46a0.5 0.5 0 0 0 -0.24 -0.68c-0.76 -0.4 -0.36 0.58 -4.5 4.94 -2 2 2.84 5.9 5.5 3.28a0.46 0.46 0 0 0 -0.44 -0.76zm9.64 6.38a6.12 6.12 0 0 1 -1.74 2.98 0.46 0.46 0 0 0 0.4 0.8 5.2 5.2 0 0 0 3.22 -5.14c0 -0.28 0 -0.68 -0.24 -1.02s-0.96 -0.66 -1.24 -0.22a10.26 10.26 0 0 1 -7.08 4.42c-0.64 0 -0.6 1.02 0 0.98a10 10 0 0 0 6.68 -2.8zM282 76.38a1.04 1.04 0 0 0 -2 -0.12 23.48 23.48 0 0 0 -0.5 4.78 1.3 1.3 0 0 0 2.34 0.22 23.36 23.36 0 0 0 0.16 -4.88zm15.44 6.06a23.42 23.42 0 0 0 0.22 -4.88 1.04 1.04 0 0 0 -2 -0.12 25 25 0 0 0 -0.48 4.78 1.3 1.3 0 0 0 2.26 0.22zm-18.54 -7.64a2.42 2.42 0 0 1 2.6 -0.92c0.84 0.1 1.08 -1.32 0.2 -1.42a3.12 3.12 0 0 0 -3.56 2 0.42 0.42 0 0 0 0.76 0.34zm18.06 0.32a2 2 0 0 1 2.12 1.26 0.44 0.44 0 0 0 0.86 -0.22c-0.38 -2.22 -3.6 -3.32 -3.6 -1.76a0.68 0.68 0 0 0 0.62 0.72zm-167.1 272.4c-2.84 -2 -14.46 -12 -16.12 -13.32a8.44 8.44 0 0 0 -4 -10 10.94 10.94 0 0 0 -11.14 1.6c-4.84 3.78 -5.18 10.52 0.58 13.68a12.36 12.36 0 0 0 9.42 0.96 8 8 0 0 0 4.74 -4.92c1.34 1.2 15.66 12.84 16.34 12.84a0.46 0.46 0 0 0 0.18 -0.84zm-17.12 -15.1c-2 10.86 -14.18 7.02 -16 2.86 -2.22 -5.42 3.46 -10.58 9.02 -10.58a6.76 6.76 0 0 1 6.98 7.72z" stroke-width="1"></path><path d="M102.24 334.46c-0.18 -1.2 -0.68 -4.5 -1.02 -5.7a0.46 0.46 0 0 0 -0.9 0.24c0.44 1.72 0 6.76 0.84 7.28s1.3 0 2 -0.46c1.28 -0.92 6.66 -4.56 8 -5.38a0.36 0.36 0 0 0 -0.32 -0.64c-0.68 0.2 -6.84 3.74 -8.6 4.66zm39.2 6.8c-3.06 -2.28 -21.62 -17.6 -23.46 -18.76a0.64 0.64 0 0 0 -0.8 1c1.12 1.3 23.58 18.58 24 18.58a0.46 0.46 0 0 0 0.26 -0.82zm5.92 -10.24c-2.86 -2.12 -17.44 -15 -18.8 -16 -0.68 -0.48 -1.36 0.46 -0.88 1.04 1.44 1.76 18.98 15.72 19.44 15.72a0.44 0.44 0 0 0 0.24 -0.76zm-12.78 -22.82c-0.74 -0.56 -1.64 0.58 -0.96 1.2 2 1.84 15.4 12.98 16.6 12.98a0.44 0.44 0 0 0 0.22 -0.84c-1.4 -0.82 -13.24 -11.34 -15.86 -13.34z" stroke-width="1"></path><path d="M266.76 298.42c-1.1 -0.82 -2.12 -0.22 -3.02 0.32a69.46 69.46 0 0 0 -12.32 8.9c-2.84 -14 -4.76 -23.62 -4.86 -24 -0.6 -1.54 -2.32 -1.02 -3.48 -0.88l-3.88 0.5v-2.8a0.76 0.76 0 0 0 -0.72 -1.02c-5.74 0.1 -52.78 0.32 -52.78 0.32 -0.6 0 -10 29.54 -14.94 44.68a43.82 43.82 0 0 0 -7.84 -9.74l5.48 -15.76a3.68 3.68 0 0 1 0.14 2.18c-0.24 1.34 -2.4 10.48 -2.7 11.66a0.38 0.38 0 0 0 0.7 0.26A124.36 124.36 0 0 0 170 300a3.06 3.06 0 0 0 -1.28 -2.42 20 20 0 0 0 0.32 -2.5c0 -1.08 0.22 -2.44 -0.92 -3.22 -3.06 -2 -5.48 3.04 -5.16 3.12 -0.52 1.14 -3.06 7.52 -6 14.84 -4 -2.88 -18.22 -12.12 -19.22 -12.4 -0.46 -0.14 -54.82 31.68 -55.18 32 -0.92 0.94 0 2.14 0.54 2.86 2 2.76 34.12 27.14 38 29.58a4.8 4.8 0 0 0 2.46 1.1c1.62 0 30.36 -14.6 42 -22.64 -3.06 9.62 -4.22 13.06 -4.46 14.4s0.66 1.26 1.08 1.02 3.78 0 8.36 0c1.04 5.28 0.14 7.14 0.72 7.74s72.68 -1.6 87.12 -3.88c13.58 11.18 12.48 11.3 15.2 9.38 1.5 -1.06 29.8 -24.56 33.02 -27.54a0.7 0.7 0 0 0 0.24 -0.56c0.1 -0.88 -39.34 -41.92 -40.08 -42.46zM163.86 296a12.86 12.86 0 0 1 2.94 1.36c0.3 0.3 0.24 0.52 0 1.06 0 0 -12.3 35.5 -13.12 38a20.96 20.96 0 0 1 -5.08 -1.8c10.62 -26.3 13.76 -35.12 15.26 -38.62zm-10.2 41.76c0.4 4.66 -0.66 3.48 -4.32 8 0.34 -1.12 0.78 -2.52 0.98 -3.2a2.16 2.16 0 1 0 -1.18 -0.4c-0.24 0.76 -0.84 2.74 -1.24 4.14 -1.06 -4.24 -3.64 -4.46 0.36 -10.22a19.42 19.42 0 0 0 5.4 1.68zm-6.38 -2.38c-4.92 6.92 -0.66 7.56 -0.3 13.72a0.62 0.62 0 0 0 0.24 0.48c-8 4.34 -14.5 7.54 -22.72 11.6 -0.54 0.28 -0.88 0.42 -1.24 0.18A390.8 390.8 0 0 1 84 330.58c0 -0.2 0 -0.16 0.12 -0.28l53.62 -31.56c0.62 0.42 16.42 10.5 18.82 12.16 -10.4 26.12 -9.68 23.96 -9.28 24.48zm5.88 8.14a6.18 6.18 0 0 0 1.68 -6c0.72 -1.88 4.2 -11.74 7.46 -21.08a44.3 44.3 0 0 1 7.9 9.7c-1.38 4.26 -2.7 8.38 -3.88 12.12a167.12 167.12 0 0 1 -17.82 10.66 51.84 51.84 0 0 1 4.66 -5.4zm14.48 -47.2a16.2 16.2 0 0 0 -3.34 -1.56c0.62 -1.4 2 -2.8 3.3 -1.86 0.64 0.58 0.22 2.28 0.04 3.42zm73.52 57.46a0.7 0.7 0 0 0 0.94 -0.7c-0.62 -8.22 -2.42 -53.4 -2.86 -68.22 5.9 -0.68 5.74 -0.78 5.84 -0.54s14 70.26 14.84 73.64c-5.82 0.84 -79.78 4.5 -87.32 4.3a25.72 25.72 0 0 0 -0.56 -6.68c20.34 -0.38 65.18 -1.58 69.12 -1.8zm-3.42 -72.72c-0.28 9.86 2.12 64.1 2.84 71.42 -42 0.8 -73.66 1.8 -77.68 2 2.5 -7.68 14.7 -45.04 23.2 -73.04 10.96 -0.24 41.9 -0.38 51.64 -0.38zm23.68 77.74a0.34 0.34 0 0 0 0.18 -0.34c0 -0.66 0.54 2.7 -5.42 -27.1a0.74 0.74 0 0 0 0.92 0.2c0.82 -0.42 13.6 -12.56 16.32 -14.96 0.42 -0.38 -0.16 -1.02 -0.6 -0.64 -2.9 2.5 -16.18 13.78 -16.7 14.6 -0.14 0.2 0.2 1.54 -2 -9.68 2.46 -2 10 -8.82 12 -10.52 0.5 -0.4 -0.14 -1.12 -0.64 -0.74 -2.7 2 -9.08 7.1 -11.78 9.52 -0.68 -3.44 -1.34 -6.72 -2 -9.8a112.94 112.94 0 0 1 14 -9.7c2 1.88 36.26 37.84 39.32 41.06 -0.74 0.62 -31.74 26.3 -33.28 27.42 -1.16 -0.52 -9.82 -7.44 -11.68 -8.9a6.7 6.7 0 0 0 1.36 -0.42z" stroke-width="1"></path><path d="M280.3 325.52c0.46 -0.36 -0.12 -1.04 -0.58 -0.68 -3.6 2.9 -18.74 16.12 -20.22 17.8a0.72 0.72 0 0 0 0.54 1.2c0.68 0 15.54 -14.48 20.26 -18.32zm-18.08 26.8a0.72 0.72 0 0 0 0.5 1.18c0.36 0 0.24 0.14 12.38 -9.8 11.84 -9.7 11.26 -8.98 11.24 -9.32a0.42 0.42 0 0 0 -0.64 -0.32c-6.12 4.2 -22.72 17.26 -23.48 18.26zm7.2 5.68a0.72 0.72 0 0 0 1 1.04c1.52 -1.22 19.18 -16.5 21.34 -18.18a0.4 0.4 0 0 0 -0.46 -0.66c-3.3 2.54 -18.46 14.32 -21.88 17.8zm-92.82 -10.5c13.16 0.72 39.08 0.38 52.18 0.18a0.46 0.46 0 1 0 0 -0.92l-15.88 -0.24c3.54 -3.08 3.12 -4.84 3.02 -2a0.68 0.68 0 0 0 1 0.62c2.4 -1.24 2 -1.18 2.28 -0.88s0.84 0.98 1.46 0.48a15.82 15.82 0 0 1 8 -3.32 0.42 0.42 0 0 0 0 -0.84 13.32 13.32 0 0 0 -8.4 2.68c-1.12 -1.18 -1 -0.98 -2.98 0.14 0 -2 0.14 -2.68 -0.48 -2.84s-0.58 0.36 -1.78 1.8c0.98 -2.36 1.52 -4 2 -5.62a5.42 5.42 0 0 0 0.36 -3.38c-2 -4 -6.66 2.68 -8.28 6.9a7.2 7.2 0 0 1 -1.46 2.66 2 2 0 0 1 -2.48 0.26c-0.36 -0.3 -0.18 -0.9 -0.42 -1.48 -0.92 -1.62 -2.54 -0.48 -4 0.6 -0.4 0.32 -0.32 0.3 -0.28 0 0.44 -2.3 0.74 -4.92 -1.6 -4.5 -0.48 0.12 -0.8 0.38 -1.62 1.14 -4.5 4 -2.88 3.48 -2 -0.18 0.54 -3.34 -2.58 -3 -5.44 -1.16 0.84 -1.7 2 -4.16 0 -5.4 -1.54 -0.76 -3.46 0.48 -4.76 1.88a18.72 18.72 0 0 0 -2.88 4.72 0.46 0.46 0 0 0 0.82 0.44 13.06 13.06 0 0 1 4 -5.3c0.36 -0.24 1.48 -0.96 2.2 -0.62 1.54 0.7 -1.06 3.9 -3.26 8.88 -0.38 0.86 0.86 1.56 1.28 0.68a10 10 0 0 1 5.4 -5.02c1.44 -0.54 1.8 -0.46 1.1 1.2 -0.26 0.6 -1.56 4.28 -1.88 5.14a0.74 0.74 0 0 0 1.2 0.74c8.16 -7.74 6.74 -7.5 5.74 -1.02a0.7 0.7 0 0 0 1.16 0.68c2.62 -2 2.9 -2.38 3.44 -2.4a1.64 1.64 0 0 1 0 0.36 2.68 2.68 0 0 0 3.5 2.24c3.7 -0.84 2.56 -5.4 7.18 -10 0.36 -0.4 1.02 -1.18 1.5 -1.18 1.58 0 -3.24 10.5 -4 12a0.8 0.8 0 0 0 0.18 0.94c-11.58 -0.2 -23.52 -0.6 -35.3 -0.32a0.66 0.66 0 0 0 0.18 1.26zm48.14 -21.76c-2.86 0.16 -30.88 -0.34 -33.5 -0.52a15.42 15.42 0 0 0 -4.42 0.18c-1.46 0.28 -3.02 1.3 -4.36 0.7 -0.48 -0.24 -0.86 0.52 -0.36 0.74 2 0.94 3.52 -0.72 7.4 -0.6 3.1 0 32 1.34 35.3 1.04 0.94 -0.1 0.94 -1.58 -0.06 -1.54zM182 317.4c8 1.18 24.14 1.7 35.88 2.1 6.22 0.2 11.12 0.36 12.36 0.54a0.84 0.84 0 0 0 0.96 -0.7c0.22 -1.2 0.5 -1.14 -28 -2 -10 -0.28 -19.44 -0.56 -21.04 -0.76a0.4 0.4 0 0 0 -0.16 0.82zm3.2 -8.22a0.4 0.4 0 0 0 0 0.8c43.1 0.98 42 1.52 42.12 0.34s0.48 -0.7 -42.12 -1.14zm-0.52 -6.96c6 -0.64 42.68 -0.36 46 0 0.92 0 0.96 -1.3 0 -1.4 -6 -0.68 -42.66 0.26 -46.24 0.68a0.4 0.4 0 0 0 0.24 0.72zm4.02 -8.08a20.48 20.48 0 0 1 12.14 -1.1 14.44 14.44 0 0 0 4 0 18.6 18.6 0 0 1 4 0.16c2.9 0.32 12.24 -0.52 22.36 -0.64 0.74 0 0.88 -1.18 0.12 -1.3a139.46 139.46 0 0 0 -17.14 0.26c-6.12 0.66 -5.78 -0.34 -8.54 -0.14a24.82 24.82 0 0 1 -4 0.24c-4.86 -0.5 -4.78 -1.22 -13.18 1.52a0.5 0.5 0 0 0 0.24 1zm0.06 -7.76c4 0.88 7.56 -2.34 11.24 -0.44 2 0.64 4 -0.58 5.74 -0.6 0 0 18 1.22 21.22 1.22 0.66 0 1.4 0 1.4 -0.56a0.5 0.5 0 0 0 -0.48 -0.5c-2.76 -0.22 -19.58 -1.48 -21 -1.62a27.2 27.2 0 0 0 -5.54 0.78 6.62 6.62 0 0 1 -1.76 -0.48c-3.8 -1.2 -7.04 2 -10.58 1.26a0.48 0.48 0 1 0 -0.24 0.94z" stroke-width="1"></path><path d="M389.64 307.32a365.08 365.08 0 0 0 -53.64 -18.36c0 -2.9 -0.44 -8.64 -0.7 -10.58a13.14 13.14 0 0 0 2.82 -3.42c1.44 -2.38 14.76 -31.38 15.34 -34.48a9.46 9.46 0 0 0 -1.32 -7.3c-1.24 -1.68 -5.86 -3.68 -8.14 -4.9 2.64 -2.16 9.76 -8.28 9.76 -8.28 7.88 -6.48 9.12 -13.14 8.48 -21.74 -1.86 -24.66 -5.56 -52.62 -23.46 -72.64 -4 -4.42 -8.38 -8.52 -14 -8.68a7.56 7.56 0 0 0 -4.62 -5.16c2.52 -3.02 -1.12 -4.98 -4.7 -5 2.24 -4 1.76 -7 1.9 -18a6.2 6.2 0 0 0 4.18 -3.68 9.3 9.3 0 0 0 -0.32 -7.1c0.92 -2.68 4.46 -14.64 -2.32 -23.3 -9.5 -13.56 -41.74 -6.64 -37.2 2.22a20.24 20.24 0 0 0 -2.64 12.8 8 8 0 0 0 -5.06 6.6 8.78 8.78 0 0 0 4 8.8c-0.68 11.04 0.68 19.36 8.98 25.7 0 0 0.22 2.86 0.34 4.22 -2 2 -3.82 3.74 -5.52 5.52a37.62 37.62 0 0 0 -20.98 20.4c-2.42 5.48 -10.6 28.46 -12.84 34.42a4.66 4.66 0 0 1 -2 2.8c-1.28 0.64 -33.88 10.24 -35.16 10.8a4 4 0 0 0 -2 1.88c-2.94 -0.44 -5.6 -2.1 -8.64 -2.5a7.74 7.74 0 0 0 -7.28 2.14c-2.18 -0.3 -8 -0.52 -10.14 -0.52a2.8 2.8 0 0 0 -2.36 -2.3c-1.08 -0.2 -28.42 -4 -29.12 -4 -1.4 -15.12 -4.2 -32 -6 -41.04 1.78 -12.34 -2.76 -15.56 -7.56 -30.86a16.5 16.5 0 0 0 4.2 3.2 0.3 0.3 0 0 0 0.4 -0.42 105.04 105.04 0 0 1 -8 -20.18 111.12 111.12 0 0 0 -0.44 -28h2a0.3 0.3 0 0 0 0.3 -0.28A24 24 0 0 0 124 43.58a13.08 13.08 0 0 1 3.72 0.12 0.3 0.3 0 0 0 0.24 -0.56A29.54 29.54 0 0 0 107.52 40a8 8 0 0 1 1.84 -3.04 0.32 0.32 0 0 0 0 -0.34c-0.22 -0.68 -3.58 0 -5.26 2.62a2.78 2.78 0 0 1 -0.1 -2.92c0.66 -1.1 -3.1 -0.2 -2.92 2.82a8.6 8.6 0 0 0 -8.1 0.32 0.3 0.3 0 0 0 0.2 0.56 7.08 7.08 0 0 1 3.6 1.04C78 48.36 74.42 67.52 73.54 75.44c-0.94 8.6 0.48 9.5 -0.36 22.4 -1.28 19.44 -13.84 56.3 -17.76 67.12C50.38 176.6 58 184.18 70 188c0.18 6.28 0.48 14.9 1 17.56a16.94 16.94 0 0 0 5 9.54 21.22 21.22 0 0 0 -0.72 7.02 10.28 10.28 0 0 0 -3.24 4.6c-1.58 3.26 -6.56 36.48 -12 73.5 -14 6.16 -29.26 14 -49.3 24.78 -2 1.08 -0.5 2 0.78 1.3 61.42 -31.7 87.4 -42.78 166.3 -49.5 14.22 -1.2 28.82 -1.12 42.9 -1.24 56 -0.32 115.08 14.64 168.46 32.88 1.42 0.5 1.24 -0.78 0.46 -1.12zM292 198.4c3.54 2.34 18.64 11.26 24.3 14.2l-10.3 12.44a4.3 4.3 0 0 0 -1.2 3.52 8.16 8.16 0 0 1 -6 1.38 3.8 3.8 0 0 0 -1.34 0 1.56 1.56 0 0 0 -1.22 1.52 4.22 4.22 0 0 0 2 2.88 15.52 15.52 0 0 1 -2 1.54 130.68 130.68 0 0 1 -24.66 -16.9c1.48 -4.98 5 -17.18 9.78 -22 3.6 -3.74 5.76 -1.88 10.64 1.42zm-172 53.02a1.5 1.5 0 0 1 2.94 -0.66c1.9 8.5 4.8 20.96 6.8 29.52l-2.96 0.5c-1.9 -8.54 -4.78 -20.9 -6.68 -29.36zm170.28 -10c0.16 0.44 0.68 0.96 2.24 1.02 -0.9 1.5 -0.18 3.52 2.8 3.02a3.12 3.12 0 0 0 3.3 3.3c2.74 0 4.84 -2.52 8.74 -5.56 21.8 10.28 30.54 14.94 37.4 13.52l-6.46 14c-1.38 2.98 -3.46 7.48 -7.48 7.74 -2.16 0 -24.62 -11.02 -41 -19.06 -21.48 -10.54 -19.78 -9.2 -21.44 -10.82 -3.66 -3.76 -4 -9.42 -0.96 -17.36 1.38 -3.86 2.6 -7.48 3.72 -11.06 1.54 1.6 7.74 7.42 23.6 16.56 -1.42 0.96 -4.92 3.12 -4.36 4.72zm52.26 -12c1.8 1.24 7.6 4 8.12 4.6a6.6 6.6 0 0 1 1.3 3.36c0.26 2.52 -5.32 15.32 -6.42 17.7a22.1 22.1 0 0 1 -7.14 -0.14c-1.76 -0.36 -15.22 -6.16 -23.86 -10a4.48 4.48 0 0 0 2.48 0 92.12 92.12 0 0 0 25.62 -15.58zm-34 12.94c0.86 -0.7 1.76 -1.42 2.26 -1.86 1.46 2.42 2.22 3.74 3.28 4.3zm-11.26 4.56c-1.04 -0.8 1.82 -2.82 2.9 -3.62 0.48 -0.36 1.1 -0.66 0.82 -1.06a0.38 0.38 0 0 0 -0.52 -0.12 12.12 12.12 0 0 1 -5.06 2.26c-0.54 0 -1.8 0.2 -2 -0.4 -0.36 -1.5 3.66 -2.74 4.42 -3.14 2.72 -1.4 3 -1.5 2.78 -2 -0.5 -0.96 -4.36 2.54 -8.78 2.16 0.48 -1.04 6.44 -5.1 7.48 -6a5.86 5.86 0 0 0 1.38 0.52 0.56 0.56 0 0 0 0.52 -0.92c-0.72 -0.66 -3.44 -2.16 -3.58 -3.04 0 -0.28 0.18 -0.22 0.46 -0.16a10 10 0 0 0 7 -1.54c0.68 1.44 3.34 6.68 4.82 9.24 -6.9 5.46 -9.92 9.76 -12.54 7.76zm-30 2.86c1.64 2.16 55.04 27 57.84 28.66a9.18 9.18 0 0 0 8 1.2c0.16 2.14 0.3 6.42 0.38 8.8a468 468 0 0 0 -47.5 -9.6 150.84 150.84 0 0 0 -4 -16 1.16 1.16 0 0 0 -2.18 0.78c0.72 2 2.32 11.16 3.06 14.86q-12.78 -1.8 -25.82 -2.94c0.1 -2 2.12 -40.92 2.4 -45.34a30 30 0 0 0 6 2.64c-1.88 5.78 -2.78 12.06 1.94 16.88zm-120.72 28c-1.52 -6.26 -3.78 -15.66 -5.76 -24.12a1.5 1.5 0 0 1 2.92 -0.68c2 8.6 4.32 18.16 5.84 24.42zm46.26 -69.88a11.66 11.66 0 0 0 3.16 -3.58c1.52 -0.26 3.08 -0.8 2 0.9 -3.18 4.72 -5.16 3.56 -5.1 2.84a0.44 0.44 0 0 0 0.06 -0.18zm-1.26 -5.58c-0.46 1.68 -2.4 2.6 -3.84 3.62 -0.58 0.26 -1.28 0.82 -1.7 0.42 -1.14 -1.06 2.74 -4.64 4.72 -4.62 0.64 0 0.94 0.26 0.94 0.56zm2.62 2.32c-2 2.46 -5.34 5.36 -5.54 2.16 1.44 -1.02 3.4 -1.86 4.16 -3.7 0.48 -0.26 3.2 -0.52 1.5 1.52zM71.6 149.36c-0.64 -12.14 6.52 -21.32 14 -23.58 8.66 -2.62 18.48 3.86 22.96 11.36a0.3 0.3 0 0 0 0.56 -0.12 10.36 10.36 0 0 0 -2.28 -7.82 24.26 24.26 0 0 1 -2.54 -4.74c4 4 9.2 8.12 13.24 9.48a0.84 0.84 0 0 0 1.16 -0.54c0.54 -2.54 3.2 -14.72 3.24 -15.72a2 2 0 0 0 -1.06 -1.7c-0.86 -0.58 -13.54 -9.26 -20 -14.28C95.18 88 94.78 82 94.28 81.6a6 6 0 0 1 -4.96 -1.32 4.5 4.5 0 0 1 3.52 -7.7 6.98 6.98 0 0 1 4.56 4.58 0.3 0.3 0 0 0 0.44 0.16c5.08 -3 4.72 -7.44 7.52 -17.1A29.34 29.34 0 0 0 120.24 66c1.5 0 -3.02 -6 -4 -7.12 -0.62 -0.78 -0.16 -2.44 1.78 -0.68 3.88 3.5 9 7.58 14.24 8a118.36 118.36 0 0 1 0.2 28.42 14 14 0 0 1 -10.8 9.04 0.28 0.28 0 0 0 -0.26 0.28 10.12 10.12 0 0 0 4.6 8.28 43.82 43.82 0 0 0 -2.4 4.64 0.82 0.82 0 0 0 0.14 0.9c0.74 0.74 6.98 23.08 7 23.72s-0.38 1.64 -1.22 1.4a0.74 0.74 0 0 0 -0.58 1.34c1.14 0.86 3.2 0 3.5 -2.12a139.86 139.86 0 0 0 -6.88 -22.46c8.56 9.14 5.84 8.26 9 4.66l9.12 17.16c2 11.54 5.6 37.58 6 42a13.48 13.48 0 0 1 -6.26 -2.42c-2.16 -1.58 -19.1 -28 -23.22 -33.18a0.3 0.3 0 0 0 -0.5 0.36c3.7 5.84 18.92 29.64 20.74 32a12.34 12.34 0 0 0 6.74 4.44c2.2 0.58 33 4.8 33.06 4.8 1.24 0.42 0.82 2.48 0.76 3.66 -0.2 3.76 -0.52 7.1 -0.98 10.22 -3.4 0.2 -38.56 2.8 -40 2.92 -16.72 1.14 -23.32 -0.96 -40.84 -22C90.2 173.6 82 161.1 83.1 147.58a0.52 0.52 0 0 0 -1.02 0C80.28 164.66 92 179.1 103.44 192c16.54 18.58 24.3 16.74 46.56 15.08a66.82 66.82 0 0 1 -0.64 8c-14.62 10.2 -35.06 11.32 -60.76 3.36 -7.3 -2.42 -12.82 -2.54 -15.42 -11.08 -2.94 -9.48 -0.38 -36.02 -1.58 -58zm31.44 -41.24a0.3 0.3 0 0 0 0.38 -0.42c-0.4 -0.84 -0.82 -1.72 -1.24 -2.64 8.42 6.58 18 12.38 18 12.62s-1.84 9.48 -2.86 14.3a70.66 70.66 0 0 1 -14.54 -10.9 119.58 119.58 0 0 1 -5.08 -16.48 26 26 0 0 0 5.34 3.52zm31.12 14.3a25.28 25.28 0 0 0 -2 2.34 91.62 91.62 0 0 0 -7.18 -7.78 22.3 22.3 0 0 1 2.12 -4.3 2.18 2.18 0 0 1 1.6 -0.98c0.24 0 0.82 0 2.62 2.74s3.12 4.42 2.84 7.98zm17.3 84.64 4 -0.3c4.44 14.66 6.36 19.58 6 20l-6.64 4.24c-0.86 -4 -1.02 -5.72 -5.04 -9.14a54.54 54.54 0 0 0 1.68 -14.8zm10 21.64c1.12 5.8 4.16 6.8 4 8.46a1.46 1.46 0 0 1 -2 1.12 0.74 0.74 0 0 0 -0.94 0.7c0 5.36 4.42 8.48 -3.62 14.56 0 -0.58 -3 -16.16 -4 -20.74zm40.32 -30.54a0.44 0.44 0 0 0 -0.54 0.7c1.46 1.38 3.54 3.1 3.2 5.34a1.74 1.74 0 0 1 -0.52 1.12 7.42 7.42 0 0 0 -3.58 -3.58 0.36 0.36 0 0 0 -0.36 0.64c3.04 2.14 4 5.68 2.94 6 -0.54 0.16 -3.16 -2.2 -3.64 -2.66 1.02 -2 0 -3.16 -1.84 -2.94a9.6 9.6 0 0 0 -1.32 0.24c-0.4 -1.22 -2 -1.5 -3.28 -1.16 -1.02 -2.96 -5.26 -0.9 -7.3 1.5a36.38 36.38 0 0 0 -4 -0.54c0.3 -2.8 0.9 -9.54 0.92 -11.42 0.72 0 7.82 0.48 9.12 0.52 -2 4.12 0.72 8.52 4.36 4.94 0.48 -0.5 2.64 -2.86 3.3 -2.5a28.54 28.54 0 0 1 4 3.58 6.32 6.32 0 0 1 1.14 2.36 9.66 9.66 0 0 0 -2.5 -2.14zm-125.02 24a23.28 23.28 0 0 1 0.54 -6 26.52 26.52 0 0 0 6.86 2.76c21.76 6.44 46 11.66 64.8 -2 -0.3 1.68 -0.7 3.34 -1.12 5 -12.12 8.96 -23.74 9.72 -39.56 8 -8.82 -0.34 -21.44 -1.92 -31.42 -7.72zm29.62 22.12c-1.5 16.16 -2 31.28 -2.2 41.1l-3.02 0.72c0.16 -9.84 0.68 -25.42 2.24 -42a1.5 1.5 0 0 1 3.08 0.22zM342 132c12.64 17.72 16.16 40.26 18 60 1.16 10.98 2 19.66 -7.7 27.14 -10.78 9.3 -22.1 19.12 -35.44 24.26a2.1 2.1 0 0 1 -2.38 -0.62c-0.64 -0.82 -7.6 -13.18 -7.84 -14.14a2.94 2.94 0 0 1 1 -2.66c0.24 -0.26 23.26 -26.98 24.6 -30.68 0.76 -2 -0.96 -4 -1.82 -5.64a67.1 67.1 0 0 1 -7.38 -23.88c0 -0.66 -1.1 -0.62 -1.04 0a60 60 0 0 0 8.48 27.44c0.8 2 -3.36 6.5 -12.9 18 -5.28 -2.48 -15.22 -8.5 -21.16 -12.26 0.12 -1.64 0.22 -3.28 0.34 -4.84 1.52 -2.82 23.34 -43.68 25.14 -47.34a0.3 0.3 0 0 0 0 -0.34 52.6 52.6 0 0 1 -3.48 -4.76c-0.4 -1.2 10.12 -2 11.06 -2s2.94 0 2.94 -1.9c0 -0.82 -5.56 -16 -7.02 -19.66 6.72 0.72 12.86 8.88 16.6 13.88zm-23 -18.74c2.38 0.36 3.76 2.84 4.5 4.92 0.98 2.5 6.88 18.36 6.92 18.46 0.2 0.48 0.58 1.36 0.26 1.58s-2.26 0.28 -4 0.46c-2.64 0.28 -5.62 0.58 -6.6 0.82s-2.82 0.46 -3.34 1.5c-0.68 1.4 1.32 2.86 3.72 6 -2.9 3.64 -21.06 38.76 -23.46 43.4 0.7 -9.12 2.24 -28.94 4.6 -37.66a88.64 88.64 0 0 1 8.22 -19.64c2.24 -3.84 3.74 -8 6.5 -11.6a11.38 11.38 0 0 0 2.64 -8.34zm-21.9 -41.88a5 5 0 0 1 4 1.58c3.5 4 1.18 15.22 -7.16 10.82 -3.26 -1.78 -3.94 -12.4 3.16 -12.4zm13.74 -1.66c0.56 4 -1.1 7.32 -1.56 10H304a10.22 10.22 0 0 0 -1.4 -7.18 7.04 7.04 0 0 0 -10.18 -0.98 9.2 9.2 0 0 0 -2.68 6.44 4.58 4.58 0 0 0 -1.88 0c0.68 -5.16 -2.12 -9.38 -7.38 -8.74a18.54 18.54 0 0 1 2.22 -10.88 12.72 12.72 0 0 0 7.7 4.42c5.6 0.74 8 -4.34 12.56 -3.28 4.12 1.1 7.3 6.1 7.88 10.2zm-25.24 3.44c2.32 2.9 0.48 9.42 -2 10.64a5.48 5.48 0 0 1 -4.28 0.46c-3.64 -1.36 -4 -4 -4.12 -6.6 -0.06 -4.72 6.38 -9.66 10.4 -4.5zm4.22 38c-9.52 -6.9 -11.04 -13.34 -10.74 -25.52a6.52 6.52 0 0 0 8.52 -5.84 3.36 3.36 0 0 1 2.22 -0.18c1.04 8 11.38 9.66 13.86 1.54 2 0.12 3.7 0.2 5.48 0.2a3.02 3.02 0 0 0 2.82 2.8c2 -0.14 2.22 -3.46 4.66 -4.88 1.22 -0.7 2.16 -0.78 2.76 -0.22 1.32 1.2 0.94 5.02 0.52 6a5.08 5.08 0 0 1 -6.32 2.54 0.5 0.5 0 0 0 -0.38 0.92 6.82 6.82 0 0 0 2.84 0.58c0 1.88 -0.28 8.7 -0.32 10.26a11.08 11.08 0 0 1 -2.24 7.74c-6.14 1.08 -7.78 -0.22 -8.16 0.26a13.38 13.38 0 0 1 -15.52 3.76zm-2.58 5.82c-0.14 2.12 -0.28 2.34 0 2.5a24.82 24.82 0 0 0 4 2.9c0 -2.6 0.14 -6.68 0.22 -7.3 0.12 -1 2.2 -0.8 2.12 0.2s0 5.8 0 8a14.42 14.42 0 0 0 3.7 1.42c0.14 -2.36 0.42 -6.3 0.48 -6.98a1.22 1.22 0 1 1 2.42 0.26c0 0.66 -0.24 5.02 -0.18 7.3a20.86 20.86 0 0 0 6.8 -0.26c0.34 -2.44 0.7 -8.26 0.7 -8.26 0 -0.96 2 -0.86 2 0 0 0 -0.26 4.72 -0.64 7.66 2.16 -0.74 2.82 -1.54 3.22 -0.82 1.78 3.12 -12.44 9.32 -25.28 -1.66a0.3 0.3 0 0 0 -0.48 0.12c-5.26 14 -9.52 34.28 -11.48 54.62 -1 -3.58 -5.84 -20.46 -6 -21.02a76 76 0 0 1 6 -9.34 2.34 2.34 0 0 0 -0.42 -3.22c-1.62 -1.48 -5.08 -5.34 -4.98 -6s12.94 -15.1 17.8 -20.16zm-76.82 74.1c1.14 -0.88 32.44 -10.16 34 -10.66a7.22 7.22 0 0 0 3.34 -1.66c0.62 -0.64 4.88 -12 10 -25.74 4 -10.94 7.78 -22.96 21.42 -29.8 -6 6.72 -10 11.74 -10.22 12a3.46 3.46 0 0 0 -1.22 3.02 37.54 37.54 0 0 0 5.22 5.56c0.78 0.78 1.14 0.98 0.34 2 0 0 -6 7.78 -6.16 9.44s6.58 24.34 7 27.42c-4.74 42.88 -1.26 29.52 -8.12 48.64a20.26 20.26 0 0 1 -9.06 -4.94 3.58 3.58 0 0 1 -1.14 -2.28c0 -1.14 3.8 -44.76 4.6 -49.72a0.44 0.44 0 0 0 -0.88 -0.18c-0.72 4.14 -4.22 30.12 -4.6 34 -8.9 0.9 -44.34 2.56 -45.18 2 -0.3 -1.5 -0.18 -18.08 0.66 -19.1zm0 20.66c2.22 0 32.34 -0.52 44.48 -2 -0.14 2.12 -0.66 11.52 -0.68 11.8 -0.26 4 0.14 5.16 3.44 7.48 -1.22 12 -2.7 40.92 -2.74 46.3a512.8 512.8 0 0 0 -91.48 0.6c-1.26 -6.44 -2.62 -13.68 -3.88 -20.44 3.76 -2.46 6.96 -6.44 5.78 -11.18a39.7 39.7 0 0 1 -1.06 -4.44 2.82 2.82 0 0 0 2 -4.64 16.2 16.2 0 0 1 -3.56 -7.38c0.44 -0.42 0.72 -1.32 0 -3.26 -0.3 -0.78 -5.36 -16.88 -5.68 -17.88l23.64 -1.72c0.64 0 0.82 -0.54 0.88 -1l2 0.42c1.44 0.3 1.2 0.18 1.14 0.44 -0.7 2 0.88 3.62 2.76 2.8 0.54 2 2.46 2.4 4.2 1.24a2.36 2.36 0 0 0 2.12 1.32c1.74 0 3.88 -2.24 4.9 -3.52 0.74 0.72 3.2 2.94 4.3 2.94a1.7 1.7 0 0 0 1.4 -0.86c0.84 0 2.68 0.22 3.52 0.32a2.42 2.42 0 0 0 2.46 2.66zm-11.08 -21.88c1.28 0.18 7.18 2 8.86 2.3 -0.22 2.2 -0.26 13.36 -0.26 15.5 -4.22 -0.56 -2.96 0.3 -3.48 -1.26a3 3 0 0 0 1.34 -3.02c0.86 -3.08 -1.6 -8 -6.48 -10.4 -1.22 -0.16 -2 0.78 -2.58 1.54 -0.88 1.08 -2.64 3.04 -3.46 2a4 4 0 0 1 -0.14 -3.34 5.52 5.52 0 0 1 6.2 -3.32zM82.62 242.6a1.5 1.5 0 0 1 2.94 0.64 364.86 364.86 0 0 0 -6.54 49.48l-3.08 1.1a374.66 374.66 0 0 1 6.68 -51.22z" stroke-width="1"></path></g></svg>