<svg xmlns="http://www.w3.org/2000/svg" viewBox="0 0 400 400" id="Job-Application-1--Streamline-Milano.svg" height="400" width="400"><desc>Job Application 1 Streamline Illustration: https://streamlinehq.com</desc><g fill="#000000" fill-rule="evenodd"><path d="M108.56 38.82a11.04 11.04 0 0 0 -6.86 14.12 11.1 11.1 0 1 0 20.96 -7.22 11.04 11.04 0 0 0 -14.1 -6.9zm0.16 0.48a10.34 10.34 0 0 1 12.84 6.8 10 10 0 1 1 -18.74 6.46 10.3 10.3 0 0 1 5.9 -13.26zm-21.2 46.88a3.14 3.14 0 1 0 6 -1.64 3.14 3.14 0 0 0 -6 1.64zm2.36 -3.28a2.46 2.46 0 0 1 2.84 1.88 2.24 2.24 0 1 1 -4.34 1.16 2.44 2.44 0 0 1 1.5 -3.04zm61.3 -15.14a3.12 3.12 0 1 0 5.72 -2.52 3.14 3.14 0 0 0 -5.72 2.52zm1.84 -3.6a2.44 2.44 0 0 1 3.08 1.42 2.24 2.24 0 1 1 -4 1.82 2.44 2.44 0 0 1 0.92 -3.24zM108.86 107.2l3.68 6.52s40.54 -12.22 42.24 -13.1L150 93.3zM67.48 196.84l3.28 6.36S145.24 174.84 147 174L144 167.24zm87.58 -34.54 3.28 6.36s74.48 -28.36 76.24 -29.24l-3.02 -6.72zm35.1 75.88 3.28 6.34s74.48 -28.34 76.24 -29.24l-3.02 -6.7zm-91.46 34.84 3.3 6.36s74.48 -28.36 76.24 -29.26l-3 -6.7zm-14.36 -64.32a0.22 0.22 0 0 0 -0.1 0.28c3.52 6.82 3.28 6.6 3.58 6.5s60.46 -22.32 63.72 -24a0.44 0.44 0 0 0 0.22 -0.62l-3.04 -6.72a0.48 0.48 0 0 0 -0.62 -0.24zM148 185l-63.32 24 3.16 6c1.38 -0.52 62 -23.72 62.82 -24zm-50 54.06a0.22 0.22 0 0 0 -0.1 0.28c3.48 6.64 3.24 6.62 3.58 6.48 66.42 -24.8 64.36 -23.68 64 -24.58l-3.04 -6.7a0.5 0.5 0 0 0 -0.62 -0.26zm63.68 -23.7 -63.32 24 3.16 6c1.38 -0.54 62 -23.72 62.82 -24zm-43.3 72.94a0.2 0.2 0 0 0 0 0.28c3.48 6.68 3.24 6.62 3.58 6.5 67.36 -25 64.28 -23.84 64 -24.58l-3.06 -6.72a0.44 0.44 0 0 0 -0.6 -0.24zM182 264.6l-63.32 24 3.16 6c1.38 -0.52 62 -23.72 62.82 -24zm-51.78 53.8a0.2 0.2 0 0 0 0 0.28c3.48 6.68 3.22 6.62 3.58 6.5 67.36 -25 64.28 -23.84 64 -24.58l-3.06 -6.72a0.48 0.48 0 0 0 -0.62 -0.24zm63.66 -23.7c-1.84 0.72 -62 23.54 -63.32 24l3.16 6c1.4 -0.54 62 -23.72 62.84 -24zm30.52 -15a0.2 0.2 0 0 0 0 0.28c3.46 6.64 3.22 6.62 3.58 6.5 66.58 -24.88 64.34 -23.7 64 -24.58l-3.06 -6.72a0.48 0.48 0 0 0 -0.62 -0.24zM288 256c-1.84 0.72 -62.12 23.54 -63.32 24l3.16 6c1.4 -0.52 62 -23.72 62.82 -24zm-78 -8.54a0.18 0.18 0 0 0 0 0.26c3.48 6.68 3.24 6.64 3.58 6.5 66.34 -24.78 64.36 -23.68 64 -24.58l-3.06 -6.72a0.46 0.46 0 0 0 -0.6 -0.24zm63.68 -23.72c-1.84 0.72 -62.12 23.54 -63.34 24l3.18 6c1.38 -0.54 62 -23.72 62.82 -24zM176.62 171.12a0.2 0.2 0 0 0 -0.12 0.26C180 178 179.74 178 180.1 177.88s60.44 -22.3 63.7 -24a0.5 0.5 0 0 0 0.24 -0.64l-3.06 -6.7a0.5 0.5 0 0 0 -0.62 -0.26zm63.66 -23.7 -63.32 24 3.16 6c1.38 -0.54 62 -23.72 62.82 -24zM189.2 202a0.2 0.2 0 0 0 0 0.28l3.28 6.38a0.26 0.26 0 0 0 0.3 0.12c66.34 -24.78 64.36 -23.68 64 -24.58l-3.06 -6.72a0.46 0.46 0 0 0 -0.6 -0.24zm63.68 -23.7c-1.84 0.72 -62.12 23.54 -63.34 24l3.18 6c1.38 -0.52 62 -23.72 62.82 -24zm-175.66 50.22a0.2 0.2 0 0 0 0 0.26c2.84 7.32 2.62 7.1 2.94 6.96s74.64 -29.02 78.3 -30.86a0.5 0.5 0 0 0 0.22 -0.64l-3.06 -6.72a0.48 0.48 0 0 0 -0.62 -0.24zm77.62 -30.16 -77.3 30.46 2.58 6.38 77.38 -31zm-64.06 60.7a0.2 0.2 0 0 0 -0.12 0.26l2.66 6.68a0.24 0.24 0 0 0 0.3 0.14c0.2 0 74.78 -29.1 78.3 -30.86a0.52 0.52 0 0 0 0.22 -0.64l-3.06 -6.72a0.46 0.46 0 0 0 -0.62 -0.24zm77.62 -30.36 -77.3 30.66 2.58 6.2c1.12 -0.46 76.36 -30.58 77.38 -31.02zm-57.1 79.58a0.2 0.2 0 0 0 0 0.26l2.6 6.66a0.22 0.22 0 0 0 0.3 0.14c0.22 0 74.9 -29.16 78.3 -30.86a0.52 0.52 0 0 0 0.22 -0.64l-3.06 -6.72a0.48 0.48 0 0 0 -0.62 -0.24zM188.86 278l-77.22 30.58 2.52 6.22 77.36 -31zm-65.84 60.4 2.6 6.92a0.24 0.24 0 0 0 0.32 0.12c81.68 -32 78.94 -30.58 78.52 -31.5l-3.06 -6.7a0.48 0.48 0 0 0 -0.62 -0.26c-83.32 33.38 -77.84 31.18 -77.76 31.42zm77.68 -30.4 -77.24 30.44 2.54 6.46L203.36 314zm1.52 -40.26a0.18 0.18 0 0 0 0 0.26c3.32 6.26 3.2 6.64 3.58 6.48s74.6 -29.02 78.3 -30.86a0.52 0.52 0 0 0 0.22 -0.64l-3.06 -6.7a0.48 0.48 0 0 0 -0.62 -0.26zm78.24 -30.64L202.56 268l3.16 6 77.4 -31.02zM168.84 191.4a0.18 0.18 0 0 0 0 0.26c3.46 6.64 3.24 6.62 3.58 6.5s74.66 -29.06 78.28 -30.88a0.46 0.46 0 0 0 0.22 -0.62L247.78 160a0.46 0.46 0 0 0 -0.62 -0.24zm78.26 -30.64L169.2 191.68l3.16 6c1.08 -0.42 76.38 -30.58 77.4 -31.02zm-65.66 61.58a0.22 0.22 0 0 0 0 0.28c3.5 6.82 3.3 6.6 3.58 6.48s74.58 -29.1 78.2 -30.86a0.52 0.52 0 0 0 0.22 -0.64l-3.06 -6.7a0.48 0.48 0 0 0 -0.62 -0.26zm78.24 -30.62 -77.9 30.9 3.16 6 77.4 -31.02zM157.6 90.98l3.54 6.68 38.04 -11.6 -3.88 -7.32 -37.7 12.24zm-42 29.74a0.2 0.2 0 0 0 0 0.28c5.04 8.62 4.7 8.18 4.96 8 89 -29.6 87.06 -28.02 86.48 -29l-4.16 -7.32c-0.3 -0.68 5.44 -2.36 -87.28 28.04zm86.64 -27.28c-2.1 0.68 -84.76 27.1 -86.24 27.56l4.54 7.56C122 128 202.38 101.08 206 100zm-79.4 41.6a0.2 0.2 0 0 0 -0.1 0.28c4.64 7.14 4.34 7.02 4.72 6.9 31.46 -11 31.8 -10.4 31.32 -11.32l-3.44 -6.62a0.48 0.48 0 0 0 -0.58 -0.24zm31.82 -10 -31.44 10.28 4.26 6.24c1.1 -0.4 28 -10 30.18 -10.7zm5.6 -2.54c0.44 0 6.78 -2.44 7.18 -2.6 18.3 -6.94 17.34 -6.92 17.66 -6.34 3.7 6.7 3.58 6.3 3.46 6.58a0.46 0.46 0 0 1 -0.28 0.3L163.6 130a0.34 0.34 0 0 1 -0.42 -0.16L160 122.72a0.18 0.18 0 0 1 0.24 -0.26zm24.2 -8c-1.5 0.58 -21.54 8 -24 8.42l3.2 6.44c1.06 -0.44 22 -8.8 23.78 -9.52zm5.54 -3a0.2 0.2 0 0 0 -0.12 0.26l3.34 7.6a0.36 0.36 0 0 0 0.44 0.18c22.2 -8.6 21.42 -8 21.58 -8.44a0.52 0.52 0 0 0 0 -0.42l-4 -6a0.48 0.48 0 0 0 -0.54 -0.2zm20.64 -6L190.34 111.8l3.36 6.98 20.34 -8zM75.74 215.2a3.04 3.04 0 1 0 6 0 3.02 3.02 0 0 0 -6 0zm16.6 27.76a2.6 2.6 0 1 0 2.6 2.6 2.6 2.6 0 0 0 -2.6 -2.6zm17.44 51.84a3.04 3.04 0 1 0 6 0 3.04 3.04 0 0 0 -6 0zm11.82 30.12a3.04 3.04 0 1 0 6 0 3.02 3.02 0 0 0 -6 0zm94.18 -38.72a3.04 3.04 0 1 0 6 0 3.02 3.02 0 0 0 -6 0zm-14.42 -32.2a3.04 3.04 0 1 0 6 0 3.04 3.04 0 0 0 -6 0zM168 177.62a3.04 3.04 0 1 0 6 0 3.04 3.04 0 0 0 -6 0zm12.58 30.94a3.04 3.04 0 1 0 6 0 3.06 3.06 0 0 0 -6 0zM149.8 164.44l65.26 148a0.2 0.2 0 0 0 0.26 0.1c0.3 -0.14 -68.78 -156.28 -65.16 -148.2a0.2 0.2 0 1 0 -0.36 0.1z" stroke-width="1"></path><path d="M115.3 374.18s-19.64 -38.8 -42.76 -100.84C53.54 222.3 28.24 158.88 10 104.5c0 0 1.14 -6.4 3.2 -8.98a0.3 0.3 0 0 1 0.14 -0.28c8 -5.08 58.96 -19.88 71.86 -23.32a41.16 41.16 0 0 1 7.34 -6.16c-3.38 -7.84 -5.36 -18.64 -2.18 -26.72 2 -5.08 6 -9.56 13.7 -12a21.28 21.28 0 0 1 19.16 2.36C133.24 36 138 50 138.88 53.14a37.48 37.48 0 0 1 11.34 0.64c7.52 -1.74 46 -10.56 53.6 -11.84a0.54 0.54 0 0 1 0.58 0.3s92.98 182.54 94.68 186c38.28 3.76 64.42 30.3 80 65.1A158.62 158.62 0 0 1 390 328a0.3 0.3 0 0 1 -0.58 0.12 168.12 168.12 0 0 0 -11.6 -34.12c-15.66 -34.14 -41 -60.26 -78.42 -65 11.24 23.06 10.68 22.4 10.88 22.46 4.34 1.26 10.34 5.78 14 9.1 8.52 7.68 16.98 19.16 23.78 35.46a0.2 0.2 0 0 1 0 0.26l0.48 0.5a0.26 0.26 0 0 1 0 0.4c-0.6 0.58 -1.14 -1.68 -13.86 -12.24 -8.48 -7.02 -27.12 -21.3 -36.66 -16 -7.56 4.24 19.24 39.6 22.8 45.22 0.3 0.46 3.22 24.52 27.48 45.84a0.28 0.28 0 1 1 -0.36 0.42 87.62 87.62 0 0 1 -24.36 -32.64 59.74 59.74 0 0 1 -4 -13c-0.44 -0.66 -1.02 -1.54 -1.74 -2.56 -1.02 6.16 -4.44 22 -10.6 23 -4.54 0.62 -7.66 -2.52 -9.2 -6.76a6.94 6.94 0 0 1 -0.92 0.26c-6.16 1.34 -8.94 -5.68 -10 -12a47.16 47.16 0 0 1 -0.74 -7.08c-0.2 -0.4 -148.56 59.34 -171.08 64.54zM43.02 94c14 -4.26 30.4 -9 33.72 -10a51.56 51.56 0 0 1 7.62 -11.28l-56.52 17.8C11.06 96 14.98 95.42 13.56 95.76 16.4 102.78 45.42 198.34 118 367.56c0 0 169.44 -64.94 188.52 -71.84 -1.52 -2.32 -3 -4.7 -4.38 -7.02 -28.2 12.6 -145.54 56 -183.36 70.18 -3.28 -1.3 -98 -254.6 -97.56 -254.74 0.98 -0.42 1.4 -0.6 2.74 -1.08l-0.8 -2.16a0.32 0.32 0 0 1 0.18 -0.4c2.18 -0.92 7.28 -2.6 13.54 -4.54a5.66 5.66 0 0 1 -0.42 -3.66c0.34 -0.98 1.22 -1.8 3.22 -1.82 1.04 -0.02 2.74 2.64 3.34 3.52zM24 103.54c-1.18 0.4 -1.5 0.48 -2.34 0.84 1 2.64 93.34 246 97.04 253.68 3.24 -1.2 173.84 -65.5 183.16 -69.62 -0.38 -0.64 -0.74 -1.28 -1.1 -2 -27.28 12.32 -142.88 55.1 -179.9 68.96C117.16 354 25.26 106.72 24 103.54zm18.46 -8.76c-4 1.22 -14.9 4.62 -18.72 6.18 1.2 3.2 93.44 245.7 97.18 253.48 3.6 -1.32 170.56 -64.2 179.64 -68.26a60.72 60.72 0 0 1 -4.48 -9.68c-3.3 1.38 -76 30.48 -76 30.48a0.5 0.5 0 0 1 -0.6 -0.24c-3.56 -6.82 -3.46 -6.44 -3.36 -6.74a0.48 0.48 0 0 1 0.28 -0.28l78.54 -31.18a0.2 0.2 0 0 1 0.26 0l0.36 0.8c1.24 -2.82 6 -3.32 9.08 -2.96a21.78 21.78 0 0 1 2.4 0.44c-2.16 -3.36 -6.82 -12 -13.04 -24.16 -5.48 -10.68 -91.64 -187.66 -92.48 -189.44 -6.34 1.2 -28 6.22 -34.28 7.68a56 56 0 0 1 9.16 7.72 0.7 0.7 0 0 1 -0.3 1.16c-0.1 0.22 -105.2 33.58 -105.42 33.4a0.3 0.3 0 0 1 -0.1 -0.26 64.24 64.24 0 0 1 6 -18.34c-4 1.16 -19.7 5.78 -33.18 10 2.26 3.74 6.6 12.68 6.6 16.92a2 2 0 0 1 -1.9 2c-3.76 0.6 -7.52 -9.02 -8.86 -12.6a4.74 4.74 0 0 1 0 -2.86 2 2 0 0 1 3.34 -0.7 5.56 5.56 0 0 1 1.3 2l3.58 9.3a0.2 0.2 0 0 1 -0.36 0.16c-4.28 -10 -4.26 -10.06 -5.1 -10.8a1.28 1.28 0 0 0 -2 0.42 3.66 3.66 0 0 0 0 2.26c1.06 2.76 4.94 12.42 7.86 12a1.08 1.08 0 0 0 1.08 -1.14c0.06 -3.98 -4.24 -13.1 -6.4 -16.76zm267 205.46c-3.06 1.22 -1.74 0.52 -1.78 1.1a73.08 73.08 0 0 1 -1.06 10.84c-0.94 5.44 -3.22 13.78 -8.26 16 1.62 3.78 4.6 6.68 8.66 6 5.26 -0.8 9.22 -17.36 10.38 -22.6 -2.04 -2.84 -4.92 -6.88 -7.94 -11.34zm-2.28 0.92 -20.68 8.24c0.62 0 0 1.04 1.44 7.16 1.22 5.1 3.7 11.9 8.8 10.74s7.56 -10.2 8.7 -15.34c1.7 -7.74 1.46 -10.48 1.74 -10.8zM295.48 270l-0.46 -0.98 -77.64 31.42 2.88 5.48c2.44 -0.96 70.84 -27.8 75.78 -29.78a11.18 11.18 0 0 1 -0.56 -6.14zm15.02 -18c3.54 7.4 6.9 14.5 10 21.18a162.48 162.48 0 0 1 27.02 22.68c-5.82 -12.52 -13.76 -25.26 -23.88 -34.62a52 52 0 0 0 -13.14 -9.24zm-2.78 15.16a46.14 46.14 0 0 1 11.9 5.46C301.08 234 208 51.7 203.6 43.12c-8.32 1.38 -43.82 9.16 -52 10.96a47.14 47.14 0 0 1 15.32 6.62c3.46 -0.84 32.76 -7.68 34.88 -8.1a0.34 0.34 0 0 1 0.36 0.2s81.28 167.08 84 172.5c10.58 21.46 18.74 37.48 21.56 41.76zM174.7 68.88c-18.92 -18.8 -39.14 -13.72 -36.2 -14.24a0.72 0.72 0 0 1 -0.82 -0.52s-4.34 -16.28 -15.24 -23.54a20 20 0 0 0 -18 -2.24c-11.52 3.64 -15.64 12.56 -14.26 24.36a49.88 49.88 0 0 0 3.46 13.04 0.5 0.5 0 0 1 -0.2 0.66 44.98 44.98 0 0 0 -14.86 16 64.76 64.76 0 0 0 -7.38 20.22zm-132.44 25.4c-0.36 -0.58 -2 -3.16 -2.64 -3.16 -1.66 0 -2.44 0.56 -2.74 1.36a5.34 5.34 0 0 0 0.3 3.36z" stroke-width="1"></path><path d="M72.76 113.5a29.88 29.88 0 1 0 36 21.04 29.54 29.54 0 0 0 -36 -21.04zm4.2 42.9c-3.22 2 -9.84 6.8 -11.88 10a28 28 0 0 0 26 2.8v-4.66l-3.58 -1.06a14 14 0 0 1 -1.5 2.9c-0.62 0.82 -2 -0.58 -2.64 -1.34a92.9 92.9 0 0 1 -6.4 -8.64zm31.64 -8.9a29.64 29.64 0 0 0 -13.82 -30.42 27.86 27.86 0 0 0 -39.24 10.58 29.64 29.64 0 0 0 9.26 38.58c2.1 -4 8 -8.16 11.76 -10.5 0 -0.46 -0.78 -5.48 -0.9 -6.36 -1.72 0 -10 0 -12.66 -6.82 -2 -5.12 -2.34 -12.2 3.74 -16.58 3.02 -2.2 11.52 -6.92 18.84 0.9 -0.22 0 4.34 2.84 6.68 12A8.84 8.84 0 0 1 90 146.58l1.74 3.2a39.16 39.16 0 0 1 16.86 -2.28zm-31.16 9.02c0.84 1.16 6.64 9.16 8 9.42a26.62 26.62 0 0 0 2.78 -7.3 39.04 39.04 0 0 1 -10.78 -2.12zm31.1 -8.68a43.12 43.12 0 0 0 -16.38 2.62c1.34 1.7 7.16 9.5 5.06 9.24l-3.34 -0.4c0.2 1 0.56 3.48 0.56 3.48l4 2a28.98 28.98 0 0 0 10.1 -16.94zm-16.66 3.52c-0.6 1.76 -1.88 4.88 -2.62 6.62l7.46 0.86a43.82 43.82 0 0 0 -4.84 -7.48zm-8 -25.24c-2.54 -0.88 -7.42 -1.5 -11.9 4.7 0 0 -2.52 4.42 0.94 7.22s1.32 4.92 0 4.88c-2.24 0 -3.76 -2.18 -4 0.64 -0.36 3.24 4.42 2.66 5.86 2.86 0.44 0 0.76 0.76 0.98 1.46 0.42 1.42 1.74 8.44 1.68 8a0.36 0.36 0 0 1 0 0.24 39.84 39.84 0 0 0 11.22 1.88c0.6 -1.46 2.38 -6 2.82 -7.42a0.24 0.24 0 0 1 -0.1 -0.1c-2.14 -3.9 -2.28 -4 -2 -4.22a8.56 8.56 0 0 0 2.26 -7.1c-1.28 -4.7 -3.64 -10.48 -7.76 -13.04zm0 17.2a2.92 2.92 0 0 0 2.6 -0.62 2.54 2.54 0 0 0 0.66 -2.58 0.1 0.1 0 0 0 -0.2 0 2.52 2.52 0 0 1 -1.8 2.76 3.52 3.52 0 0 1 -1.22 0.22c-0.1 0.02 -0.12 0.2 0.08 0.22zm1.84 -5.54a50.1 50.1 0 0 0 -3.6 -3.62s0 -0.24 0.12 -0.16a22.84 22.84 0 0 1 1.82 1.38c0.46 0.4 2.56 2.24 2.1 2.64s-2.22 1.68 -2 1.54c-0.1 0 -0.22 0 -0.14 -0.16s0.72 -0.72 1.74 -1.62zm-6.62 -0.5c-0.14 -0.24 -0.28 -0.5 -0.4 -0.76s-1.02 -0.22 -0.76 0.3a8.22 8.22 0 0 0 0.42 0.84 0.42 0.42 0 1 0 0.78 -0.38zm-3.56 -2a2.86 2.86 0 0 1 2.16 -1.84 0.1 0.1 0 1 0 0 -0.2 2 2 0 0 0 -2.3 1.58 3.06 3.06 0 0 0 0 0.42c-0.02 0.12 0.16 0.14 0.18 0.02zm10.3 -1.2c-0.14 -0.26 -0.26 -0.52 -0.38 -0.78s-1.02 -0.26 -0.78 0.28 0.26 0.56 0.4 0.84a0.42 0.42 0 1 0 0.8 -0.42zm-3.66 -3.28a3.64 3.64 0 0 1 2.96 -0.8c0.12 0 0.18 -0.12 0 -0.18a2.6 2.6 0 0 0 -0.82 -0.3 2.44 2.44 0 0 0 -2 0.76 1.56 1.56 0 0 0 -0.28 0.36s0.1 0.24 0.18 0.14z" stroke-width="1"></path></g></svg>