<svg xmlns="http://www.w3.org/2000/svg" viewBox="0 0 400 400" id="Get-A-Job-Promotion-3--Streamline-Milano" height="400" width="400"><desc>Get A Job Promotion 3 Streamline Illustration: https://streamlinehq.com</desc><g fill="#000000"><path d="M126 150.16a8 8 0 0 1 -2 -10.9A15.54 15.54 0 0 0 134.98 146a0.46 0.46 0 0 0 0.56 -0.4c0.26 -1.48 -5.2 0.3 -10.34 -7.7 -0.36 -0.56 -0.72 -1.2 -1.16 -1.2 -0.82 0 -3.6 4.2 -2.74 8.48a8.4 8.4 0 0 0 4.44 5.88 0.5 0.5 0 0 0 0.26 -0.9zm10.12 -48.42a6.2 6.2 0 0 1 7.58 -1.48c1.84 1.02 1.72 2.64 2.54 2.18s0 -2.52 -1.5 -3.74a6.16 6.16 0 0 0 -9.44 2.56 0.5 0.5 0 0 0 0.82 0.48zm3.54 16.74c2 0.26 2.66 -4.88 0.66 -5.14s-2.66 4.88 -0.66 5.14zm13.54 -3.58c-2 -0.24 -2.62 4.88 -0.66 5.12s2.64 -4.88 0.66 -5.12zm31.52 179.86c-1.4 -0.18 -2.34 1.7 -1.52 2.98a1.44 1.44 0 0 0 1.24 0.72c2 0 2.28 -3.46 0.28 -3.7zm119.54 -160.52c1.3 -3.5 5.2 -5.8 11.88 -7a0.5 0.5 0 0 0 -0.12 -0.98c-3.28 0.22 -10.94 1.46 -12.78 7.64a0.54 0.54 0 0 0 1.02 0.34zm4.18 1.76a0.5 0.5 0 0 0 0.78 0.6 17.6 17.6 0 0 1 14.96 -4.98 0.5 0.5 0 0 0 0.22 -0.96c-5.32 -1.26 -12.86 0.52 -15.96 5.34zm4.88 3.24a0.5 0.5 0 0 0 0.34 0.86c0.86 0 2.64 -3.28 11.38 -2.92a0.5 0.5 0 0 0 0.12 -0.98c-4.96 -0.9 -9.16 0.18 -11.84 3.04zm-22.1 31.2c-0.42 -0.46 -1.14 0.16 -0.68 0.8 2.52 3.5 8 3.56 11.64 1.3a11.42 11.42 0 0 1 -5.66 8.92 0.48 0.48 0 0 0 0.42 0.88 11.28 11.28 0 0 0 6.6 -11.72 0.76 0.76 0 0 0 -0.98 0c-3.96 2.74 -8.56 2.7 -11.34 -0.18zm0.36 -8.18a0.56 0.56 0 0 0 0.12 -1.1c-0.86 -0.22 -1.84 -0.84 -2 -1.42 0 -0.18 0 -0.2 0.38 -0.54a8.9 8.9 0 0 0 2.6 -3.14 0.5 0.5 0 0 0 -0.84 -0.52c-2.32 2.94 -3.84 2.98 -3.36 4.56a3.72 3.72 0 0 0 3.1 2.16zm0.76 -23.32c-0.84 0.3 -1.84 1.32 -1.62 2a0.62 0.62 0 0 0 0.94 0.34c-0.14 -0.22 -0.3 -0.42 0 0 1.44 -0.9 1.88 -0.88 3.34 0.18a0.62 0.62 0 0 0 0.88 -0.16c0.6 -0.88 -1.3 -3.16 -3.54 -2.36zm9.04 4.34a3.58 3.58 0 0 1 4.74 1.56 0.64 0.64 0 0 0 0.38 0.34c1.24 0.4 1.34 -2.44 -1.02 -3.56s-4.88 0.24 -4.9 1.08a0.62 0.62 0 0 0 0.8 0.58zm-1.98 13c1.44 0.38 2.66 -2.56 2.38 -4.28s-2.24 -1.56 -3.02 1.14c-0.3 1.06 -0.4 2.86 0.64 3.14zm-10.16 -3.58c1.76 0.5 3.24 -4.56 1.46 -5.06s-3.2 4.56 -1.46 5.06zm-9.42 187.54a192 192 0 0 0 -1.68 39.16c0 0.36 0.44 0.28 1.1 0.28 0.98 0 -1.02 -2.72 1.64 -39.36 0.06 -0.64 -0.88 -0.68 -1.06 -0.08zm37.04 -2.12c-1.42 0.1 0.96 1.3 2.74 41.26 0 0.38 0.4 0.3 1.18 0.3a0.32 0.32 0 0 0 0.3 -0.32 230.84 230.84 0 0 0 -3.7 -40.88 0.5 0.5 0 0 0 -0.52 -0.36zm28.26 -3a0.5 0.5 0 0 0 -0.88 0c-0.36 0.9 3.84 5.66 12.54 44.26 0 0.28 0.32 0.24 0.98 0.24a0.32 0.32 0 0 0 0.3 -0.36c-2.3 -13.8 -7.48 -33.44 -12.94 -44.14zM11.6 20.36c393.7 44 377.36 40.5 377.44 39.76a0.46 0.46 0 0 0 -0.42 -0.52S64.58 24.96 11.68 19.42a0.48 0.48 0 1 0 -0.08 0.94zm194.84 139.96a0.5 0.5 0 1 0 0.24 -0.96 21.64 21.64 0 0 0 -16.2 2.2 0.52 0.52 0 0 0 -0.2 0.52c1.48 6.68 -2 8.52 -0.9 9.16a0.5 0.5 0 0 0 0.66 -0.2 12 12 0 0 0 1.28 -8.82 20.82 20.82 0 0 1 15.12 -1.9zm-7.68 19.2a5.26 5.26 0 0 1 -2.58 -5.04 7 7 0 0 0 6 1.26c0.96 -0.2 0.68 -1.12 0.12 -0.98 -4.42 0.96 -6 -1.76 -6.56 -1.84a0.52 0.52 0 0 0 -0.56 0.44c-0.36 3.5 0.74 5.9 3.16 6.94a0.44 0.44 0 0 0 0.42 -0.78zm5.88 -9.72c-1.48 -1.62 -1.46 -2.52 -2.12 -2.12a0.5 0.5 0 0 0 -0.18 0.66c1.44 2.48 2.18 2 0.64 2.92a0.5 0.5 0 0 0 0.46 0.88c0.22 0 1.38 -0.72 1.5 -1.52a0.92 0.92 0 0 0 -0.3 -0.82z" stroke-width="1"></path><path d="M198.72 163.12c-2.5 -0.88 -4 1.16 -3.18 1.64s0.74 -1.36 2.88 -0.7a0.5 0.5 0 0 0 0.3 -0.94zm4.46 0.68a0.5 0.5 0 0 0 0.68 -0.16 1.18 1.18 0 0 1 1.82 -0.24 0.5 0.5 0 0 0 0.7 0c0.5 -0.68 -1.02 -1.42 -1.88 -1.28s-2.02 1.22 -1.32 1.68zm-4.48 2.96a0.68 0.68 0 0 0 -1.22 0.2 1.6 1.6 0 0 0 0.42 1.68c0.9 0.64 1.58 -0.94 0.8 -1.88zm6.96 -1.02c-1.04 0 -0.88 2.3 0.14 2.3s0.94 -2.42 -0.14 -2.3zM39.32 87.5a0.5 0.5 0 0 0 0.84 -0.36 2 2 0 0 1 2.16 -2.28 0.5 0.5 0 0 0 0 -0.98 2.7 2.7 0 0 0 -3 3.62zm5.84 -3.02c0.62 0.44 0.7 -0.6 1.44 -0.6a1.26 1.26 0 0 1 0.94 0.64 0.5 0.5 0 0 0 0.82 -0.54c-0.92 -1.4 -2 -1.18 -1.8 -1.18 -0.92 0 -2.1 1.2 -1.4 1.68zm-0.36 3.78c2 1.52 2.5 3.18 2.24 4.14a1.18 1.18 0 0 1 -1.02 0.88 0.5 0.5 0 0 0 0 0.98c2.16 0 3.38 -3.52 -0.7 -6.78a0.5 0.5 0 0 0 -0.62 0.76zm-4.1 7.26a0.44 0.44 0 0 0 -0.2 0.32 3.88 3.88 0 0 0 2.34 4.72c0.62 0.26 1.72 0.22 1.58 -0.4 0 -0.26 -0.36 -0.3 -0.5 -0.32a2.84 2.84 0 0 1 -2.5 -3.22c2.64 0.92 5.56 0.46 5.28 -0.42 0 -0.12 -0.18 -0.32 -0.64 -0.2 -3.1 0.8 -4.72 -0.86 -5.36 -0.48zm1.76 -6.66c-0.98 0.24 -0.46 2.46 0.54 2.22s0.48 -2.46 -0.54 -2.22zm5.42 -1.9c-1.02 0.24 -0.46 2.48 0.54 2.22s0.46 -2.46 -0.54 -2.22z" stroke-width="1"></path><path d="m389.78 241.74 -4.62 -0.14s-0.84 -126 -1.56 -160.36a0.54 0.54 0 0 0 -1.06 0c0.48 45.82 1.12 132.7 1.56 160.32l-10.1 -0.32c-4.8 -22.74 -17.48 -38.54 -37.7 -46.98a42.26 42.26 0 0 0 6.56 0.28 0.6 0.6 0 0 0 0.54 -0.4c5.02 -13.46 6 -32 0.96 -46.4a14.8 14.8 0 0 0 7.76 1.3c18.46 -3.18 19.1 -28.64 3.22 -34.1 -10.78 -3.74 -21.34 5.28 -20.98 17.06 -7.44 -6.9 -20.5 -11.78 -29.46 -7.74 -7.66 -1.08 -16.7 5.28 -13.6 11.78a90 90 0 0 0 -6.14 13.3c-5.16 14.54 -6 33.52 8.2 39.42 0 0.86 -0.1 1.78 -0.1 2.86a18.1 18.1 0 0 0 -3.86 0.42c-24.94 3.54 -41.64 25.84 -48.98 45.62h-3.48c1.44 -17.22 -0.66 -38.62 -14.48 -49.06 -0.62 -50.84 -2.46 -94.66 -3.42 -130.28a0.52 0.52 0 1 0 -1.02 0c1 29.72 2 72 3.02 129.24a31.68 31.68 0 0 0 -16 -4.98c5.2 -4 5.32 -15.56 3.3 -22.54 2.24 -4.6 -0.68 -10.6 -7.64 -10.44 -5.44 0.14 -11.3 2.26 -11.62 7.74 -5.58 1.62 -5.04 6.98 -2.14 12 -3.24 0.42 -1.88 6.52 2.56 5.5 0 2.66 0.12 5.34 0.34 8a23.86 23.86 0 0 0 -21.56 11.96c-6.16 10.76 -5.66 30.52 0.92 41.1l-4.86 -0.12C159.42 212.66 150 181.24 132.62 162.3a4.8 4.8 0 0 0 -1.34 -2.3c13.04 -3.52 22.98 -19.56 26.14 -33.88 5.24 -3.24 5.72 -13.06 1.32 -16.76 -0.3 -4.9 -0.86 -5.52 -0.52 -5.14a0.5 0.5 0 0 0 0.88 -0.4 3.62 3.62 0 0 0 -1.52 -2.36 34.74 34.74 0 0 0 -3 -8c8.2 -4.28 2.9 -17.28 -2 -17.34 -0.78 0 -2 0.34 -2.6 2.7 -2.24 -4.76 -6.72 -4.1 -7.68 0.96 -2.6 -4.18 -6.48 -2.8 -6.98 1.76 -31.64 -6.52 -43.68 10.16 -34.84 36.18 -5.6 1.64 -5.1 10.28 -1.04 13.52a23.04 23.04 0 0 0 -5.22 9.54c-0.38 -0.46 -0.74 -1.04 -1.24 -0.7a18 18 0 0 0 -8.46 12.3l-1.6 -0.62c-0.68 -0.24 -7.76 3.34 -12.86 6.88 -22.6 15.72 -35.66 46.36 -41.44 73.18l-5.4 -0.18c-1.52 -10 -5.16 -41.62 -2.84 -60 0.6 -0.18 2 -0.54 4 -0.96l0.66 50.5a0.54 0.54 0 0 0 1.08 0c-0.16 -17.16 -0.32 -34.16 -0.48 -50.74C42.3 167.2 56 168 56.48 167.38a0.5 0.5 0 0 0 -0.36 -0.84 158.48 158.48 0 0 0 -30.44 2.88l-0.12 -10.48a15.52 15.52 0 0 0 12.9 5.78c9.8 -0.78 18.52 -10.54 23.32 -26.12 4.46 -4.22 3.86 -3.76 4.28 -3.8 7.4 16.96 6.84 19.66 8 19.24a0.46 0.46 0 0 0 0.3 -0.62l-2.16 -6c7.8 -1.24 6.6 -10.9 3.8 -18.36 1 -0.96 3.5 -3.82 2.4 -4.64 1.66 -1.8 0.92 -2.66 -0.46 -2.26 0.82 -1.12 0.26 -2.12 -1.5 -1.24 -2.48 1.22 -0.8 0.7 -1 -0.36a0.56 0.56 0 0 0 -0.34 -0.46c-0.7 -0.36 -2 0.66 -2.78 1.18 -3.08 -5.52 -9.6 -14.66 -19.86 -16.36a5.78 5.78 0 0 0 -2.3 -1.78c6.38 -3.74 0.86 -18.72 -3.08 -24 -1.74 -2.92 -8.14 -4.42 -14 0 -4.74 3.62 -5.18 9.12 -1.68 13.84a3.52 3.52 0 0 0 2.84 4.92 17.32 17.32 0 0 0 0.64 3.66 4.22 4.22 0 0 0 -1.64 2.92 28.9 28.9 0 0 0 -8.34 3.8c-0.48 -30 -1.04 -54 -1.7 -73.68 57.46 6 365.76 34.86 365.76 34.86a0.48 0.48 0 0 0 0 -0.96c-3.64 -0.38 -298 -29.74 -376.74 -36a0.48 0.48 0 0 0 0 0.94l10 1.06c0.48 17.66 0.94 41.42 1.44 74.7a21.38 21.38 0 0 0 -8.54 19.64 70.4 70.4 0 0 0 4 18.54c-1.78 13.42 -0.2 21.24 0.6 24 -2.98 19.4 1.24 50.56 2.72 60.24 -13.22 -0.36 -12.12 -0.5 -12.4 -0.24a0.54 0.54 0 0 0 0 0.74c0.22 0.24 -1.2 0.14 18.66 0.82 -10.78 50.54 -3.58 112.56 -0.88 113.34 1.12 0.34 2.4 0.6 3.54 0.88 -4.56 13.08 -5.34 32.94 -4.92 33.36a0.3 0.3 0 0 0 0.22 0c0.64 0 0.9 0 0.92 -0.26a174.5 174.5 0 0 1 5.08 -32.88 236.36 236.36 0 0 0 56.36 6.44c32.12 -0.2 52.32 -8.44 59.52 -12 0.46 -0.22 0.64 -0.24 0.66 -0.46 0.28 -3.2 0.34 -3.78 0.4 -4.62a44.7 44.7 0 0 0 12.06 -2.74A156.36 156.36 0 0 1 174 379.42c0 0.32 0.32 0.26 0.88 0.24a0.28 0.28 0 0 0 0.28 -0.32 125.62 125.62 0 0 0 -6.82 -32.72 241.74 241.74 0 0 0 2.9 -40.78c1.08 -0.62 2.22 -1.3 3.56 -2.12 3.14 1.22 14.42 -2.64 15 -3.8a19.16 19.16 0 0 0 1.02 -2.7 8 8 0 0 0 1.84 -0.84 6.3 6.3 0 0 0 1.54 1.08c-0.54 2.4 0.3 4.18 2.64 3.66a2.24 2.24 0 0 0 2.76 1.26 2.28 2.28 0 0 0 2.94 0.62 2 2 0 0 0 2.36 0.4c1.08 -0.52 1.2 -1.66 1.38 -3.12a13.74 13.74 0 0 0 2.26 -2.56c14.66 11.2 31.18 3.72 39.74 -1.76 10.78 -6.9 17.74 -14 19.1 -19.6a0.28 0.28 0 0 0 0 -0.22 55.2 55.2 0 0 1 -6.32 -29.56 71.64 71.64 0 0 1 7.86 -25.6c1.34 -2.78 2.44 -1.36 1.58 0.72 -2.42 5.74 -6.52 16.84 -6.96 26.66a55.74 55.74 0 0 0 7.84 30.44 66 66 0 0 0 -9.56 37.2 7.64 7.64 0 0 0 -0.74 4.76c-8.7 18.98 -14.28 37.7 -15.34 58.56a0.3 0.3 0 0 0 0.3 0.3c0.62 0 0.9 0 0.92 -0.26a202.38 202.38 0 0 1 15.1 -58c19.72 5.78 31.38 8.54 50.98 9.22a189.28 189.28 0 0 0 51.5 -5.38c7.7 11.6 14.5 29.54 20 54.14 0 0.3 0.32 0.22 1.12 0.22a0.28 0.28 0 0 0 0.3 -0.34c-1.72 -10 -8.64 -38.6 -20.48 -54.9a10.16 10.16 0 0 0 0 -4.96c9.86 -27.4 13.04 -55.48 8.76 -77.14l15.54 0.48a0.52 0.52 0 0 0 0.54 -0.5 0.54 0.54 0 0 0 -0.54 -0.46zm-324 -108c-0.76 0 0 -0.32 -4.38 3.7 -0.58 0.54 -0.58 0.54 -0.62 0.7 -0.44 1.16 -0.94 1.82 -1.42 1.82 -1.24 0 -2.92 -4 -1.82 -6.66a40 40 0 0 0 5.3 -2.5 0.48 0.48 0 0 0 0.24 -0.42c0.14 -4.36 1.28 -4 2 -6.16a10 10 0 0 1 -0.46 2.68 0.5 0.5 0 0 0 0.78 0.54 16.5 16.5 0 0 1 5.6 -2.88c-0.76 0.7 -2.7 1.78 -2.96 2.18a0.48 0.48 0 0 0 0.7 0.66 13.7 13.7 0 0 1 3.86 -2.12A14.8 14.8 0 0 1 69.34 128a0.5 0.5 0 0 0 0.28 0.9c1.68 0 3.18 -1.34 4 -1.6 -0.38 1.02 -2.9 2.34 -3.88 2.82a0.5 0.5 0 1 0 0.42 0.9 19.06 19.06 0 0 0 2.94 -1.76 10.16 10.16 0 0 1 -2.8 2.78 8 8 0 0 1 -4.44 1.78zm3.14 -9.5c-0.52 0.22 -0.98 0.44 -1.32 0.62a8 8 0 0 1 1.34 -2.86c-0.08 1.52 -0.54 2.12 0.06 2.32zm4.48 6c-0.94 1.66 -3.5 3.1 -2.7 2.5a12 12 0 0 0 2.78 -2.32zm-5.66 6c-0.24 -0.6 -0.5 -1.18 -0.76 -1.76a10.52 10.52 0 0 0 3.02 -1.06 0.48 0.48 0 0 0 0.62 0.72 14.66 14.66 0 0 0 1.34 -0.78c0.38 3.74 -2.74 4.3 -4.14 3.04zm4 10c-1.16 -3.12 -2.28 -6 -3.42 -8.68 2.46 0.74 5.26 -1.16 4.48 -5.18a5.58 5.58 0 0 0 1.78 -2.5l0.48 -0.38c2.62 7.06 3.92 16.02 -3.22 17zM74 121.3c-1.24 1.62 -1.62 1.56 -1.6 2a0.5 0.5 0 0 0 0.7 0.42c1.1 -0.6 3.46 -2 4 -2.12a13.52 13.52 0 0 1 -2.94 2.48 0.48 0.48 0 0 0 0.52 0.82 21.36 21.36 0 0 1 3.54 -1.88 16.46 16.46 0 0 1 -3.18 2.84 0.5 0.5 0 0 0 0.24 0.88c0.42 0 0.48 -0.38 2.3 -1.38a12.12 12.12 0 0 1 -3.56 4 0.94 0.94 0 0 0 -0.12 -0.8c1.32 -1.44 0.56 -2.74 -0.94 -2 1.46 -1.4 0.78 -2.4 -0.7 -2.1 0.18 -1.14 -1.18 -0.9 -2.28 -0.52 1.04 -0.64 3 -1.94 4.02 -2.64zm-26.26 -18.34A3.48 3.48 0 0 1 51.44 100a4.52 4.52 0 0 1 -3.7 2.96zm-2 -23.82a18.1 18.1 0 0 0 -11.7 6 14.66 14.66 0 0 0 0.52 6.52 2.74 2.74 0 0 0 -2.58 0.42c-7.38 -10.7 8.86 -18.38 13.84 -12.94zm-11.68 17.72c-1.68 -0.12 -2.94 -2.88 -1.4 -4a2 2 0 0 1 2.58 0.46 0.5 0.5 0 0 0 0.84 -0.52 14.12 14.12 0 0 1 -1.18 -7.14A17.6 17.6 0 0 1 46.44 80c4.3 6.9 6.4 14.44 5.3 18.94a4.54 4.54 0 0 0 -5.02 4 8.6 8.6 0 0 1 -1.22 0 0.5 0.5 0 0 0 -0.14 0.98A7.74 7.74 0 0 0 48 104c0.98 0.8 1.08 2 -0.4 3.24 -0.38 0.32 0 0.52 0 2.54a10.2 10.2 0 0 0 -1.1 -2.48 0.48 0.48 0 0 0 -0.4 -0.24 14.44 14.44 0 0 1 -10 -5.48 16.64 16.64 0 0 1 -0.68 -3.84c0.72 -0.3 1.66 -1.16 1.02 -1.6s-0.98 0.8 -2.3 0.72zm-0.9 8.58c0.2 3.36 8.3 8.76 11.86 9.88a0.5 0.5 0 0 0 0.64 -0.58 19.5 19.5 0 0 1 -0.12 -5.8 0.48 0.48 0 0 0 -0.88 0.14 13.16 13.16 0 0 0 -0.16 5c-4.14 -1.74 -9.86 -6.6 -10.24 -8.4a3.56 3.56 0 0 1 1.04 -3.3A15.4 15.4 0 0 0 45.66 108a8.84 8.84 0 0 1 1.06 2.7 0.48 0.48 0 0 0 0.94 0 0.5 0.5 0 0 0 0.8 -0.38 14.48 14.48 0 0 0 -0.1 -2.46 2.84 2.84 0 0 0 0.64 -4h0.22a0.54 0.54 0 0 0 0.3 0.4c2.24 0.8 3.52 3.02 2.72 6.26a18.7 18.7 0 0 0 -2.9 -2.72 0.5 0.5 0 0 0 -0.58 0.8A20 20 0 0 1 52 111.52c0.9 1.36 2 -2.96 0.98 -5.54 8 1.74 14.42 8.64 18.4 15.84l-1.58 1.02c0.12 -0.82 0.26 -2.2 -0.56 -2.28 -1.34 0 -2.64 3.44 -2.62 4.94L66 126c0.22 -1.14 0.36 -3.04 -0.82 -3.04 -0.6 0 -0.74 0.42 -0.9 0.92a9.1 9.1 0 0 1 -1.18 2.12 109.36 109.36 0 0 0 -8.54 -14.54 0.5 0.5 0 0 0 -0.78 0.6 110.66 110.66 0 0 1 8.84 15.2 15 15 0 0 0 -0.42 2.82c-6.46 3.68 -14 4.74 -20.18 6.94A28.56 28.56 0 0 0 27.88 120a0.5 0.5 0 1 0 -0.48 0.86 29.16 29.16 0 0 1 13.7 16.66 19.68 19.68 0 0 0 -6.52 3.68c-0.48 0.42 0.18 1.18 0.66 0.74 4.7 -4.26 13.16 -5.2 21.2 -8 -0.8 3.3 1.26 8.16 3.58 7.16 -6.42 17.82 -22.38 31.22 -34.48 16 -0.2 -17.76 -0.4 -33.34 -0.62 -47.6a28 28 0 0 1 8.32 -4.06zM16.18 128.94a20.84 20.84 0 0 1 7.42 -18.54c0.2 14 0.42 29.06 0.64 44.78C19.46 148 16.88 137.56 16.18 128.94zm3.6 20.52a37.44 37.44 0 0 0 4.48 7.88c0 4 0 8.18 0.16 12.34 -2 0.46 -3.4 0.84 -4 1.04a81.54 81.54 0 0 1 -0.64 -21.26zm216.12 88 -12.98 -0.3c0 -2.82 -0.2 -24.26 -0.26 -31.8a53.44 53.44 0 0 1 8 14.64 0.5 0.5 0 0 0 0.92 -0.34 53.62 53.62 0 0 0 -8.84 -16c0 -4.38 0 -9.06 -0.16 -14 12.78 10.52 14.54 31.34 13.42 47.8zm-66.66 -42a22.7 22.7 0 0 1 20.64 -11.86c0.22 1.38 1.38 4.84 7.62 6.96a16 16 0 0 0 -2.4 4.46c-1.78 -1.22 -7.1 -5.62 -5.5 -10.42a0.5 0.5 0 0 0 -0.94 -0.32c-2.18 6.42 6.34 12 6.44 12a0.5 0.5 0 0 0 0.68 -0.16c1.6 -4.7 3.14 -5.14 3 -5.74 -0.24 -0.92 -4.42 -0.9 -7.08 -4.7a4.92 4.92 0 0 1 -0.92 -2.46c-0.74 -7.6 0 -9.02 -0.52 -9.46a0.46 0.46 0 0 0 -0.52 -0.12c-3.1 1.12 -4.26 -2 -3.46 -3 0.54 -0.72 1.32 -0.2 1.7 -0.42a0.48 0.48 0 0 0 0.16 -0.68c-2.88 -4.7 -4 -10 1.46 -11.42 1.08 -0.3 -1.08 -7.3 11.02 -7.62a6.78 6.78 0 0 1 6.36 2.84 6.9 6.9 0 0 1 0.38 6.38 0.44 0.44 0 0 0 0 0.36c1.76 6.54 2 19.12 -4 22.18a8.24 8.24 0 0 1 -6 0.14 0.42 0.42 0 0 0 -0.16 0.8 8 8 0 0 0 5.58 0.4c0 4.26 -3.08 5.48 -2.84 6.32a0.52 0.52 0 0 0 0.36 0.32 4 4 0 0 1 2.26 1.56 0.48 0.48 0 0 0 0.86 -0.46 4.16 4.16 0 0 0 -2 -1.78 8.9 8.9 0 0 0 2.44 -6.14h1.08a8.84 8.84 0 0 1 1.14 4.86 0.5 0.5 0 0 0 0.98 0 10 10 0 0 0 -0.94 -4.84 30 30 0 0 1 15.02 5.18l0.24 13.46c-0.56 -0.64 -1.08 -1.24 -1.62 -1.8a18.96 18.96 0 0 0 0 -6 7.84 7.84 0 0 0 -3.22 -4.58c-0.54 -0.16 -1.06 0.18 -0.94 1.08 -1.06 -0.82 -1.76 0 -1.52 1.02 -0.88 -0.44 -1.66 0.28 -0.8 2.24 -1.4 -0.74 -2.76 0.5 0.72 4a4.5 4.5 0 0 0 1.82 5.38c-2.48 16.22 -2 26.38 2.22 32.74a0.52 0.52 0 0 0 0.4 0.22c3.06 -0.22 -6.38 -1.84 -1.6 -33.14a0.48 0.48 0 0 0 -0.26 -0.5 3.76 3.76 0 0 1 -1.56 -4.7 0.5 0.5 0 0 0 -0.12 -0.5 8 8 0 0 1 -2.1 -2.6c1.42 0.72 2 2.3 2.64 1.74a0.48 0.48 0 0 0 0 -0.68 10.4 10.4 0 0 1 -1.72 -3.18 10.92 10.92 0 0 1 2.4 2.76 0.48 0.48 0 0 0 0.78 0c0.36 -0.64 -1.6 -2.36 -2 -4a12.34 12.34 0 0 1 2 2.44 0.5 0.5 0 0 0 0.82 -0.56l-0.42 -0.58a10 10 0 0 1 -0.84 -2 7.18 7.18 0 0 1 2.28 3.82 18.78 18.78 0 0 1 0 6c0 0.46 0.2 0.3 2.64 3.3 0.12 6.94 0.5 29.3 0.58 33.44L194 236.48c7.16 -9.04 11.4 -20.5 12.62 -34a5.36 5.36 0 0 0 2.48 -6.2c0.78 -1.62 3.58 -4 1.88 -4.62a2 2 0 0 0 -1.56 0.64c0.88 -2.56 -0.3 -3.72 -2 -0.34a6.32 6.32 0 0 0 0.28 -2c0 -0.72 -1 -1 -1.76 0a0.96 0.96 0 0 0 -1.42 0.26 8.72 8.72 0 0 0 -0.88 5.08 6.46 6.46 0 0 0 -0.76 4c-2.16 2.86 -11.64 12 -14.66 14.78 -1.6 -8.38 -5.42 -14 -11.68 -17.24a0.5 0.5 0 0 0 -0.48 0.88c6.2 3.42 9.88 9.04 11.3 17.18 -6.48 6 -10.98 11.04 -10.28 19.84a0.5 0.5 0 1 0 0.98 0c-0.58 -7.12 2.38 -11.54 7.68 -16.76 3.12 -3.06 18 -17.32 18 -18.5 0 -3.46 0.88 -3.36 0.8 -4 -0.42 -3.3 0.9 -5.64 0.82 -4.32a12 12 0 0 0 -0.38 2.68 0.42 0.42 0 0 0 0.84 0 6 6 0 0 1 0.96 -3.5 8.76 8.76 0 0 0 -0.24 3.66 0.46 0.46 0 0 0 0.84 0 16.66 16.66 0 0 1 1.52 -2.9 13.54 13.54 0 0 1 -1.3 3.26 0.44 0.44 0 0 0 0.68 0.52 13.2 13.2 0 0 1 2.32 -2.28c-0.32 0.66 -2.52 3.2 -2.42 3.76a5.48 5.48 0 0 1 -0.12 3.2 4.34 4.34 0 0 1 -2.12 2.34c-0.94 0.64 -0.44 18.38 -13.16 34.68L171.86 236a22.7 22.7 0 0 1 14.54 -22 0.5 0.5 0 0 0 -0.38 -0.92c-7.86 3.28 -16 10.98 -15.16 22.82h-0.3c-6.74 -10.16 -7.4 -29.72 -1.32 -40.38zm-1.12 75.38a39.7 39.7 0 0 0 -4 -1.06c-5.14 -33.8 -12.34 -62.6 -30.74 -93.24a38 38 0 0 0 0 -11.6c25.48 31.56 33 88.4 34.74 105.96zm-5.58 -1.36a60.22 60.22 0 0 0 -11.82 -0.98c-0.26 -3.72 -0.6 -7.5 -1 -11.24 1.62 -2.74 2.46 -7.06 2.48 -12.84 0.18 -26.32 -20 -61.06 -21.44 -63.3 0.86 -6.5 -0.14 -6 1.54 -4 21.7 37.68 24.4 64.4 30.24 92.42zM132.24 175.26a43.14 43.14 0 0 0 -8 -7.02 23.58 23.58 0 0 0 4.56 -7.68l0.76 -0.12c2.94 1.12 2.96 10.46 2.68 14.82zM127.6 182a27.04 27.04 0 0 0 -0.54 4.66c-1.52 -2.28 -3.04 -4.36 -4.72 -6.46 0.4 -0.38 1.06 -0.92 1.46 -1.34A28.6 28.6 0 0 0 127.6 182zm1.18 -27.68c-6.3 0 -11.42 -4.38 -11.42 -9.74s5.12 -9.72 11.42 -9.72 11.42 4.36 11.42 9.72 -5.12 9.8 -11.42 9.8zm19.48 -9.84a17.72 17.72 0 0 0 -4.66 -7.7c6.38 -0.62 6.46 -8.34 5.32 -14.6 1.08 3.38 3.54 5.62 6.92 4.64a58.64 58.64 0 0 1 -7.58 17.72zm10.56 -33.04a11.52 11.52 0 0 1 -1 12.74 60.42 60.42 0 0 0 1 -12.68zm-2.64 14c-2.94 1.3 -6.92 -1.4 -6.46 -8.16 0.46 -5.28 4.28 -9.68 7.82 -7.12a57.04 57.04 0 0 1 -1.36 15.3zM129.44 93.02c7.36 -0.82 15.56 4.26 24 0.96a36.74 36.74 0 0 1 2.66 7.02 3.2 3.2 0 0 0 -3.12 2.18 0.5 0.5 0 0 0 0.76 0.58c1.06 -0.78 1.84 -1.26 2.8 -0.86a42.64 42.64 0 0 1 0.86 5.7c-3.02 -1.34 -7.28 0.38 -8.72 6.5a2.64 2.64 0 0 0 -2.44 -0.16 9.34 9.34 0 0 0 -9.14 -8.26 9.24 9.24 0 0 0 -9.02 7.9 40.98 40.98 0 0 0 -5.82 -0.74c4.7 -7.06 7.36 -14.78 7.18 -20.82zM144.86 116a7.78 7.78 0 0 1 -11.8 7.02 8.32 8.32 0 0 1 -1.3 -12.8A7.72 7.72 0 0 1 144.86 116zm-44.1 16a5.4 5.4 0 0 0 5.06 -0.54 0.68 0.68 0 0 0 -0.66 -1.2c-7.1 3.76 -10 -11.06 -2.66 -11.5 3 -0.24 3.56 3.84 6.34 4.98 3.66 1.5 8.86 -3.44 12.56 -8.62a38.12 38.12 0 0 0 6.58 0.76A9.46 9.46 0 0 0 132.2 124a9.18 9.18 0 0 0 14.12 -7.64 2.3 2.3 0 0 1 2.12 0c-0.42 3.14 0.48 4.98 -0.54 1.48a0.58 0.58 0 0 0 -1.14 0.28 39.18 39.18 0 0 1 0.86 11.5c-0.5 4 -2.16 5.66 -5.54 5.72A27.56 27.56 0 0 0 129.56 130c-12.16 -2.2 -18 7.7 -20 12a5.54 5.54 0 0 0 0 4.44c4 9.52 10.4 14.5 18.12 14a35.48 35.48 0 0 1 -4.48 6.9c-11.66 -7.44 -19.8 -16.36 -27.76 -25.6A47.6 47.6 0 0 1 100.76 132zm-7.48 9.68c7.52 9.72 16.3 19.7 29.38 27.06l0.36 8.82a9.02 9.02 0 0 0 -1.44 1.72 88.84 88.84 0 0 0 -35.86 -26.44 24 24 0 0 1 7.56 -11.16zm68.34 190.94a57.06 57.06 0 0 1 -12 2.9c0.22 -2.6 0.44 -5.26 0.64 -8a42.3 42.3 0 0 0 12 -2.5 27.26 27.26 0 0 1 -0.64 7.6zm-11.38 -6.34c0.32 -4.34 0.54 -8.22 0.72 -11.84a84.1 84.1 0 0 0 14.72 -5.66 76.3 76.3 0 0 1 -3.52 15.06 51.26 51.26 0 0 1 -11.92 2.44zm17.02 17.28a101.32 101.32 0 0 0 -4.42 -10.28 23.14 23.14 0 0 0 0.46 -9.16 51.6 51.6 0 0 0 3.74 -16l2.8 -1.46a271.7 271.7 0 0 1 -2.58 36.9zm-56.74 -34.6c-32 -16.52 -45.28 -62.98 -48.36 -99.32 0 -0.74 -1.34 -0.58 -1.3 0.14 2.7 57.54 33.36 119.04 88.46 105.08 -0.38 7.8 -1 16.24 -1.88 25.76 -16 7.18 -35.78 10.94 -58.64 11.18 -25.66 0.24 -41.72 -3.56 -59.84 -6.92 0 -0.42 -0.16 -1.2 -0.36 -2.32 -10 -61.84 -2.78 -164.88 54.26 -189.28a0.34 0.34 0 0 1 0.2 0c39.5 14.88 61.78 53.68 66.2 115.3l-3.54 0.14c-5.4 -29.48 -13.66 -50.48 -26.74 -68 -10.64 -14 -16.66 -18 -16.92 -18.18s-0.78 -0.16 -0.92 0 0.16 0.8 0.7 1.28c24.68 22.3 35.56 53.34 42.52 85.74a0.66 0.66 0 0 0 0.66 0.5A70.46 70.46 0 0 1 176 275.28c2.58 8.96 2.42 16.4 -0.56 26.46 -15.92 9.3 -40.02 20.1 -64.92 7.22zm78.52 -10.18a54.22 54.22 0 0 1 -12.74 4v-0.12a37.62 37.62 0 0 0 0.88 -27.5 43.8 43.8 0 0 1 12.4 4.18 48.46 48.46 0 0 1 -0.54 19.44zm8 -1.18a5.78 5.78 0 0 0 -0.38 2.54c-2.84 0.52 -1 -4.78 -0.2 -4.78s0.54 1.64 0.52 2.24zm2.96 0.4a6.9 6.9 0 0 0 -0.7 3.4c-3.2 0.4 -0.64 -6 0.34 -6 0.18 0.1 0.36 1.02 0.36 2.6zm2 4c-3.48 0.88 -0.8 -5.24 0 -5.24 0 0 0.3 0.14 0.3 1.5a21.32 21.32 0 0 0 -0.3 3.84zm3.08 -1.82c-0.16 1.24 -0.3 1.82 -0.64 2a0.9 0.9 0 0 1 -1.36 -0.68c0.06 -2.54 2.78 -7.12 2.04 -1.22zm1.24 -1.6c0 -2.7 -1.7 -2.94 -2.92 -1.3 -0.2 -1.82 -1.42 -2.14 -2.48 -0.98 -0.16 -2.6 -2 -2.6 -3.16 -0.62 -0.48 -1.88 -2.26 -2.14 -3.24 0.44 -2.44 -1.48 -1.14 -1.48 -3.42 -0.46a38.94 38.94 0 0 0 0.18 -14.28c4 1.66 4 1.86 4.3 1.62a12.3 12.3 0 0 1 6.82 -3 5.8 5.8 0 0 1 4 1.7c-2.76 1 -6.12 3.36 -5.62 4.92s4.74 0.34 6.46 -0.46a5.88 5.88 0 0 0 4 3.1c1.68 2.38 -2 3.12 -2 3.9a13.52 13.52 0 0 1 -2.88 5.52zm7.2 0.8a47.62 47.62 0 0 1 -4.42 -2.72 9.6 9.6 0 0 0 1.14 -3.12c2 -0.94 3.4 -2.5 2.3 -4.34a5.26 5.26 0 0 0 1.24 -0.26 0.5 0.5 0 1 0 -0.28 -0.94 4.82 4.82 0 0 1 -5.58 -2.78 0.5 0.5 0 0 0 -0.62 -0.28c-4.6 1.76 -5.42 1.34 -5.54 1.26 -0.48 -0.4 2.28 -2.86 5.44 -3.86a0.26 0.26 0 0 0 0.24 0 6.88 6.88 0 0 1 8 3.18c2.24 3.16 0.36 10.64 -1.88 13.96zM244.6 268a28.7 28.7 0 0 0 -7.28 -2.94c-9.24 -1.66 -21.08 7.72 -24.48 16.7a6.88 6.88 0 0 0 -5.28 -0.48c-3.2 -4.22 -8.48 -2.9 -12.26 0.72a15.86 15.86 0 0 0 -4.24 -1.8 7.52 7.52 0 0 0 -0.54 -1.72 29.02 29.02 0 0 0 -14 -4.46l-6.8 -2.62a312.74 312.74 0 0 0 -5.2 -34.46c11.8 0.3 62 1.44 75.4 1.74a67.14 67.14 0 0 0 -4.7 23.68 0.32 0.32 0 0 0 0.38 0.3c1.88 -0.46 6 0.8 9.76 2.96 2.64 1.5 0.34 3.18 -0.76 2.38zM342 118.68c9.18 -6.98 22 -0.52 22.9 11.24 0.82 10.38 -6 17.04 -13.4 17.58a13.64 13.64 0 0 1 -7.82 -1.56 38.76 38.76 0 0 0 -8 -12.8 16.88 16.88 0 0 1 6.32 -14.46zM283.14 168c0 -16.58 9.58 -31.4 9.28 -32.18 -2.2 -5.66 4.9 -10.26 10.62 -10.64a14.88 14.88 0 0 0 -5.8 6.56 0.56 0.56 0 0 0 1 0.46c2.9 -5.78 10.36 -10.5 22.56 -6.38 13.28 4.88 20.66 13.76 24 28.74a76 76 0 0 1 -2.38 38.8c-8.68 0.2 -18.44 -3.42 -21.7 -4.76a39.28 39.28 0 0 0 4.78 -14.4c6 -2.6 4.96 -11.14 -0.96 -10.94a6.6 6.6 0 0 0 -5.16 2.74c-2 6 -3.32 10.12 -7.84 15.02a101.86 101.86 0 0 0 4 -39.8 0.48 0.48 0 0 0 -0.96 0.1c0.64 23.7 -3.12 33.66 -4.74 41.48a0.5 0.5 0 0 0 0.82 0.46c4.56 -4 7.76 -8.1 9.68 -16.84 2.88 -3.14 8.54 -2 7.54 2.82 -0.58 2.88 -3.34 4.98 -7.38 4.6a0.44 0.44 0 0 0 0 0.86 9.06 9.06 0 0 0 3.74 0 61.4 61.4 0 0 1 -4.84 14 0.52 0.52 0 0 0 0.16 0.6c0.28 0.26 4.58 1.88 5.5 2.22a69.38 69.38 0 0 1 -22.48 24.76 49.56 49.56 0 0 1 -8.2 -24.28s0.24 -3.76 0.24 -3.8a0.62 0.62 0 0 0 -0.36 -0.56c-9.18 -3.64 -11.12 -12.74 -11.12 -19.64zm7.44 24.82c1.46 -0.16 2 -0.18 2.82 -0.24a42.38 42.38 0 0 0 8.6 24.84 0.52 0.52 0 0 0 0.62 0.12c7.86 -4 18.42 -14.64 23.34 -25.74 1.36 0.46 2.74 0.88 4.14 1.24 -4.92 11.54 -15.84 25.4 -29.4 30.7a44.12 44.12 0 0 1 -10.12 -30.94zm74 131.28a214 214 0 0 1 -51.4 4.92c-19.3 -0.58 -31.8 -3.46 -50.76 -8.72a29.24 29.24 0 0 1 0.12 -3.24 213.32 213.32 0 0 0 102 2.9 20.5 20.5 0 0 1 -0.02 4.04zm-31.44 -8.38c-17.16 -0.24 -30.62 -20.68 -37.48 -39.2a131.08 131.08 0 0 1 -5.74 -21.32 5.5 5.5 0 0 1 -3 -4.7c-1.58 -1.58 -3.52 -4.78 -2.14 -6.2 0.4 -0.42 0.94 -0.24 1.4 0.14a8 8 0 0 0 0.42 1.82 0.5 0.5 0 0 0 0.92 -0.38 8.64 8.64 0 0 1 -0.38 -1.86c0 -1.68 0.28 -4.22 1.76 -5a16.78 16.78 0 0 0 0.34 5.58 0.5 0.5 0 0 0 0.94 -0.32 16.62 16.62 0 0 1 0 -6.7c0.8 -2.2 2.56 -2 2.88 -0.6a13.38 13.38 0 0 0 -0.86 4.62 0.5 0.5 0 0 0 1 0c0 -1.88 0.62 -5.38 2.38 -6a1.06 1.06 0 0 1 0.92 0c1.68 0.86 -0.38 4.3 0 7.84 0 0.76 0.2 0.9 0.24 0.9 0.72 -0.36 0.5 -4.38 2.24 -4.72 0.66 -0.18 1.22 0.28 1.5 1.36 2.26 8.96 -11.58 9.68 18 25.36 -2.62 -14 -2.2 -25.26 1.36 -36.18a0.78 0.78 0 0 1 1.5 0.48c-3.04 10.84 -3.18 22.96 -0.44 37 4.54 2.46 10.54 5.86 13.46 10a0.7 0.7 0 0 1 -1.12 0.82c-5.1 -6.46 -19.86 -11.26 -29.22 -18.48a16.94 16.94 0 0 0 -9.68 7.1c5.66 18.88 19.62 46.26 38.82 46.48 21.36 0.24 36.64 -38 27.18 -84.92 -0.18 -0.88 1.26 -1.26 1.46 -0.36 10.86 45.72 -4.84 87.72 -28.72 87.42z" stroke-width="1"></path></g></svg>