<svg xmlns="http://www.w3.org/2000/svg" fill="none" viewBox="0 0 400 400" id="Co-Workers--Streamline-Milano" height="400" width="400"><desc>Co Workers Streamline Illustration: https://streamlinehq.com</desc><g id="co-workers--work-co-workers"><g id="person 1"><path id="vector" fill="#000000" d="M232.64 117.657c-0.67 -0.53 -1.24 -1.11 -1.732 -0.486 -0.518 0.656 0.11 0.586 3.846 5.028 1.772 2.106 4.294 5.852 3.57 8.54 -1.264 4.696 -11.456 9.192 -14.352 12.248 -3.64 3.838 5.324 5.936 7.48 13.05 1.84 6.074 -3.82 9.104 -16.96 27.672 -0.422 0.598 -22.5358 32.401 -24.0638 35.463 -0.292 0.586 0.68 1.566 1.39 0.62 5.406 -7.198 5.794 -7.65 14.5418 -19.931 23.336 -32.76 24.624 -32.652 26.93 -37.898 3.446 -7.838 -4.614 -13.858 -7.672 -16.7 -0.356 -0.332 -0.382 -0.548 -0.054 -0.888 1.478 -1.53 9.014 -5.042 12.862 -9.12 5.084 -5.386 1.066 -12.172 -5.784 -17.598h-0.002Z" stroke-width="1"></path><path id="vector_2" fill="#000000" d="M141.5322 145.697c-3.152 2.93 -8.272 8.272 -7.908 12.558 -0.314 13.164 21.566 64.953 25.034 68.839 0.498 0.556 1.562 0.184 1.32 -0.842 -0.564 -2.37 -21.312 -47.943 -23.896 -67.795 -0.444 -3.412 1.8 -6.204 10.15 -13.93 1.872 -1.732 0.214 -2.808 -1.416 -4.918 -2.39 -3.096 -3.968 -4.362 -2.72 -7.048 2.44 -5.25 12.544 -11.92 12.18 -12.742 -0.714 -1.608 -9.56 6.22 -11.7 8.928 -4.834 6.12 -2.64 8.096 1.834 13.574 0.666 0.816 0.364 0.364 -2.878 3.378v-0.002Z" stroke-width="1"></path><path id="vector_3" fill="#000000" d="M177.916 85.3808c0.23 -0.276 0.792 -1.302 0.498 -1.54 -0.932 -0.756 -7.596 4.554 -8.836 1.268 -1.706 -4.52 -0.036 -13.982 -1.784 -14.084 -1.13 -0.068 -1.008 2.51 -1.042 4.194 -0.122 6.126 -0.598 13.968 5.124 13.198 2.252 -0.304 5.17 -1.992 6.04 -3.036Z" stroke-width="1"></path><path id="vector_4" fill="#000000" d="M184.132 89.3836c1.028 3.176 0.108 7.716 -1.142 9.396 -0.206 0.276 0.994 0.89 1.962 -0.75 0.66 -1.118 2.17 -5.298 0.958 -9.28 -0.34 -1.118 -1.732 -2.724 -2.524 -1.142 -1.426 2.848 -6.856 5.24 -9.996 5.792 -2.968 0.524 0.858 4.028 8.078 -1.31 2.586 -1.914 2.344 -3.692 2.662 -2.708l0.002 0.002Z" stroke-width="1"></path><path id="vector_5" fill="#000000" d="M176.566 66.9308c1.908 -1.08 5.818 -2.704 7.182 -0.966 0.584 0.746 1.584 -0.818 0.486 -2.122 -0.974 -1.156 -3.29 -1.528 -5.834 -0.62 -4.404 1.574 -4.39 5.158 -1.834 3.708Z" stroke-width="1"></path><path id="vector_6" fill="#000000" d="M161.918 68.5006c-0.26 -2.432 -5.61 -1.428 -6.982 2.412 -0.584 1.632 0.734 2.524 1.448 1.452 2.684 -4.022 5.666 -2.624 5.534 -3.864Z" stroke-width="1"></path><path id="vector_7" fill="#000000" d="M178.956 73.5192c-0.43 1.55 0.096 3.444 1.72 3.362 1.476 -0.076 1.358 -2.55 0.376 -3.808 -0.556 -0.712 -1.862 -0.402 -2.096 0.448v-0.002Z" stroke-width="1"></path><path id="vector_8" fill="#000000" d="M161.5462 77.262c-1.292 -0.022 -1.888 1.408 -0.566 3.324 0.474 0.686 1.75 0.662 1.998 -0.406 0.276 -1.188 -0.29 -2.898 -1.432 -2.916v-0.002Z" stroke-width="1"></path><path id="vector_9" fill="#000000" d="M221.352 304.388c0.016 -0.796 -0.924 -1.684 -1.784 -1.712 -0.774 -0.026 -1.704 0.742 -1.608 1.804 -0.016 2.826 3.348 1.93 3.39 -0.092h0.002Z" stroke-width="1"></path><path id="Subtract" fill="#000000" fill-rule="evenodd" d="M247.63 115.0552c-13.238 -5.852 -26.32 -9.3588 -36.064 -8.8998 -0.578 0.027 -0.77 -0.276 -0.984 -0.6126 -0.214 -0.3364 -0.45 -0.7066 -1.112 -0.8154 -0.54 -0.088 -0.632 -0.126 -0.708 -1.566l-0.014 -0.2712c-0.182 -3.436 -0.748 -14.1524 -1.358 -18.2088 -0.056 -0.3632 0.43 -0.5808 0.86 -0.773 0.128 -0.0576 0.252 -0.1128 0.354 -0.169 7.588 -4.17 6.532 -12.29 4.474 -14.684 -0.284 -0.33 1.558 -6.136 1.708 -6.546 5.342 -14.548 -1.87 -28.812 -12.004 -29.634 -0.598 -0.048 -0.624 -0.088 -0.67 -0.678 -0.018 -0.2422 -0.036 -0.4794 -0.052 -0.7122 -0.13 -1.8698 -0.242 -3.4606 -1.32 -5.0718 -5.156 -7.70804 -16.898 -8.75004 -23.858 -7.13204 -3.256 0.75604 -4.484 2.05404 -6.66 4.37404 -0.5178 0.5518 -1.56 0.5966 -2.9112 0.6548 -3.0952 0.1334 -7.811 0.3364 -11.5548 6.8632 -0.77 1.344 -1.406 2.45 -2.896 2.792 -0.3058 0.0702 -0.6262 0.1388 -0.9582 0.21 -3.0166 0.6464 -7.0174 1.5036 -10.2298 5.696 -4.704 6.14 -1.916 17.234 6.01 19.028 0.5346 0.1204 0.5374 0.1414 0.7574 1.7116 0.2624 1.8734 0.8338 5.9518 2.9846 15.0344 1.872 7.898 5.436 18.974 10.548 25.282 3.0636 3.78 5.8464 5.583 6.7192 6.1486 0.0872 0.0566 0.1554 0.1008 0.2028 0.1334 0.7762 0.5326 1.1426 0.5996 1.2452 0.8008 0.0988 0.194 -0.047 0.5128 -0.3072 1.4932 -0.1794 0.6754 -1.43 0.8988 -4.1166 1.3786 -3.5414 0.6326 -9.5778 1.7106 -18.9454 4.8574 -31.7 10.648 -43.582 21.694 -54.71 41.836 -6.726 12.172 -11.978 22.44 -18.044 45.8346 -0.0836 0.322 -0.129 0.498 -0.2428 0.588 -0.2454 0.192 -0.8088 -0.024 -2.7592 -0.066 -12.06 -0.268 -36.168 -0.518 -48.99 0.36 -6.45098 0.442 -10.50586 0.104 -11.66928 1.778 -1.63626 2.352 2.4469 8.682 13.62728 26.752 19.4196 31.38 22.3432 35.826 22.0156 36.08 -0.093 0.072 -0.4476 -0.194 -0.7616 -0.276 -2.152 -0.57 -3.112 1.744 -2.52 3.448 0.776 2.23 3.332 5.692 4.374 6.776 0.492 0.508 0.5038 1.026 0.5134 1.448 0.0034 0.148 0.0066 0.286 0.0306 0.406 0.766 3.782 3.118 7.446 4.65 8.9 5.756 5.458 17.772 10.236 23.184 11.376 6.232 1.314 13.692 0.682 17.684 -0.582 8.6748 -2.746 12.217 -6.902 12.7652 -6.538 0.3444 0.228 -0.4936 2.24 -1.9832 7.508 -3.7202 13.158 -4.3588 17.5 -4.972 21.67 -0.0972 0.66 -0.1938 1.316 -0.302 2.004 -0.0474 0.3 -0.1194 0.716 -0.2064 1.216 -0.6654 3.836 -2.2046 12.704 -0.2536 13.974 1.1716 0.762 1.7886 1.198 2.289 1.552 1.1322 0.802 1.6662 1.18 6.669 3.944 0.4742 0.262 0.4688 0.304 0.4098 0.77 -0.0306 0.242 -0.0758 0.6 -0.0758 1.16 0 0.45 -0.002 0.998 -0.0042 1.626 -0.0252 6.968 -0.0866 23.908 2.1222 31.03 0.156 0.502 0.874 1.522 1.322 0.794 0.3478 -0.566 0.3356 -0.788 0.2578 -2.21 -0.0468 -0.852 -0.117 -2.134 -0.1478 -4.178 -0.3644 -24.072 -1.103 -27.224 -0.6996 -27.378 0.0792 -0.03 0.2026 0.056 0.3816 0.122 1.4912 0.544 2.949 1.134 4.4598 1.746 7.1132 2.88 15.3998 6.236 33.8642 7.442 7.2164 0.472 11.2136 0.75 13.725 -1.048 3.4612 -2.476 4.1008 -8.896 6.457 -24.188 0.8566 -5.554 1.5322 -10.83 2.0744 -15.064 0.6112 -4.772 1.0526 -8.22 1.3916 -9.24 0.1462 0.74 0.1952 3.136 0.2614 6.384 0.1158 5.682 0.2846 13.966 1.1206 20.532 0.4506 3.538 0.8192 5.726 1.0712 7.222 0.2842 1.686 0.4204 2.494 0.3588 3.368 -0.104 1.494 1.462 10.542 2.328 12.834 0.385 1.018 0.76 1.066 1.3468 1.142 0.3312 0.042 0.7296 0.092 1.2352 0.332 2.47 1.166 4.378 1.622 11.984 2.754 21.332 3.172 43.296 0.214 64.28 -4.768 0.898 -0.212 0.888 -0.052 0.792 1.668 -0.036 0.644 -0.084 1.508 -0.102 2.656 -0.004 0.292 0.032 0.584 0.066 0.878 0.032 0.258 0.064 0.516 0.068 0.776 0 0.042 0.26 16.048 0.268 16.09 0.21 1.09 1.566 1.214 1.838 0.122 0.39 -1.566 1.528 -10.958 1.268 -18.132 -0.146 -4.014 -0.348 -4.874 -0.034 -5.152 0.11 -0.098 0.28 -0.124 0.536 -0.188l0.068 -0.018c3.086 -0.776 5.574 -1.402 5.914 -3.648 0.35 -2.332 0.78 -5.504 0.042 -11.41 -1.954 -15.64 -2.08 -16.088 -2.806 -18.66 -0.332 -1.176 -0.788 -2.796 -1.602 -6.512 -1.12 -5.12 -1.838 -6.1 -1.612 -6.424 0.062 -0.092 0.204 -0.132 0.432 -0.198 10.662 -3.108 19.56 -7.158 26.824 -12.192 0.746 -2.168 1.364 -3.762 1.856 -4.938 -1.296 1.006 -2.748 2.094 -4.386 3.3 -10.876 8.002 -27.814 12.092 -41.044 14.788 -13.952 2.842 -16.666 3.588 -17.14 2.866 -0.164 -0.252 -0.058 -0.68 -0.058 -1.258 -0.004 -4.224 -2.236 -17.002 -3.478 -21.794 -2.84 -10.948 -5.016 -14.268 -5.798 -15.462 -0.374 -0.57 -0.432 -0.658 -0.092 -0.858 6.542 -3.878 13.306 -7.294 18.876 -10.026 -0.288 -0.328 -0.572 -0.682 -0.854 -1.064 -0.3 -0.406 -0.718 -0.5 -1.39 -0.65 -0.192 -0.044 -0.404 -0.09 -0.642 -0.152 -8.254 3.866 -17.956 9.228 -18.828 12.814 -0.084 0.35 -0.41 0.46 -1.23 0.738 -0.956 0.322 -2.58 0.872 -5.274 2.292 -2.25 1.184 -3.194 1.668 -3.636 2.44 -0.362 0.632 -0.386 1.458 -0.516 3.022 -0.034 0.402 -0.234 0.568 -0.608 0.536 -6.3092 -0.552 -7.9826 -1.272 -10.2652 -2.254 -0.7376 -0.316 -1.5388 -0.662 -2.5808 -1.036 -12.3382 -4.442 -16.6476 -4.628 -17.197 -4.652 -0.0326 0 -0.052 -0.002 -0.059 -0.002 -0.1858 -0.032 -0.3258 -0.048 -0.4324 -0.116 -0.431 -0.274 -0.3144 -1.408 -0.4716 -7.878 -0.3454 -14.154 -1.0574 -18.978 -0.3762 -23.594 1.1292 -7.652 6.0844 -14.738 22.8742 -62.7826 19.968 -57.137 17.81 -65.4742 16.36 -71.0796 -0.158 -0.6168 -0.31 -1.2004 -0.422 -1.8124l0.042 -0.0022c0.98 -0.0524 1.264 -0.0676 8.238 1.1042 7.988 1.3434 18.208 5.0474 27.88 9.5066 -0.15 -1.1394 -0.272 -2.3108 -0.36 -3.5088Zm-0.47 121.1408c-0.24 -13.758 0.376 -33.916 6.908 -63.8206 1.578 -7.224 -0.038 -4.526 -1.36 -1.348 -6.538 15.7086 -8.642 43.7106 -8.36 65.7466 0.828 -0.202 1.762 -0.396 2.812 -0.578Zm-43.288 -91.4146c5.458 -10.566 8.964 -25.752 6.086 -37.458v0.002c-0.082 -0.3346 -0.506 0.4458 -1.354 2.0088 -2.092 3.8568 -6.768 12.4778 -15.284 20.8692 -0.8286 0.816 -0.7214 0.8226 -0.1068 0.86 0.7518 0.046 2.2624 0.1382 3.7488 1.814 2.3142 2.609 6.016 10.0968 6.772 11.6286 0.086 0.172 0.134 0.2688 0.138 0.2754Zm-15.8598 0.2472c0.1244 0.4736 0.296 1.1274 0.4398 2.1048h-0.002c3.9562 26.9174 2.2784 40.6074 2.8478 40.7014 0.2302 0.038 0.828 -2.147 2.3142 -6.5794 11.662 -34.783 11.076 -34.582 10.53 -34.3944 -0.046 0.0154 -0.09 0.0308 -0.128 0.0264 -0.79 -0.0914 -3.306 -4.1032 -5.6052 -7.7686 -0.9738 -1.5528 -1.9086 -3.0434 -2.6568 -4.1474 -0.466 -0.688 -1.048 -1.31 -1.872 -1.612 -0.488 -0.18 -0.574 -0.16 -0.774 0.292 -0.3686 0.8332 -0.7074 1.6112 -1.024 2.3386 -1.5414 3.5414 -2.5606 5.8828 -3.986 7.5554 -0.3618 0.4248 -0.2844 0.719 -0.0838 1.4832ZM174.81 47.0354c0.112 -6.204 -4.532 -14.41 -7.504 -14.12h-0.002c-0.824 0.08 -1.28 0.922 -0.226 2.16 3.3132 3.8862 4.6492 8.5846 5.483 11.5166 0.493 1.7334 0.8104 2.8496 1.257 2.8154 0.494 -0.038 0.976 -1.426 0.992 -2.372Zm-21.292 27.984c1.93 7.666 3.62 13.452 7.68 20.542v0.004c3.374 5.894 9.31 11.402 16.036 11.808 3.962 0.2394 6.4412 -0.8596 8.7818 -1.897 0.2412 -0.1068 0.4806 -0.213 0.7202 -0.317 3.096 -1.3436 4.7732 -2.956 6.3802 -4.501 1.0194 -0.9802 2.0106 -1.933 3.3178 -2.773 0.74 -0.476 0.75 1.796 -1.738 4.374 -0.137 0.142 -0.2714 0.2818 -0.404 0.42 -2.4872 2.588 -4.326 4.5016 -9.988 6.406 -4.128 1.388 -8.548 1.208 -11.896 -0.084 -0.1152 -0.0444 -0.1956 -0.0874 -0.2614 -0.0712 -0.2064 0.0514 -0.2672 0.689 -0.8106 3.7132 -1.087 6.0454 -0.8626 6.3994 0.1164 7.9432l0.0296 0.0468c6.372 10.042 6.66 10.408 8.292 10.166 1.6394 -0.2436 4.9398 0.1464 7.1326 0.4054 1.1568 0.1366 2.0054 0.2368 2.1394 0.1886 0.126 -0.044 9.486 -10.224 11.498 -13.016 1.758 -2.4414 3.47 -4.9162 5.182 -7.3902 0.618 -0.8946 1.238 -1.789 1.858 -2.6818 0.462 -0.6632 0.282 -1.2924 -0.018 -2.3406 -0.178 -0.624 -0.398 -1.3968 -0.552 -2.4134 -1.112 -7.4 -1.706 -13.164 -1.602 -19.748 0.008 -0.518 0.18 -0.854 0.648 -1.076 8.68 -4.116 7.58 -14.746 1.678 -13.26 -2.108 0.5304 -3.008 1.897 -3.556 2.7274 -0.164 0.2498 -0.296 0.451 -0.42 0.5666 -0.46 0.432 -0.998 -0.238 -0.912 -0.752 0.12 -0.7184 0.286 -1.1442 0.398 -1.4264 0.168 -0.4288 0.206 -0.525 -0.256 -0.8096 -2.996 -1.844 -5.88 -5.336 -7.656 -8.4 -2.0014 -3.4536 -2.3304 -5.2872 -2.6794 -7.232 -0.1274 -0.7098 -0.2576 -1.4344 -0.4726 -2.258 -0.3336 -1.2778 0.199 -1.866 1.094 -2.8548 0.967 -1.068 2.3572 -2.6038 3.536 -5.9812 0.968 -2.772 0.97 -5.154 -0.054 -8.238 -0.28 -0.846 -1.236 -1.14 -1.406 -1.022 -0.0336 0.0232 -0.068 0.0462 -0.1024 0.0692 -0.3424 0.2302 -0.6976 0.469 -0.6976 0.9488 0.002 0.472 0.0842 1.1022 0.1694 1.755 0.1 0.766 0.204 1.563 0.1866 2.171 -0.178 6.294 -3.972 13.472 -9.996 14.612 -1.326 0.25 -2.954 0.542 -4.246 0.142 -0.9188 -0.2842 -0.5168 -0.7798 0.3282 -1.8218 1.338 -1.6496 3.7864 -4.6682 3.8598 -10.3842 0.046 -3.452 -1.79 -8.646 -3.9 -7.424 -0.765 0.4432 -0.4762 1.1826 -0.0002 2.4012 0.787 2.015 2.0856 5.3396 -0.0218 10.8008 -1.186 3.076 -3.726 6.548 -6.998 6.14 -1.1542 -0.1438 -1.3602 -0.41 -2.0338 -1.2794 -0.4596 -0.5936 -1.137 -1.468 -2.4822 -2.7766 -7.298 -7.102 -15.23 -5.028 -14.864 -3.208 0.1176 0.5804 0.745 0.5858 1.4508 0.5916 0.1234 0.0012 0.2494 0.0022 0.3752 0.0064 4.14 0.136 7.852 2.112 11.736 4.408 3.3152 1.959 1.9828 2.0426 -1.3432 2.2514 -2.134 0.1338 -5.0884 0.3194 -8.1628 1.0846 -2.07 0.516 -6.19 1.75 -7.94 2.976 -1.4102 0.9892 -0.9998 2.6062 1.682 13.1682 0.3492 1.3754 0.7368 2.9026 1.164 4.5998Zm12.05 128.7626c0.88 -6.6586 6.304 -28.7566 11.046 -44.7366l0.002 0.002c3.5796 -12.064 4.8706 -13.8736 4.468 -15.1486 -0.3624 -1.1476 -2.097 -1.862 -4.77 -9.2334 -0.2446 -0.676 -0.3462 -1.0596 -0.5502 -1.1254 -0.3496 -0.1128 -1.0002 0.7076 -3.1878 2.5894 -3.5258 3.0326 -5.5066 5.8714 -6.7622 7.6706 -1.9762 2.8324 -2.1556 3.0894 -3.7358 -2.5266 -0.3156 -1.1242 -0.459 -2.007 -0.524 -2.0012 -0.0548 0.0048 -0.054 0.6412 -0.054 2.2972 -0.046 0 0.71 51.246 4.068 62.2126Zm9.8978 -71.9582c0.702 -0.3242 0.9726 -0.4492 0.7382 -0.7844v0.002c-4.8754 -6.947 -6.3214 -10.4284 -6.9828 -12.0206 -0.4292 -1.0336 -0.528 -1.271 -1.0192 -1.1434 -0.406 0.104 -2.78 2.084 -3.948 4.08 -1.4578 2.4912 -1.5618 4.1718 -1.709 6.5472 -0.0264 0.424 -0.054 0.87 -0.091 1.3468 0.066 3.976 0.806 9.296 1.506 12.046 0.1042 0.4096 0.2942 0.1398 0.8296 -0.6212 0.9466 -1.3448 2.9728 -4.2238 7.5124 -7.5948 1.411 -1.048 2.4876 -1.5452 3.1638 -1.8576ZM107.672 140.2434c-6.952 8.38 -11.472 13.938 -20.292 32.598v0.002c-4.478 9.476 -10.816 30.5006 -10.594 31.0666 0.1094 0.276 0.4022 0.248 0.7014 0.22 0.15 -0.012 0.3018 -0.026 0.4326 -0.002 0.8104 0.148 1.3612 0.148 2.1972 0.15 0.5094 0.002 1.1246 0.002 1.9688 0.038 1.163 0.048 1.984 0.038 2.7272 0.274 2.2334 0.71 3.7626 3.636 11.7508 17.01 7.2826 12.188 14.3608 25.576 18.47 33.348 2.1632 4.09 3.5036 6.626 3.618 6.612 1.275 -0.158 -0.491 -13.222 -2.812 -30.39 -2.8202 -20.864 -6.46 -47.788 -6.46 -64.9906 -0.172 -0.004 0.288 -15.374 1.468 -17.458 0.318 -0.562 0.766 0.146 0.804 0.43 0.2896 2.1948 0.278 2.9776 0.2502 4.8564 -0.0398 2.6886 -0.1128 7.6216 0.6158 22.1496 0.307 6.1188 2.218 21.9936 4.1994 38.4506 1.7496 14.534 3.5538 29.522 4.3566 38.65 0.0542 0.614 0.0392 1.23 0.0242 1.848 -0.0222 0.912 -0.0444 1.824 0.1558 2.728 0.072 0.328 -0.1476 1.188 -0.4108 2.218 -0.4458 1.746 -1.0162 3.98 -0.5032 4.94 0.848 1.582 3.024 5.772 3.036 5.818 0.241 0.646 0.8962 0.692 3.423 0.862 3.4284 0.232 10.303 0.698 24.265 3.222 15.8646 2.866 18.9364 4.162 19.1638 3.778 0.0888 -0.15 -0.2554 -0.556 -0.4418 -1.224 -0.332 -1.192 0.578 -1.856 1.402 -1.984 0.0934 -0.016 0.1706 -0.026 0.233 -0.062 0.4374 -0.254 0.1606 -1.742 -0.291 -14.324 -0.4604 -12.846 0.2118 -16.988 0.5082 -18.816 0.1684 -1.038 0.2156 -1.328 -0.1342 -2.042 -1.984 -4.044 -5.296 -18.72 -6.672 -25.538 -4.768 -23.5966 -5.352 -50.6606 -5.066 -74.7326 0.0098 -0.8098 0.0134 -1.6168 0.017 -2.4182 0.0392 -8.896 0.0756 -17.1364 8.539 -21.5158 0.6588 -0.3418 0.6868 -0.6984 0.865 -2.9604 0.0074 -0.0938 0.0152 -0.191 0.023 -0.2916 0.0118 -0.1536 0.0504 -0.2602 0.013 -0.3158 -0.1018 -0.1516 -0.7668 0.075 -4.069 0.7598 -0.046 0.01 -9.502 2.274 -10.674 2.584 -12.614 3.328 -38.164 14.032 -46.808 24.452Zm69.8324 142.8246c-3.6702 -3.338 -33.2674 -7.348 -47.3556 -9.258 -1.1588 -0.156 -2.2128 -0.3 -3.1388 -0.426 -1.191 -0.164 -1.8898 -0.376 -2.0844 -0.152 -0.3386 0.39 0.8492 2.104 3.6244 7.706 0.8238 1.66 47.3526 2.558 48.9544 2.13ZM73.258 245.314c-1.012 -4.416 -5.328 -10.284 -10.342 -10.49v0.002c-6.606 0.892 -5.562 9.826 -1.44 15.152 5.904 7.624 14.102 5.444 11.782 -4.664Zm-26.1004 31.228c0.0262 -0.066 0.0524 -0.134 0.0524 -0.204v-0.002c0.0478 -2.006 0.2392 -3.082 0.3518 -3.716 0.123 -0.692 0.1522 -0.856 -0.2018 -1.126 -1.456 -1.112 -1.6352 -1.28 -1.847 -1.35 -0.1054 -0.036 -0.2186 -0.046 -0.501 -0.136 -3.314 0 1.678 6.366 2.114 6.622 0.0092 -0.03 0.0204 -0.058 0.0316 -0.088Zm4.9624 -9.66c-2.552 2.308 -3.39 6.388 -3.458 9.824h0.002c-0.234 11.934 13.314 19.294 21.888 18.446 3.0006 -0.298 4.3996 -1.086 6.4086 -2.218 0.5486 -0.308 1.1428 -0.644 1.8274 -1 1.684 -0.88 3.702 -2.948 3.734 -3.604 0.004 -0.1 -0.3838 -0.114 -2.3464 -0.182 -1.0184 -0.038 -2.4612 -0.088 -4.4936 -0.174 -0.526 -0.024 -0.8464 0.298 -1.333 0.788 -0.3516 0.352 -0.7898 0.792 -1.455 1.254 -0.1928 0.132 -0.384 0.27 -0.5756 0.406 -0.932 0.666 -1.8688 1.336 -3.0204 1.624 -0.0708 0.016 -0.1448 0.042 -0.219 0.066 -0.2758 0.092 -0.5558 0.186 -0.693 -0.088 -0.084 -0.168 0.172 -0.978 0.72 -1.244 1.054 -0.512 3.59 -2.658 3.738 -2.804 0.3326 -0.33 -0.127 -0.36 -0.9698 -0.42 -0.4348 -0.03 -0.9714 -0.066 -1.5542 -0.154 -0.5802 -0.09 -0.809 0.044 -1.84 0.64 -0.3906 0.226 -0.8964 0.518 -1.58 0.892 -0.594 0.324 -1.826 -0.21 -1.332 -0.712 0.3318 -0.338 0.8754 -0.802 1.5216 -1.352 2.05 -1.75 5.1342 -4.38 5.7744 -6.65 0.184 -0.656 0.02 -0.908 -0.674 -0.958 -1.7184 -0.124 -4.739 1.95 -7.386 3.766 -1.5246 1.046 -2.9252 2.008 -3.882 2.416 -1.602 0.684 -1.28 -2.252 -0.72 -3.77 1.2372 -3.35 2.0234 -4.512 2.7574 -5.596 0.5464 -0.808 1.0638 -1.572 1.7166 -3.164 0.852 -2.08 -3.424 -2.236 -7.162 3.554 -0.1994 0.308 -0.4046 0.612 -0.6096 0.916 -0.6648 0.986 -1.3282 1.97 -1.7884 3.084 -0.118 0.286 -0.372 0.318 -0.552 0.068 -2.0174 -2.798 -1.1472 -7.956 -0.7304 -10.428 0.0674 -0.4 0.123 -0.73 0.1524 -0.966 0.19 -1.514 -0.928 -3.108 -1.866 -2.26Zm16.724 30.248c20.847 7.428 36.0282 -4.826 37.94 -8.174 -0.972 -0.384 -20.886 -0.56 -20.932 -0.56 -0.606 -0.006 -1.042 0.08 -1.348 0.69 -0.234 0.47 -2.106 3.092 -4.972 4.634 -5.6258 3.024 -7.7778 3.042 -9.0832 3.054 -0.6344 0.006 -1.0688 0.01 -1.6048 0.356Zm95.2888 50.502c1.0508 -6.6 6.884 -43.238 7.4892 -46.18v0.002c0.104 -0.51 0.032 -0.628 -1.47 -1.038 -2.406 -0.656 -7.192 -2.674 -7.036 -5.152 0.0262 -0.416 -0.3552 -0.65 -0.8318 -0.942 -0.5062 -0.31 -1.12 -0.688 -1.4662 -1.416 -0.2566 -0.54 -0.3952 -0.974 -0.5044 -1.318 -0.2258 -0.708 -0.325 -1.018 -1.0816 -1.034 -0.4462 -0.01 -2.4686 -0.08 -5.654 -0.19 -8.4338 -0.29 -25.021 -0.862 -42.096 -1.338 -0.111 -0.004 -0.2028 -0.01 -0.287 0.012 -0.488 0.126 -0.7308 1.202 -3.079 9.468 -4.488 15.79 -4.9838 18.506 -6.3476 25.974 -0.2358 1.292 -0.4976 2.726 -0.8104 4.394 -0.0004 0.002 -0.0036 0.016 -0.0096 0.042 -0.1156 0.518 -1.2312 5.502 -1.4424 8.68 -0.028 0.438 0.08 0.694 0.482 0.92 0.3096 0.174 0.6392 0.376 1.0364 0.618 1.761 1.076 4.851 2.964 13.4136 6.984 14.582 6.846 32.724 9.258 45.108 8.462 1.294 -0.084 2.38 -0.69 2.976 -1.8 0.702 -1.304 1.222 -2.712 1.46 -4.202 0.0214 -0.134 0.073 -0.458 0.1508 -0.946Zm0.8152 -51.982c-0.15 0.214 0.704 1.138 1.056 1.298l-0.002 0.002c7.478 3.396 20.878 5.874 27.796 2.118 2.758 -1.498 4.01 -1.736 6.902 -2.064l0.864 -0.102c1.596 -0.194 3.19 -0.388 4.82 -0.132 0.454 0.07 0.91 0.118 1.368 0.164 0.884 0.09 1.768 0.18 2.626 0.452 0.702 0.222 0.582 -0.486 0.23 -1.834 -0.886 -3.378 -1.784 -6.75 -3.094 -9.996 -0.146 -0.364 -0.352 -0.6 -0.728 -0.654 -0.112 -0.016 -0.224 -0.034 -0.336 -0.052 -0.47 -0.072 -0.944 -0.144 -1.414 -0.14 -5.4564 0.036 -8.4268 -1.066 -13.2514 -2.858 -2.5266 -0.938 -5.5616 -2.066 -9.7286 -3.316 -2.162 -0.648 -11.6 -3.01 -10.542 -1.058 0.5476 1.008 2.9286 2.062 5.3914 3.15 4.5172 1.998 9.3098 4.118 3.5666 6.312 -3.072 1.172 -11.874 2.544 -14.046 2.544 -0.244 0 -0.788 0.13 -1.08 0.286 0.2456 0.128 0.6572 0.196 1.2164 0.288 0.4796 0.078 1.0674 0.176 1.7516 0.344 2.3122 0.566 4.9264 0.872 7.2322 1.142 3.628 0.424 6.492 0.76 6.2118 1.884 -0.34 1.36 -13.648 -0.47 -17.764 -2.318 -0.2306 -0.104 -0.5062 -0.116 -0.7808 -0.126 -0.1136 -0.004 -0.2272 -0.01 -0.3372 -0.02 -0.292 -0.03 -0.578 0.02 -0.708 0.322 -0.8752 2.016 6.1446 3.37 11.8006 4.46 4.528 0.874 8.182 1.578 6.2114 2.32 -1.3972 0.524 -8.992 -1.11 -12.9024 -1.952 -1.3848 -0.298 -2.3076 -0.496 -2.3296 -0.464Zm52.224 -19.966c-0.38 -0.156 -1.14 0.618 -4.452 2.394l0.002 0.002c-3.414 1.83 -4.694 2.088 -4.822 2.622 -0.128 0.54 0.922 1.36 2.14 4.372 3.67 9.074 4.398 18.488 4.742 22.948 0.124 1.606 0.198 2.57 0.342 2.642 0.042 0.02 9.766 -0.574 10.104 -0.816 -2.296 -22.27 -4.714 -27.36 -7.442 -33.106 -0.072 -0.154 -0.144 -0.306 -0.218 -0.46 -0.16 -0.336 -0.25 -0.538 -0.396 -0.598Zm47.19 76.756c0.608 -0.084 0.702 -0.238 0.666 -0.824v0.002c-0.022 -0.36 -0.042 -0.792 -0.068 -1.302 -0.196 -4.07 -0.628 -13.078 -3.946 -29.966 -1.734 -8.826 -1.924 -10.474 -2.5 -10.622 -0.168 -0.044 -0.37 0.04 -0.652 0.112 -2.934 0.738 -30.312 7.138 -32.648 5.22 -1.496 -1.232 -1.91 -2.102 -2.124 -2.558 -0.13 -0.272 -0.188 -0.394 -0.366 -0.352 -0.696 0.162 -4.538 0.708 -7.974 0.524 -2.456 -0.134 -4.75 -7.244 -5.596 -9.864 -0.048 -0.15 -0.092 -0.284 -0.13 -0.4 -0.37 -1.134 -0.566 -1.93 -0.704 -2.486 -0.258 -1.05 -0.306 -1.242 -0.916 -1.222 -1.1 0.034 -2.172 0.014 -3.218 -0.004 -3.136 -0.056 -6.0524 -0.106 -8.874 1.294 -6.236 3.092 -13.756 3.26 -20.178 1.854 -0.5106 -0.114 -0.4856 0.176 -0.3976 1.196 0.031 0.358 0.0696 0.806 0.0956 1.36 0.1236 2.632 0.2122 5.358 0.3042 8.184 0.4034 12.412 0.8694 26.746 4.6258 43.362 0.614 2.718 32.862 5.53 45.926 3.814 12.432 -1.636 21.782 -3.742 28.776 -5.318 4.038 -0.908 7.29 -1.642 9.898 -2.004Z" clip-rule="evenodd" stroke-width="1"></path></g><g id="person 2"><path id="vector_10" fill="#000000" d="M387.946 322.192c-1.044 -14.976 -3.232 -29.21 -11.51 -40.504 -1.77 -2.416 -7.044 -8.916 -11.058 -10.556 -0.754 -0.308 -0.03 -1.032 -3.67 -10.536 -1.41 -3.676 -2.544 -5.174 -2.918 -6.392 -1.042 -3.408 1.068 -2.758 1.532 -29.154 1.254 -71.396 -32.05 -76.548 -33.334 -78.946 -2.928 -5.466 -6.506 -10.254 -11.996 -6.818 -0.322 0.202 -0.256 -0.15 -4.224 -4.294 -3.968 -4.144 -4.144 -3.746 -3.758 -4.324 2.992 -4.494 5.784 -17.346 6.378 -21.326 0.832 -5.572 -0.022 -5.93 1.226 -5.604 14.582 3.814 36.784 5.022 33.59 -9.794 -0.812 -3.762 -1.888 -2.486 1.682 -4.654 8.118 -4.932 7.254 -12.52 2.004 -15.734 -1.088 -0.666 0.8 -1.028 2.444 -4.818 2.126 -4.9 -0.536 -8.806 -4.814 -9.43 -3.394 -0.496 -4.362 1.088 -4.668 -0.222 -0.854 -3.654 -5.324 -5.442 -8.556 -5.232 -1.37 0.088 -0.996 -0.904 -2.152 -3.118 -5.616 -10.758 -15.144 -9.66 -20.326 -3.178 -1.282 1.604 -1.892 3.206 -3.052 5.664 -0.762 1.616 -1.494 0.77 -5.064 0.824 -8.552 0.128 -11.376 13.584 -9.668 21.962 0.076 0.374 -0.146 0.594 -0.966 0.104 -4.662 -2.778 -17.472 -4.528 -26.88 1.494 -2.996 1.918 -4.67 2.034 -8.584 3.62 -2.54 1.03 -6.208 3.722 -6.392 6.108 -0.07 0.908 -0.662 0.87 -1.444 1.026 -5.55 1.1 -7.99 5.282 -7.74 8.414 0.242 3.008 2.746 5.626 3.914 6.378 0.924 0.594 -0.252 1.184 -0.414 4.948 -0.322 7.41 0.802 14.252 2.406 19.514 2.108 6.916 -1.89 9.156 -0.126 11.828 0.932 1.412 4.036 1.958 5.604 2.046 0.728 0.04 0.528 -0.026 3.408 5.362 5.252 9.828 12.62 11.52 18.33 8.64 5.706 -2.878 5.526 -3.43 5.738 -2.808 0.06 0.174 1.774 4.35 3.14 6.68 2.538 4.33 2.518 3.688 1.972 4.576 -3.112 5.042 -3.262 9.68 -2.068 12.038 0.8 1.582 -15.704 21.762 -13.452 44.494 0.678 6.852 5.156 15.4 4.42 15.412 -0.916 0.016 -2.57 -0.2 -5.082 -0.356 -28.07 -1.734 -33.216 3.65 -33.648 3.724 -4.612 0.802 -8.28 -1.184 -9.18 1.876 -0.368 1.25 -0.988 -0.714 -9.53 -0.812 -1.516 -0.018 -7.438 0.596 -11.012 -0.142 -2.486 -0.512 -7.848 -2.068 -7.894 -2.08 -1.066 -0.29 -2.774 0.29 -2.862 1.654 -0.142 2.186 1.646 3.13 3.658 3.968 6.676 2.78 7.392 1.62 6.786 2.892 -0.374 0.782 -1.294 2.382 -1.436 4.198 -0.268 3.44 2.402 5.95 3.516 5.834 0.662 -0.068 0.62 0.344 1.57 1.198 1.532 1.374 2.444 0.348 3.546 1.248 1.826 1.49 5.63 1.026 6.66 -2.508 0.486 -1.666 1.542 -0.312 4.876 -2.646 0.202 -0.142 0.398 -0.288 0.616 -0.39 0.054 -0.024 0.276 0.13 0.268 0.152 -0.288 0.76 0.088 1.514 0.042 2.268 -0.064 1.062 0.292 1.908 1.16 2.532 5.136 3.7 6.772 2.546 7.576 3.632 2.78 3.766 5.748 4.738 10.636 6.216 13.78 4.166 21.622 13.108 44.556 19.816 1.458 0.426 -3.402 -0.484 -15.738 58.858 -2.06 9.916 -3.522 19.024 -4.172 31.456 -0.05 0.95 0.134 1.926 1.068 2.102 1.44 0.27 0.008 0.172 114.956 0.168 0.904 -0.058 1.646 -0.698 1.772 -1.582 1.326 -9.342 -0.998 -47.552 -1.654 -56.962l-0.008 -0.004Zm-160.374 -70.402c-0.212 0.332 -0.836 0.372 -1.25 0.598 -2.074 1.132 -3.934 1.486 -5.894 1.784 -1.422 -0.216 -1.658 -0.268 -1.888 -0.2 -0.566 0.164 -0.728 0.724 -0.292 1.118 1.156 1.046 2.446 0.728 1.92 1.294 -1.212 1.306 -1.816 2.18 -3.59 1.364 -2.922 -1.344 0.734 -6.774 -0.012 -7.33 -0.812 -0.604 -2.342 2.118 -2.758 6.136 -0.062 0.598 -1.85 -0.668 -1.908 -2.348 -0.05 -1.44 0.636 -2.914 1.72 -5.622 0.52 -1.296 -0.38 -1.406 -1.272 -0.128 -2.252 3.23 -1.934 6.076 -2.516 6.446 -0.058 0.038 -0.284 -0.066 -0.338 -0.164 -1.59 -2.802 -1.302 -4.302 -0.104 -7.698 0.846 -2.398 0.964 -1.556 -7.518 -4.684 -3.432 -1.266 -3.47 -3.222 -1.696 -2.792 4.646 1.126 6.396 1.726 8.288 1.804 0.172 0.006 0.352 0.024 0.51 0.084 2.644 0.996 13.25 -0.598 19.14 1.334 0.18 0.06 0.252 0.084 0.206 0.334 -0.914 4.896 -0.25 7.9 -0.746 8.668l-0.002 0.002Zm77.406 -195.582c6.512 -0.87 5.608 1.886 8.174 -3.31 1.246 -2.524 2.916 -6.802 8.28 -7.882 7.638 -1.538 10.838 7.344 12.096 8.736 0.31 0.342 -0.134 0.338 -0.808 0.51 -6.642 1.694 -10.132 6.142 -9.086 7.04 0.482 0.414 1.11 -1.134 4.39 -2.976 3.282 -1.842 7.442 -3.018 11.058 -1.976 3.762 1.084 3.906 3.478 4.256 4.692 0.582 2.006 1.834 -0.028 5.526 0.332 3.662 0.356 4.716 3.562 3.454 6.346 -1.8 3.968 -7.49 9.912 -10.798 12.574 -0.2 0.16 -2.754 1.452 -0.198 1.044 3.13 -0.5 6.274 -3.934 8.642 -6.444 1.404 -1.488 8.662 6.72 -1.138 12.72 -5.976 3.66 -2.044 3.268 -2.558 9.476 -0.28 3.394 -3.236 5.158 -6.53 5.898 -4.516 1.014 -7.346 0.568 -10.858 0.28 -1.436 -0.118 -12.78 -1.268 -14.538 -1.712 -1.122 -0.284 0.554 -7.458 -3.6 -12.31 -0.842 -0.984 -4.348 -7.036 -12.08 -11.59 -0.31 -0.182 -0.482 -0.364 -0.57 -0.762 -1.556 -7.06 1.742 -20 6.886 -20.686Zm-52.886 34.25c6.614 -1.122 16.53 2.842 16.91 2.152 0.326 -0.594 -3.172 -3.136 -13.654 -4.458 -0.292 -0.038 -0.586 -0.084 -0.878 -0.126 2.252 -4.616 7.082 -5.436 10.924 -6.546 4.256 -1.23 3.16 -3.13 8.596 -4.392 9.268 -2.148 10.192 -2.138 18.09 -0.44 5.76 1.24 10.69 5.922 14.834 10.146 7.054 7.19 4.554 21.138 2.186 30.928 -3.082 12.734 -2.028 12.16 -6.3 10.866 -0.662 -0.2 0.116 -0.946 0.456 -3.186 1.098 -7.224 -7.422 -10.53 -10.916 -4.738 -0.376 0.624 -0.816 1.022 -1.5 1.152 -11.56 2.196 -16.664 -9.798 -16.634 -10.808 0.834 0.11 1.566 1.418 5.496 2.574 0.57 0.168 0.448 -0.332 0.176 -0.524 -10.486 -7.392 -14.65 -14.25 -23.724 -15.362 -4.056 -0.498 -5.152 0.234 -7.07 3.964 -6.32 -5.478 -1.878 -10.376 3.006 -11.206l0.002 0.004Zm35.872 68.13c-3.22 -7.778 -3.27 -6.228 -3.688 -7.664 -0.092 -0.318 -0.318 -0.452 -0.632 -0.41 -6.728 0.876 -10.122 6.414 -16.584 2.31 -4.066 -2.582 -6.468 -7.33 -8.326 -10.384 -1.39 -2.286 -0.892 -2.362 -6.308 -3.704 -2.566 -0.636 -0.682 -1.352 0 -5.174 1.042 -5.828 -5.758 -20.708 -1.372 -32.356 0.59 -1.57 0.56 -1.578 2.834 -1.552 6.254 0.456 9.836 3.228 12.904 5.622 5.892 4.596 5.756 4.198 5.876 5.086 1.372 10.044 9.27 15.87 18.504 12.878 2.872 -0.93 2.528 -3.274 6.052 -3.47 2.72 -0.152 5.516 2.834 3.646 7.698 -0.962 2.502 -4.762 2.366 -5.404 3.674 -0.222 0.454 -0.026 0.908 0.46 0.938 6.582 0.408 3.384 -6.51 13.804 4.63 1.068 1.142 2.054 2.362 3.092 3.532 0.978 1.102 -4.912 2.212 -19.828 17.228 -4.298 4.328 -3.26 5.404 -5.036 1.118h0.006Zm1.122 7.14c6.64 -9.75 18.43 -18.642 27.028 -25.352 1.984 -1.548 4.984 0.08 6.404 2.138 2.774 4.024 3.152 4.13 2.494 4.24 -9.582 1.586 -25.376 13.712 -32.15 21.104 -4.864 5.308 -5.24 7.576 -5.458 6.224 -0.478 -2.984 0.19 -6.162 1.682 -8.354Zm38.102 113.474c-1.322 0.228 2.152 -2.838 3.956 -7.476 1.908 -4.906 2.896 -9.174 3.318 -10.434 0.586 -1.75 5.562 -12.39 8.066 -31.974 2.398 -18.764 7.66 -28.416 -2.248 -46.796 -5.692 -10.56 -14.888 -16.074 -16.566 -14.328 -1.506 1.566 6.706 2.408 13.39 13.91 8.9 15.316 6.642 24.088 4.13 38.718 -7.03 40.948 -9.936 60.714 -32.108 65.35 -14.236 2.978 -29.93 -4.81 -42.714 -11.28 -18.624 -9.424 -11.648 -5.96 -23.882 -10.338 -3.416 -1.222 -3.262 -2.752 -8.224 -5.224 -2.986 -1.486 -5.084 -2.206 -4.978 -4.018 0.592 -10.156 0.626 -10.25 1.068 -12.536 0.484 -2.5 1.796 -1.416 3.57 -1.464 5.588 -0.158 3.948 -1.172 6.87 -1.776 2.628 -0.542 2.758 -0.992 7.614 -1.506 20.788 -2.208 55.616 2.502 55.658 2.502 0.596 -0.046 0.724 -0.37 0.194 -0.64 -1.258 -0.642 -6.038 -1.674 -15.682 -2.966 -1.16 -0.156 -0.778 -0.168 -0.264 -4.656 4.052 -35.29 14.908 -54.46 15.11 -55.376 0.178 -0.812 -1.03 -0.888 -1.586 0.046 -13.612 22.854 -16.036 59.558 -16.702 59.584 -0.118 0.004 -1.646 -0.162 -3.416 -0.318 -1.876 -0.166 -2.126 0.05 -2.37 -0.548 -7.012 -17.232 -5.354 -26.634 -0.054 -40.588 6.104 -16.072 10.582 -21.508 19.12 -29.88 4.6 -4.512 22.536 -18.274 28.148 -16.592 4.208 1.26 8.638 4.772 11.742 7.882 10.85 10.874 15.276 25.228 17.994 40.346 2.648 14.73 2.394 28.354 1.428 43.288 -1.038 16.028 -1.906 11.05 1.836 21.854 1.666 4.81 3.936 8.214 3.814 8.844 -0.044 0.226 -16.936 5.08 -36.232 8.396v-0.006Z" stroke-width="1"></path><path id="vector_11" fill="#000000" d="M237.764 242.852c-0.746 1.786 -1.558 11.988 -1.334 14.36 0.116 1.244 0.724 3.65 1.18 2.554 -0.34 0.812 1.528 -14.106 1.536 -16.666 0.004 -1.264 -0.908 -1.378 -1.38 -0.248h-0.002Z" stroke-width="1"></path><path id="vector_12" fill="#000000" d="M322.662 74.7224c1.724 1.198 2.172 0.29 4.75 -2.574 1.436 -1.596 8.032 -8.884 10.678 -9.124 0.884 -0.08 0.732 -0.51 0.11 -0.984 -1.666 -1.264 -8.174 4.83 -9.782 6.472 -4.698 4.796 -3.9 5.114 -5.102 4.344 -4.064 -2.604 -9.308 5.478 -10.372 10.506 0.138 1.724 0.75 1.962 0.866 1.222 0.318 -1.998 3.038 -5.682 4.24 -7.33 1.202 -1.646 3.014 -3.644 4.614 -2.532h-0.002Z" stroke-width="1"></path><path id="vector_13" fill="#000000" d="M339.342 88.94c-2.756 2.178 -7.578 -0.28 -9.086 2.324 -0.548 0.946 -1.44 0.966 -3.244 0.816 -6.802 -0.564 -7.91 -1.282 -6.91 -0.066 0.33 0.402 2.52 1.196 3.022 1.33 1.722 0.462 3.488 0.536 5.27 0.494 1.278 -0.03 2.308 -0.41 2.976 -1.552 0.452 -0.774 1.104 -0.582 3.122 -0.582v0.046c2.458 0 3.386 0.054 5.346 -1.248 0.788 -0.524 0.36 -2.236 -0.494 -1.562h-0.002Z" stroke-width="1"></path><path id="vector_14" fill="#000000" d="M309.988 62.986c-2.084 2.652 -2.662 4.642 -3.012 6.216 -0.378 1.704 -0.21 3.296 -0.014 3.606 0.182 0.288 0.812 0.146 0.85 -0.022 0.342 -1.516 -0.882 -2.288 3.206 -8.072 0.958 -1.356 1.956 -2.48 2.704 -2.778 1.004 -0.402 -0.498 -3.064 -3.734 1.05Z" stroke-width="1"></path><path id="vector_15" fill="#000000" d="M269.256 137.5278c-0.438 1.696 -2.82 3.986 -5.056 4.386 -0.732 0.13 -0.85 0.976 -0.188 1.38 1.536 0.94 3.96 -0.62 5.232 -2.418 0.966 -1.37 1.164 -2.8 1.616 -1.992 2.042 3.642 -1.494 8.852 -0.648 9.27 1.278 0.632 3.382 -3.716 3.462 -6.404 -0.214 -5.308 -3.82 -6.53 -4.416 -4.224l-0.002 0.002Z" stroke-width="1"></path><path id="vector_16" fill="#000000" d="M258.7 113.9548c-1.784 -1.338 -7.7 -0.284 -7.228 3.39 0.076 0.59 0.93 1.054 1.422 0.482 1.14 -1.322 2.73 -2.624 5.932 -2.134 0.766 0.118 1.008 -0.886 -0.126 -1.738Z" stroke-width="1"></path><path id="vector_17" fill="#000000" d="M256.444 125.4366c0.36 0.518 0.9 0.48 1.418 0.398 0.774 -0.124 0.742 -1.368 0.732 -1.188 0.076 -4.818 -5.208 -3.61 -2.152 0.792l0.002 -0.002Z" stroke-width="1"></path><path id="vector_18" fill="#000000" d="M291.068 90.2078c-5.524 -4.544 -9.502 -7.154 -16.534 -8.47 -2.144 -0.402 -3.856 0.56 -1.662 1.168 15.72 4.326 17.098 11.076 27.396 16.052 2.98 1.44 -7.718 -7.53 -9.2 -8.748v-0.002Z" stroke-width="1"></path></g></g></svg>