<svg xmlns="http://www.w3.org/2000/svg" viewBox="0 0 400 400" id="Job-Interview-1--Streamline-Milano" height="400" width="400"><desc>Job Interview 1 Streamline Illustration: https://streamlinehq.com</desc><g fill="#000000" fill-rule="evenodd"><path d="M389.24 274.26c-2 -6.42 -7.28 -20.76 -9.64 -24.44 -0.54 -0.84 -0.78 -1.04 -2.62 -1.26 -6.4 -0.74 -29.78 -0.68 -36.24 -0.66a62.98 62.98 0 0 0 -6.82 -12.26c3.88 -1.22 3.52 -3.6 5 -26.14 7.54 1.52 16.42 2 23.7 -0.34 7.76 -2.58 11.8 -13.84 7.62 -25.02a28.54 28.54 0 0 0 -10.66 -13.28c-10.7 -8.82 -30 -15.36 -43 -17.84a14.86 14.86 0 0 0 -7.34 -1.6c-0.5 0 0.16 1.2 -1.56 -4.52a10.26 10.26 0 0 0 6.32 -5.86 46 46 0 0 0 1.82 -9.32 3.88 3.88 0 0 0 3.04 -3.2 7.74 7.74 0 0 0 -0.56 -6.28 1.76 1.76 0 0 0 0 -2.38c0.12 -0.94 2 -3.02 2.48 -4.18a3.08 3.08 0 0 0 -0.18 -2 3.2 3.2 0 0 0 0 -3.18 4.56 4.56 0 0 0 -2 -1.1c0 -0.92 0.52 -2 -0.72 -2.94 -0.76 -0.5 -1.64 0 -2.3 0.22a9.48 9.48 0 0 0 -0.64 -0.86 1.68 1.68 0 0 0 -2 -0.56 4 4 0 0 0 -0.68 -1.42c-1.2 -1.38 -2.88 -0.54 -3.34 -0.44a4.36 4.36 0 0 0 -0.36 -1.42c-1.08 -2 -3.86 0.16 -5.34 0.44 -0.78 -0.46 -0.56 -2.72 -4.1 -2.32 -1.6 0.18 -2.18 1.02 -3.24 1.62 -1.68 -2.4 -0.44 7.38 -0.52 -27.84 0 -4.4 0 -26 -2 -30 -0.34 -0.74 -0.64 -0.94 -1.84 -1.12 -8.94 -1.2 -91.36 -1.76 -95.78 -1.76 -2.72 0 -63.26 0 -64.58 2.18 -4.62 7.84 -1.08 84.72 2.46 101.84a6 6 0 0 0 0.74 6.62 4.96 4.96 0 0 0 2.38 0.8c-2 2.38 -1.18 4.94 1.06 4.86 1.14 0 2.5 -0.76 3.02 -0.6 1.44 0.48 2.36 2 4.2 2.32a6.3 6.3 0 0 0 4 -1.6c1.04 -0.26 4 0.52 5.82 -2.84a10.92 10.92 0 0 0 5.14 5.64l-2 6.72a81.48 81.48 0 0 0 -13.02 3.88C127.3 180.2 120 201.74 122 222.22c1.58 15.66 3.24 18.74 5.46 24a18 18 0 0 0 3.54 5.5l-17.14 0.44c-1.58 0 -10.36 13.84 -13.68 22.7a0.82 0.82 0 0 0 -0.58 0.5c-0.9 2.6 -2.18 7.02 0.18 8.44 0.94 0.56 8.28 0.7 10.4 0.76 -0.96 8 -5.7 44.64 -4.7 52.3a2.18 2.18 0 0 0 1.76 2.16c2.36 0.78 9.06 0.92 9.58 -1.52 1.74 -8.38 2.58 -37.9 3.44 -52.74l16.26 0.14c0.56 3 1.74 11.2 2.7 12.56 2.54 3.54 9.24 1.88 13.38 0.32 -0.94 4.22 -0.66 5.32 0 21.9 0.3 8.98 0.64 22.46 -0.66 31.34a19.34 19.34 0 0 1 -2 4 67.4 67.4 0 0 0 -4.86 10 5.16 5.16 0 0 0 0 4.48c2.84 3.68 11.54 -2.96 15.08 -6 0 0.8 -0.3 1.82 0.16 2.26 1.18 1.1 3.4 -0.48 4.44 -1.68 0.54 -0.64 0.58 -0.92 0.96 -3.02 1.88 -10.24 3.76 -19.82 5.58 -31.2a142.56 142.56 0 0 0 4.44 16.5c0.84 2.66 2.3 8.84 2.88 10.22a6.4 6.4 0 0 0 3.2 2.36c1.22 0.4 2.5 0 2.4 -1.24 0 -0.38 -0.18 -1.02 -0.32 -1.64 3.32 2.22 10.12 6.32 14 5.84a2.94 2.94 0 0 0 2.86 -3.04c0 -4.88 -8.84 -14.88 -9.36 -17.02 -3 -12.3 -2.12 -28.22 -2.86 -39.86a30.76 30.76 0 0 0 -2.34 -9.66 10.7 10.7 0 0 0 6.64 4.8 4.86 4.86 0 0 0 4.4 -1.82 36.78 36.78 0 0 0 5.66 -10.56l62.38 -0.84c1.08 7.88 2.34 16 3.62 24 -2.48 -0.46 -5.44 -0.96 -8.64 -1.44 0.88 -2.62 2 -6.94 -0.34 -8.48 -3.28 -2.16 -16.32 -3.84 -20.34 -2.32 -2.52 0.98 -2.82 5.26 -2.82 8 -2.54 -0.24 -13.02 -1.18 -15.44 -0.38a1.18 1.18 0 0 0 -0.9 0.82c-1.5 4 -6.74 18.78 -6.2 23.04a0.78 0.78 0 0 0 0.6 0.64 15.84 15.84 0 0 0 2 0.38c-0.52 3.2 -2.62 18.54 -2 20.98 0.2 0.72 1.44 1.14 2.2 1.38 9.1 2.94 45.76 6.78 49.42 6.22 0.1 0 3.38 -0.94 4.56 -1.46a11.34 11.34 0 0 0 4.56 -3.16 58.28 58.28 0 0 0 0.64 -6.26c1.56 6.2 2 6.1 3.02 6.34 0.36 1.88 0.78 3.78 0.98 4.6 -3.32 2 -8.48 5.66 -10.24 9.06 -1.42 2.76 -0.34 5.14 3.16 5.14 4.8 0 12.92 -3.84 16.94 -6.7a8.64 8.64 0 0 0 3.38 -3.66 45.8 45.8 0 0 0 -0.32 -7.7 1.08 1.08 0 0 0 0.66 -0.44c2.28 -4.7 3.56 -38.3 6.66 -69.02l7.84 -0.12c1.28 16.3 5.76 54.22 10.44 68.64a0.96 0.96 0 0 0 0.58 0.54 64 64 0 0 0 1.24 9.54 8.54 8.54 0 0 0 4 3c4.4 2 13.14 4.44 17.86 3.54 3.46 -0.64 4 -3.2 2.18 -5.62 -2.34 -3.02 -8 -5.78 -11.7 -7.08 0 -0.74 0.1 -2.38 0.12 -4a1.16 1.16 0 0 0 0.78 -0.5c1.56 -2 3.34 -15.26 3.7 -17.86 3.12 -22.36 4.3 -40.4 5.04 -50.6l25.34 -0.32c0.88 12.66 1.74 46.1 3.6 55 0.5 2.44 7.2 2.3 9.58 1.52a2.12 2.12 0 0 0 1.74 -2.14c1.04 -7.86 -4 -46 -4.96 -54.52 10.54 -0.16 10.9 -0.1 11.22 -0.74 0.96 -2.04 1.4 -3.52 0.2 -7.5zM240 296.84c3.28 -1.12 16 0.4 19.1 2.44 1.5 1 0.24 5.28 -0.36 7l-1.68 -0.24c0.52 -1.68 0.98 -4 -0.52 -4.98 -2.48 -1.54 -12 -2.84 -14.7 -1.82 -1.6 0.62 -1.88 3.02 -1.9 4.74l-2.3 -0.22c0.16 -2.02 0.52 -6.26 2.36 -6.92zm15.58 9c-4.84 -0.66 -10 -1.3 -14.9 -1.8 0 -1.22 0.32 -3.5 1.48 -3.88 2.42 -0.78 11.58 0.78 13.62 2 0.8 0.56 0.22 2.78 -0.12 3.68zm-40 20.66c0 -4.3 4.68 -17.8 6.16 -21.76 6.42 -1.4 45.36 3.72 52.48 5.52 -2.26 5.36 -3.4 17.66 -4.1 22.88 -3.46 -0.36 -12.52 -1.4 -22 -2.54a14.74 14.74 0 0 0 0 -4.6c-0.2 -0.38 -0.56 -0.46 -1.04 -0.54a49.7 49.7 0 0 0 -5.4 -0.28 0.32 0.32 0 0 0 -0.3 0.22s-0.76 2.34 -1.26 4.24c-6.28 -0.76 -21.44 -2.54 -24.4 -3.14zm0.32 22.26c-0.58 -2.46 1.12 -17.14 1.58 -20.48 6.72 0.98 15.06 1.8 22.3 2.52 -0.14 0.7 -0.26 1.38 0 1.78a15.36 15.36 0 0 0 6.9 1.52c0.84 -0.24 1.08 -1.56 1.24 -2.46 8.62 0.86 17.34 1.7 21.38 2 -0.6 4.5 -2.3 17.6 -3.44 21.58 -4.1 0.42 -45.2 -3.76 -49.86 -6.46zm58.24 2.8a14.9 14.9 0 0 1 -6.52 3.28c2.64 -10.88 4.32 -37.48 7.8 -44.52 0.88 -0.22 2.28 0.62 2.5 2.7s-3.62 38.34 -3.64 38.54zm7.14 5.38s-0.64 -2.22 -1.24 -4.56a70 70 0 0 0 12.16 0.7c0 1.24 0 2.52 0.1 3.7 -3.46 0.92 -12 3.48 -15.26 3.62 3.94 -3.04 4.56 -2.76 4.38 -3.46zm-66.3 -142.14c-1.74 -17.76 -5.68 -30.28 -19.44 -41.62 -3.66 -3.02 -13.06 -5.34 -17.04 -6.36 -0.54 -2 -1.38 -4.7 -2 -6.6a11.66 11.66 0 0 0 3.84 -4.64 6.62 6.62 0 0 0 5.16 1.82 6.3 6.3 0 0 0 4.1 1.6c2 -0.3 2.66 -1.8 4.2 -2.3 0.5 -0.18 2 0.54 3.02 0.58 2.24 0 3.12 -2.5 1.06 -4.86a4.96 4.96 0 0 0 2.38 -0.8 4 4 0 0 0 1.14 -2c14 -0.22 79.84 -1.74 90 -3.72 0.28 0 0.18 0 0.42 0.16l-1.58 4.68a0.38 0.38 0 0 0 -0.2 -0.1c-0.46 -0.12 -7.1 1.58 -7.74 2.72a55.04 55.04 0 0 0 -9.24 5.16 52.74 52.74 0 0 0 -20.28 36.56 100.22 100.22 0 0 0 -0.34 18.98c0.84 8.52 2 13.56 8 19.88a6.22 6.22 0 0 0 2.4 1.44 28.64 28.64 0 0 0 6.36 4.4 22.6 22.6 0 0 0 -5.54 9.06c-24.84 0.44 -52.16 0.98 -58.34 1.12a58.5 58.5 0 0 0 -1.44 -6.24 73.7 73.7 0 0 0 5.88 -5.86c5.24 -6.34 5.98 -14.86 5.22 -23.06zm-36.64 42a0.74 0.74 0 0 0 -1.08 -0.3 34.14 34.14 0 0 1 -4.14 2.76c-0.2 0 -1.08 0.46 -1.08 0.26a9.62 9.62 0 0 1 3.04 -3.74c1.48 -1.04 2 -2.56 -0.74 -1.24a18.52 18.52 0 0 1 -6.32 2c-0.42 -2.42 7.84 -3.56 5.02 -5.74 -0.88 -0.68 -3.74 -1.82 -2.98 -2.82a9.8 9.8 0 0 1 2.8 0.72c3.24 1.2 3.42 1.72 3.84 1.26 0 0 2 -2.22 3.8 -4.12 2.16 1.7 5.5 4.16 7.72 5.78 -2.5 2.66 -7.74 7.22 -10.56 9.56a7.4 7.4 0 0 1 -1.28 0.7c-0.46 0.18 -0.44 0.24 -0.42 0a6.24 6.24 0 0 1 1.46 -2.72c0.4 -0.56 1.22 -1.84 0.92 -2.44zm7.26 -26c-0.7 0.92 -5.58 7.5 -5.82 7.86L176 235.24l4.82 -0.1a80.58 80.58 0 0 1 15.02 -18c0.26 -0.3 0.7 0.12 0.42 0.42 -0.76 0.94 -9.5 11.62 -10.66 13.14zm-8.78 -9.68c-0.94 -0.8 -2.56 -2.32 -4 -3.46a0.8 0.8 0 0 1 -0.18 -1.06c4.22 -6.6 15.24 -36 18 -44.36a15.88 15.88 0 0 1 6.76 4.84c-1.98 4.64 -20.34 43.5 -20.58 43.94zm-8.14 -82.46a9.7 9.7 0 0 0 -0.44 3.34 9.34 9.34 0 0 0 -2.88 0 8.98 8.98 0 0 0 -0.44 -2.94 1.52 1.52 0 0 0 -0.72 -0.62 17 17 0 0 0 -4.4 -0.82c-3.5 -0.3 -3.56 0 -3.16 -0.26 1.04 -0.72 0.78 -0.98 0.86 -1.86 0.32 -0.2 2.32 -0.18 3 -0.62a7.34 7.34 0 0 0 1.62 -1.3c0.38 -0.4 1.36 -1.64 1.08 -2.14 3.66 -0.98 3.28 -1.52 4.1 -3.12 0.9 1.78 0.5 2.18 4 3.14 -0.28 0.5 0.7 1.72 1.08 2.14a8.46 8.46 0 0 0 1.6 1.3c0.74 0.44 2.66 0.4 3.02 0.62 0 0.74 -0.14 1.04 0.52 1.6 -1.52 -0.06 -8.14 0.08 -8.84 1.54zm-14 5.74c0.86 -1.18 0.68 -0.88 -0.12 -6l0.3 -0.2a35.82 35.82 0 0 1 8.72 1.44 10.24 10.24 0 0 1 0 4 3.38 3.38 0 0 1 -4 3.3 5.72 5.72 0 0 1 -4.82 -2.54zM170 139.38a37.12 37.12 0 0 1 8.98 -1.38 8 8 0 0 1 0.96 0.6c-0.62 4 -0.8 4.52 -0.6 5.08a10 10 0 0 1 -2 2.26 6.28 6.28 0 0 1 -3.36 0.92 3.38 3.38 0 0 1 -4 -3.3 10.24 10.24 0 0 1 0.02 -4.18zm146.72 30.78a26.32 26.32 0 0 1 3.14 4.88c-0.64 2.52 -6.6 13.14 -8 15.78a7.6 7.6 0 0 0 -2.96 1.38 20.7 20.7 0 0 0 -3.5 6.52c-0.42 1.22 -0.96 3 0 3.8l-1.82 3.26c0.74 -4 1.08 -6.56 1.06 -6.32 1.06 -3.8 11.74 -42.72 12.32 -44.88 2.82 0.62 6.78 1.62 10.78 2.8 -3.02 2.94 -8.24 8.76 -10.9 11.82a0.74 0.74 0 0 0 -0.18 0.96zm3.28 20.4c0.12 1.84 1.8 2.74 3.62 2.88a16 16 0 0 1 -1.16 6.12c-3.46 -1.38 -3.48 -1.88 -4 -1.32 -0.18 0.22 -0.52 1.32 -0.66 1.56a12.38 12.38 0 0 1 -1.9 3.02c-0.62 0.6 -1.56 0.92 -1.6 0a13.1 13.1 0 0 1 1.38 -4.6c0.42 -0.84 -0.94 -1.36 -1.4 -0.48 -2.82 5.54 -6.1 7.3 -2.7 0l0.38 -0.78c0.58 -1.36 -1.04 -1.32 -1.38 -0.66a15.64 15.64 0 0 1 -2.8 4.44c-0.82 0.8 -1.88 1.18 -1.6 -0.32a20.78 20.78 0 0 1 3.42 -7.34c1.7 -1.36 8.4 -2.24 10.4 -2.52zm8.66 10.94c-0.6 -0.12 -1.22 -0.26 -1.84 -0.44a11.3 11.3 0 0 0 0.8 -8.86 2.18 2.18 0 0 0 0.58 -2.36h1.48c-0.36 3.44 -0.74 8.16 -0.98 11.66zm-1 -11.22c0.16 2.32 -5.88 2.3 -6.14 0.3 -0.34 -2.58 5.66 -2.32 6.18 -0.3zM263.06 234a10.82 10.82 0 0 1 0.86 -4.14 21.4 21.4 0 0 1 5.58 -7c0.58 -0.18 2.76 0.36 3.6 -0.28 0.44 -0.32 1.12 -0.7 1.68 -1.06s1.18 -1.18 2.36 -1.12 1.72 1.04 0.92 2.32 -3.14 2.68 -3.38 3.78c-0.38 1.78 3.14 2.48 5.78 4 2.14 1.24 2 2.3 0.54 2.34a17.28 17.28 0 0 1 -4.88 -1.06 0.74 0.74 0 0 0 -0.58 1.34c0.96 0.64 5.54 1.12 5.78 2.58 0.34 2.18 -3.88 1.14 -6 0.4l-1.14 -0.38a0.76 0.76 0 0 0 -1.02 0.76c0 0.64 0.5 0.64 1.88 1.12a10.6 10.6 0 0 1 4.14 2.42c0.44 0.62 0.24 1.36 -1.28 1.36 -4.24 -0.02 -14.04 -5.72 -14.84 -7.38zm30.52 -0.12a33.86 33.86 0 0 0 10.12 4.12c5.22 1.44 11.26 2.82 13.16 3.6 -0.16 1.42 -2.12 2.6 -3.6 3.12 -3.9 1.36 -8 0.28 -12.28 -0.72 -4.8 -1.08 -7.7 -1.74 -18.56 -6.76a2.42 2.42 0 0 0 -0.34 -3.12 1.76 1.76 0 0 0 1.24 -1.12c1.3 -3.78 -6.68 -5 -7.44 -6.28a19.52 19.52 0 0 1 2 -2.12c1.68 0.42 9.38 5.66 15.7 9.26zm1.64 -0.68c-5.3 -2.88 -14.16 -8.46 -16.62 -9.38 1.6 -2 0.7 -4 -0.94 -4.3a3.2 3.2 0 0 0 -2.74 0.82 4.94 4.94 0 0 1 -0.56 0.46 18.28 18.28 0 0 0 2 -7.58 155.38 155.38 0 0 0 -1.6 -17.72 0.3 0.3 0 1 0 -0.6 0c0.12 2.12 0.22 8.58 0.3 10.64 0.36 8.44 0.82 7.5 -0.22 11.42a39.84 39.84 0 0 1 -1.32 4.18c-0.3 0.24 -0.3 0.32 -1.02 0.36a17.14 17.14 0 0 0 -2.6 0.14 26.34 26.34 0 0 0 -4.12 4 12.94 12.94 0 0 0 -3.1 6.46 4.4 4.4 0 0 0 0 0.98 2.68 2.68 0 0 1 -0.72 -0.58c-5.76 -6.14 -6.84 -10.96 -7.62 -19.18a101.06 101.06 0 0 1 0.26 -18.72 51.5 51.5 0 0 1 17.58 -33.74c2.52 2 10.58 8.36 11.6 9.2 -1.14 0.98 -4.66 4 -4.3 5.42 0.14 0.58 22.64 32.26 22.8 32.46 0.42 9.12 0 16.14 0.78 24.72 -2.46 -0.06 -4.88 -0.08 -7.24 -0.08zm-10.9 -62.94s-9.84 -7.44 -12.24 -9.2a46 46 0 0 1 10 -6c1.82 5.18 17.14 47.68 17.2 47.8 -4 -5.6 -19.18 -26.82 -19.3 -27a6 6 0 0 1 1.26 -1.82c2.44 -2.7 3.2 -2.78 3.2 -3.32a0.52 0.52 0 0 0 -0.12 -0.48zm13.44 -4.42c0.54 0.18 0 -0.9 -2.58 12.58 -0.4 2 -0.72 4 -0.94 5.52 -0.46 -1.22 -8 -22 -9.72 -26.8 0.96 1.06 8.58 8.84 10 8.84 0.42 0 0.76 -0.32 2.42 -1.64 0.2 0.7 0.36 1.3 0.82 1.48zm9.84 17.7c-0.82 -4.5 -2.66 -12.86 -3.66 -17.32a0.76 0.76 0 0 0 0.7 -0.62l0.34 -1.74a11.06 11.06 0 0 1 1.2 0.92 0.88 0.88 0 0 0 1.14 0c1.16 -1.12 4.86 -4.88 6.94 -7.3 0.6 -0.76 1.28 -3.9 -6.66 26.04zm-13.12 -19.2a107.36 107.36 0 0 1 -11.16 -10.5 34.32 34.32 0 0 1 6.36 -2.6c0.2 0.24 8.42 6.52 10 8.88 -0.1 0.12 -3.14 2.7 -5.2 4.2zM206 258a35.3 35.3 0 0 0 -0.5 -6.84c5.04 0 29.28 -0.38 57.74 -0.68 -1.4 6 -0.54 12.14 1.04 24.72l-59.28 0.52c0.64 -6.12 0.58 -12.36 1 -17.72zm102 16.76h-6.42c0.3 -3.18 0.56 -5.72 0.6 -6.22l5.72 0.44c-0.22 1.58 -0.18 3.5 -0.08 5.7zm70 -24.48a64.44 64.44 0 0 1 4.34 9.28c1.82 4.52 3.76 9.82 5.08 14.12 -4.66 0.14 -22 0.36 -44.24 0.62 0.76 -10.94 1.28 -16 -1.8 -24.62 7.24 -0.04 34.3 -0.36 36.62 0.6zm-40.9 -25.34c-0.52 6 -0.22 9.3 -3.78 10.22 -0.4 0 -1.66 -1.34 -30 -1.88 0.28 -9.4 -0.14 -14.46 -0.58 -24.42 0.28 -0.42 1.66 -3.08 3.3 -5.86a2.78 2.78 0 0 0 2.56 -0.86 1.84 1.84 0 0 0 1 2c1.24 0.48 2.42 -0.4 3.3 -1.38a1.82 1.82 0 0 0 0.92 1.86c2.38 1.02 3.86 -1.88 4.98 -4.2 0 -0.14 0.22 -0.64 0.36 -1.04 0.86 0.38 2 0.82 3.14 1.24a3.08 3.08 0 0 0 4 1.16c0.78 0.2 1.56 0.34 2.32 0.46 -0.24 3.86 -0.36 4 0.32 4.42a48.18 48.18 0 0 0 9.1 2.76c-0.38 7.38 -0.82 14.84 -0.88 15.52zm27.36 -48.16c9.34 11.04 7.08 27.86 -2.38 30.96a40.76 40.76 0 0 1 -16.46 1.26 61.66 61.66 0 0 1 -15.76 -3.58c0 -2 0.4 -8.68 0.8 -13.56a46.52 46.52 0 0 1 0.66 -5.66c2.4 -2.98 12.78 -0.4 16.46 0.66a0.3 0.3 0 0 0 0.18 -0.58c-4.28 -1.36 -14.56 -4.18 -17.46 -0.76a12.78 12.78 0 0 0 -0.76 3.62H328c-1.6 -2.34 -6.94 -2.58 -7.78 0.38a60.78 60.78 0 0 0 -6.6 0.86c1.2 -2.12 8 -14 7.72 -15.64a21.7 21.7 0 0 0 -3.04 -5.02c2.5 -2.84 8.32 -9.36 11.12 -12 11.3 3.54 27.42 9.96 35.1 19.06zM309.38 152a16.22 16.22 0 0 1 6.12 1.74 95.34 95.34 0 0 1 -8.84 9.5c-1.2 -0.86 -3.68 -2.46 -4.74 -3.34 0.68 -0.7 7.02 -7.46 7.46 -7.9zm3.24 -11.44a9.04 9.04 0 0 1 -6.12 5.1 0.76 0.76 0 0 0 -0.52 0.96s1.18 3.82 1.7 6l-6.9 6.38a57.1 57.1 0 0 0 -9.52 -7.52l1.74 -5.46c0.26 -0.78 -0.78 -0.74 -3.02 -4.32 -1.86 -2.94 -2 -4.58 -3.16 -8.9a0.42 0.42 0 0 0 -0.2 -0.28 10.32 10.32 0 0 1 -3.7 -4.16 2.62 2.62 0 0 1 1.1 -3.06c1.18 -0.9 2.66 0.3 3.5 1.52a0.3 0.3 0 0 0 0.56 -0.16c0 -1.48 -0.14 -2.84 0 -4.22a11.2 11.2 0 0 1 8 -10 21.14 21.14 0 0 1 16 1.68c2.6 1.58 2.82 2.76 2.98 5.78 0 0.56 0.26 0 -2.18 0.16a6.14 6.14 0 0 0 -5.82 4 4.76 4.76 0 0 0 -3.2 0.26c-0.64 -3.24 -3.72 -4 -7.02 -4a6.94 6.94 0 0 0 -6 3.08 6 6 0 0 0 0.22 6.82c2.78 3.22 11.84 3.1 12.5 -1.32 1.28 -5.3 -0.98 -2.76 3.22 -3.54a6 6 0 0 0 1.06 4.6 8 8 0 0 0 6.74 2 43.68 43.68 0 0 1 -1.96 8.58zm-9.9 -11.7c-0.86 3.6 -8.86 2.84 -10.78 0.5a4.48 4.48 0 0 1 0 -5.08 5.6 5.6 0 0 1 4.8 -2.44c5.68 -0.26 6.66 2.3 5.98 7zm15.6 -0.4c-0.68 3.44 -7.78 2.92 -9.56 0.64a4.62 4.62 0 0 1 -0.24 -4.86 4.74 4.74 0 0 1 4.24 -2.54c5.1 -0.34 6.04 2.14 5.56 6.74zm-186.2 -85.16c10.62 -2.84 153.66 -0.42 159.9 0.98 2.82 3.16 1.58 53.84 1.5 57a6.22 6.22 0 0 0 -2.2 0.58c-1.42 0.72 -3.56 2 -3.1 3.56a6.56 6.56 0 0 0 -3.46 1.38c-1.58 1.06 -0.76 2 -0.74 2.5a1.28 1.28 0 0 0 -0.94 0.2 7.78 7.78 0 0 0 -2.58 3.32c-0.44 1.4 0.42 2.32 1.64 3.12a4.44 4.44 0 0 0 -0.96 2c-0.26 1.64 0.62 2 0.68 2.8s-0.76 1.48 -0.64 3.2a2.54 2.54 0 0 0 0.5 1.5 2.72 2.72 0 0 0 0.72 0.52c-1.58 2.5 1.12 5.54 3.48 7.28 1.08 4.58 1.3 7.04 4.48 11.22 -12 2 -72.98 3.4 -88.8 3.68 0.24 -3.06 -1.84 -4.9 -4 -7.02a3.5 3.5 0 0 0 0.86 -1.72 7.36 7.36 0 0 0 -1.78 -4c-0.54 -0.76 -1.78 -0.86 -2.66 -1 -0.48 -1.2 -0.52 -2.96 -2.16 -4 -1.02 -0.66 -2.36 -0.84 -3.02 -1.5s-0.52 -2.32 -1.26 -3.44c-1.32 -2 -3.28 -1.44 -3.7 -3.72a4.96 4.96 0 0 0 -0.84 -2.46 12 12 0 0 0 -7.3 -3.82c-0.32 0 -1.3 0 -2.28 0.1a5.24 5.24 0 0 0 -6.16 -0.16 5.28 5.28 0 0 0 -6.2 0.14h-1.16a6.24 6.24 0 0 0 -1.12 0 12 12 0 0 0 -7.3 3.82 5.1 5.1 0 0 0 -0.84 2.48c-0.42 2.28 -2.4 1.76 -3.68 3.72 -0.74 1.1 -0.58 2.74 -1.28 3.42 -1.1 1.12 -3.44 0.7 -4.52 3.4 -0.28 0.7 -0.38 1.44 -0.66 2.12 -0.9 0.14 -2.12 0.24 -2.66 1 -1.08 1.52 -2.44 3.52 -1.34 5.06l0.44 0.62a33.14 33.14 0 0 0 -2.34 2.42c-3.68 -19.6 -7.4 -99 -2.52 -100.3zm26.66 124.22c2.16 -8 2.2 -7.66 1.84 -7.8a10.38 10.38 0 0 1 -5.16 -6.16c0.84 -2.38 -0.9 -3.4 -0.9 -4.32a11.2 11.2 0 0 1 0.66 -2.34 6.66 6.66 0 0 0 4.44 1.72c3.68 0.16 5.36 -1.86 5.66 -5.44l1.22 0.18a15.54 15.54 0 0 0 -0.52 1.82c-0.22 1 -0.68 4.98 0 5.64a2.5 2.5 0 0 0 2.78 0 0.3 0.3 0 0 0 -0.2 -0.58 4 4 0 0 1 -1.42 -0.16c0 -0.38 0.2 -4.3 0.2 -4.78v-2h1.1A4.9 4.9 0 0 0 174 148.28a7.64 7.64 0 0 0 4.18 -1.36 12.42 12.42 0 0 0 1.14 -1.16c-0.28 0.9 0.76 2.5 0.76 3.5s-2 2 -0.72 4.76a10.38 10.38 0 0 1 -4.18 5.2 0.74 0.74 0 0 0 -0.36 0.94c0.32 0.82 0.68 1.88 1.04 2.94 1.52 4.74 1.24 4.88 1.88 5.06l6.38 1.7C182 176 175.1 178.74 168.48 179.1s-13 -4 -16.74 -9.54c7.3 -1.9 6.94 -1.74 7.04 -2.04zm-12.36 3.86c3.88 8.76 18 37.76 23.02 45.06a1 1 0 0 1 -0.2 1.34c-1.84 1.48 -3.32 2.7 -4.72 3.74C162.4 218 142.68 178.18 141 174.56a32.86 32.86 0 0 1 5.42 -3.18zM146 237.54a94.84 94.84 0 0 1 -4.36 -8.64c-0.16 -0.4 0 0 0.52 -6.74 0.28 -4 0.84 -14.96 0.7 -19.14a0.32 0.32 0 0 1 0.62 0 124.86 124.86 0 0 1 0.46 12.86c0 4.14 -0.44 9.34 -0.84 12.64 1.38 3.08 3.24 6.9 4.32 9.06a41.28 41.28 0 0 0 15 -3.16 70 70 0 0 0 6.78 -3.36l1.46 1.2c-0.16 -3.22 -0.16 -11.84 -0.14 -12.2 0 -1.52 0.22 -3.2 0.32 -4.22 -4 -5.68 -20.1 -36.74 -23.8 -44.64 1.02 -0.36 2.38 -0.78 3.88 -1.22A22.34 22.34 0 0 0 164.58 180c-0.22 2.66 -0.2 6.78 -0.14 8.84a53.24 53.24 0 0 0 0.52 6.2 0.3 0.3 0 1 0 0.6 0A62.88 62.88 0 0 0 166 188c0 -0.38 0 -5.46 -0.2 -7.76a16.12 16.12 0 0 0 3.08 0.12 108.66 108.66 0 0 0 0.38 19.06 0.3 0.3 0 0 0 0.6 0 134.3 134.3 0 0 0 0 -19.1c0.9 0 1.76 -0.18 2.56 -0.32 -0.22 2.64 -0.2 6.74 -0.14 8.8a54.34 54.34 0 0 0 0.52 6.2 0.32 0.32 0 0 0 0.62 0 62.46 62.46 0 0 0 0.28 -7c0 -1.1 0 -5.54 -0.22 -8.12 6.56 -1.46 10.6 -5.32 12 -9.54a41.54 41.54 0 0 1 3.84 1.6c-2.54 7.42 -14.2 38.3 -17.88 43.82a80.82 80.82 0 0 1 0.48 11.62 51.88 51.88 0 0 1 -0.36 5.76l7.68 6.4c-0.72 1.24 -1.64 3.12 -0.94 4.36a10.1 10.1 0 0 0 1.58 1.48l-3.66 3.64a35.02 35.02 0 0 0 -5.06 -2c-0.68 -0.18 -1.54 -0.34 -2 0.18a1.82 1.82 0 0 0 -0.14 2.52 11.54 11.54 0 0 0 2.98 1.94c-1.64 1.02 -6 2.28 -5.32 5.26 0.44 1.76 3.22 0.96 4.9 0.36 -0.86 1.16 -1.48 2.72 -0.24 3.48s2.94 -0.38 4 -1.1c-0.86 1.42 -1.22 3.52 0.38 3.66a4.86 4.86 0 0 0 2.82 -1.22A126.14 126.14 0 0 0 188.8 252l2.32 1.68a0.72 0.72 0 0 0 0.9 0l2.14 -1.7 1.54 1.3c0.66 2.46 -4.9 7.42 -6.96 8.9a203.14 203.14 0 0 1 -18.54 12.8c-2 1.18 -5.22 3.66 -7.56 3.36 -7 -0.94 -31.08 -34.64 -31.16 -42.82a76.92 76.92 0 0 0 14.52 2.02zm-32 15.24 17.38 -0.34c-1.3 7.68 1.24 16.48 3.06 23.32 -18 0 -30.44 -0.32 -33.42 -0.78 2.98 -8.22 11.24 -21.54 12.98 -22.2zm1.4 84.42s-0.1 0 -0.16 0.14c-1.66 1.12 -7.68 0.68 -8 0 -1.32 -2.34 2.7 -40.98 3.78 -52.7l8.7 0.16c-2.18 25.3 -3.06 46.06 -4.38 52.4zm50.6 14.64a9.8 9.8 0 0 0 -1.36 0.8c-8.22 5.4 -12.94 9.84 -16 7.8 2 -4 4.42 -7.76 4.62 -9.18 1.28 -8.94 0.92 -22 0.5 -31.12 -0.74 -16.42 -1.3 -17.82 -0.22 -22.74a50 50 0 0 0 7.86 -4l4.2 8c1.32 7.4 3.36 18.12 5.08 26 -1.2 6.86 -3.42 18.92 -4.68 24.44zm21.74 -49.72c0.54 11.68 -0.76 27.06 2.34 40.14 0.36 1.46 3.22 5.14 5.76 9.1 -2.94 2.68 -8.16 -1.26 -17.68 -6 -0.62 -0.3 -1.12 -0.52 -1.44 -0.64 -3.54 -10.76 -7.9 -31.8 -10.26 -43.44 0 -0.2 -0.16 -0.34 -4.48 -8.14 4.54 -3.04 10.64 -8.2 15.66 -7.84a9.02 9.02 0 0 1 6.78 4.56 32 32 0 0 1 3.3 12.26zm5.48 -6.4c-6.82 -1.28 -7.2 -11.38 -15.48 -12 -6.58 -0.46 -13.6 6.7 -18.96 9.6 -4.16 2.26 -11.5 5.64 -16 4.7a3.8 3.8 0 0 1 -2.38 -1.36c-0.72 -1 -2 -8.92 -2.64 -12.32 -2.58 -13.08 -9.3 -26 -3.6 -38.16a135.84 135.84 0 0 0 8.64 13.58c3.22 4.5 14.26 19.18 19.74 19.86 2.92 0.36 6 -2.26 8.36 -3.62a194 194 0 0 0 18.42 -13.22c2.32 -1.74 8 -6.98 7 -9.86a0.2 0.2 0 0 0 0 -0.14l-1.5 -1.3c2 -1.68 5.08 -4.18 8 -6.74a47.6 47.6 0 0 1 1.82 13.06c-0.54 8.72 -0.14 20.24 -3.56 28.18 -1.54 3.16 -4.54 10.36 -7.88 9.74zm143.46 63.2a118 118 0 0 1 -15.68 -0.82c-0.28 -1.7 -0.56 -3.68 -0.8 -5.34a47 47 0 0 0 12 -0.7c-0.16 2.2 -0.36 4.22 -0.36 4.22 -0.02 0.72 0.52 0.32 4.82 2.64zm44.52 -32.56c0 1.18 0.64 10 0 11.02a12.14 12.14 0 0 1 -7.56 0.26c-0.1 0 -0.64 -0.26 -0.66 -0.36 -1.56 -7.4 -3.06 -40.84 -4.46 -54.72l8.68 -0.12c0.8 7.82 3.78 40.7 3.98 43.92z" stroke-width="1"></path><path d="M144 92.78c0.14 0.64 0.28 1.12 0.7 1.36 2 1.08 27.18 2.12 30.68 0.96 0.7 -0.22 0.92 -1.16 1.06 -1.88 1.14 -6 0.54 -26.78 -0.16 -33.08 -0.12 -1.06 -0.24 -2.38 -0.8 -2.66 -1.6 -0.78 -8.98 -1 -10.76 -1.04A4.46 4.46 0 0 0 160 51.62a4.28 4.28 0 0 0 -4.86 4.76 49.7 49.7 0 0 0 -10.54 0.86c-2.58 1.1 -1.48 28.38 -1.18 32a35.2 35.2 0 0 0 0.58 3.54zm0.58 -33.9c0 -0.16 0.24 -1.02 0.38 -1.08a46.98 46.98 0 0 1 10.48 -0.52c1.3 3.88 8 4.92 9.12 0.26a70.54 70.54 0 0 1 10.12 1.04c0.72 2.72 1.6 30.72 0 35.14 -3.86 0.98 -26.86 0 -29.2 -0.66a15.04 15.04 0 0 1 -0.64 -4c-0.6 -5.84 -1.44 -24.7 -0.3 -30.18zM250 66.42a1.24 1.24 0 0 0 0.82 0.36 83.62 83.62 0 0 0 13.64 0.28 1.24 1.24 0 0 0 0.78 -0.98 46.36 46.36 0 0 0 -0.28 -12.74 0.74 0.74 0 0 0 -0.44 -0.4 64.12 64.12 0 0 0 -14.14 0.16c-1.36 0.4 -1.24 12.26 -0.38 13.32zm0.6 -12.74c0.2 0 0.3 -0.26 6.78 0 1.12 0 5.3 0.26 6.42 0.5a64.5 64.5 0 0 1 0 11.46 108.34 108.34 0 0 1 -12.86 -0.22c-0.38 -1.84 -0.94 -10.04 -0.36 -11.74zm19.92 13.24a1.16 1.16 0 0 0 0.82 0.36 83.62 83.62 0 0 0 13.64 0.28 1.24 1.24 0 0 0 0.78 -0.96 47.3 47.3 0 0 0 -0.28 -12.76 0.8 0.8 0 0 0 -0.44 -0.4 64.12 64.12 0 0 0 -14.14 0.16c-1.34 0.4 -1.22 12.26 -0.38 13.32zm0.6 -12.74c0.2 0 0.3 -0.26 6.78 0 1.12 0 5.3 0.24 6.42 0.48a64.72 64.72 0 0 1 0 11.48 113.02 113.02 0 0 1 -12.86 -0.24c-0.36 -1.9 -0.98 -10.02 -0.34 -11.72zm-59.24 72.76c0.14 0.72 0.28 1.38 0.76 1.66 2 1.24 19.52 1.78 22.48 1.84a42.7 42.7 0 0 0 0.54 4.42c0.16 0.78 0.3 1.38 0.76 1.66 2.36 1.4 32.94 2.76 37.14 1.24 0.78 -0.3 1.02 -1.48 1.16 -2.34 1.56 -8.76 0.48 -42.8 -0.62 -46.14a1.02 1.02 0 0 0 -0.44 -0.62c-2 -1.02 -10.94 -1.34 -13.12 -1.4 0 -0.82 -0.24 -2 -1.08 -2.14a86 86 0 0 0 -8.6 0 27.58 27.58 0 0 0 -0.54 -3.86 1.02 1.02 0 0 0 -0.44 -0.62c-1.82 -0.98 -10 -1.3 -12.18 -1.38 0 -0.9 -0.22 -2.22 -1.08 -2.32a103.86 103.86 0 0 0 -12.24 0.38c-0.7 0 -0.86 1.16 -0.88 1.86a46 46 0 0 0 -10.86 1.02c-1.86 0.88 -2 17.06 -2 19.12 -0.02 6.1 0.16 22.26 1.24 27.62zm22.68 -24.58c-0.92 0 -15.08 -0.12 -16.4 -0.28a27.36 27.36 0 0 1 -0.66 -10.78s0.16 -0.56 0.28 -0.58c1.72 -0.36 15.82 0.22 17.58 0.3a96.58 96.58 0 0 0 -0.8 11.34zm38.3 -12.64c1.04 3.68 1.9 41.48 0 46.66 -4.22 1.24 -31.18 0.16 -35.68 -1.04 -1.26 -3.28 -1.72 -24 -1.74 -28 0 -1.48 -0.14 -18 1.2 -18.56a38.48 38.48 0 0 1 9.68 -0.76c0 0.7 0.16 1.68 0.76 2a100.2 100.2 0 0 0 12.3 0.38c0.9 0 1.14 -1.08 1.16 -2a73.5 73.5 0 0 1 12.32 1.32zm-60 -8.86a41.84 41.84 0 0 1 10.62 -0.76c0 0.62 0.18 1.52 0.74 1.8a107.3 107.3 0 0 0 12.32 0.36c0.84 0 1.08 -0.94 1.14 -1.78a68.84 68.84 0 0 1 11.36 1.32 29.82 29.82 0 0 1 0.42 3.5c-1.14 0 -2 0.16 -2.26 0.2 -0.68 0 -0.84 1.06 -0.88 1.72a42.32 42.32 0 0 0 -10 1c-0.44 0.22 -0.64 0.92 -0.78 1.42 -3.86 0 -15.8 0 -18 0.48s-1.42 10.76 -0.58 12.54a0.94 0.94 0 0 0 0.66 0.6c1.74 0.44 13.7 0.6 16.78 0.6v5.14a75.7 75.7 0 0 0 -17.86 0.2 0.32 0.32 0 0 0 0 0.62 100.4 100.4 0 0 0 17.84 -0.16v7.36a80 80 0 0 0 -18 0 0.3 0.3 0 1 0 0 0.6c2.6 0.14 2.52 0.28 7.04 0.36a70.36 70.36 0 0 0 10.98 -0.34c0.26 12 0.7 11.26 0.32 11.24 -4 0 -17.52 -0.48 -21.42 -1.54 -1.3 -3.86 -2.64 -45.34 -0.4 -46.48zm135.28 -2.5c16.52 -1.42 22.98 -10 23.88 -25.8a21.14 21.14 0 0 0 -8 -17.42c-4.1 -3.26 -10 -5.68 -18.62 -6.12a23.22 23.22 0 0 0 -19.4 7.64 29.3 29.3 0 0 0 -6.68 20c0.54 12.98 15.54 22.78 28.82 21.7zM329.84 40a18.54 18.54 0 0 1 15.58 -6.34 25.52 25.52 0 0 1 15.36 4.82 17.38 17.38 0 0 1 6.8 14.2c-0.82 14.12 -7.66 20.24 -20 21.1 -10.48 0.8 -22.62 -7.14 -23.1 -17.48a24.18 24.18 0 0 1 5.36 -16.3z" stroke-width="1"></path><path d="M331.64 52.14a96 96 0 0 0 14.94 5.26 0.76 0.76 0 0 0 0.94 -0.72c0 -14.42 -0.16 -11.66 -0.42 -17.84a0.32 0.32 0 0 0 -0.62 0c0 2.52 -0.4 6.22 -0.46 16.82 -8.64 -2.44 -12.52 -3.46 -14.14 -4.1a0.3 0.3 0 0 0 -0.24 0.58zM12.66 282.5c-0.26 0.12 -0.56 0.2 -0.56 0.46a0.32 0.32 0 0 0 0.5 0.24c2.4 -1.1 47.78 -14.82 54.98 -20.54 0.3 -0.24 0.32 -0.68 0.34 -1.2 0.4 -5.9 -5.04 -188.72 -5.68 -190.58a1.22 1.22 0 0 0 -0.62 -0.6c-4.38 -2.42 -48.36 -16.56 -50.5 -18.98a0.3 0.3 0 0 0 -0.46 0.4c2.28 2.64 46.68 17.42 50.46 19.68 0.3 2.38 5.68 188.92 5.52 190.44 -7.18 5.46 -49.9 19.08 -53.98 20.68z" stroke-width="1"></path><path d="M85.18 55.36c-3.48 -8.52 -72.54 -7.82 -74.44 -7.06a0.32 0.32 0 0 0 0 0.58 2.78 2.78 0 0 0 0.7 0c7.22 -0.76 62.76 0 71.68 6 1.08 0.74 1.28 0.76 1.76 7.62 2.58 36.76 3 199.86 0.28 218.74 -0.3 2 -0.32 2 -1.3 2.46 -9 3.88 -64.86 2.8 -73.48 2.84a0.3 0.3 0 1 0 0 0.6c9.9 0 64.58 1.7 74 -2.3 1.36 -0.58 1.7 -0.98 2 -3.42 3.62 -23.94 1.88 -218.48 -1.2 -226.06z" stroke-width="1"></path><path d="M54.82 172a8 8 0 0 0 -3.16 -7.36 6.36 6.36 0 0 0 -9.54 1.84 8 8 0 0 0 -0.94 4.6c0.82 8.06 12.54 6.78 13.64 0.92zm-11.42 -4.76c2.48 -4.3 8.78 -2.62 10 2.66 1.62 7 -10.58 8.86 -10.92 1.1a6.98 6.98 0 0 1 0.92 -3.76zM260.36 98c-2.72 0 -16 -0.24 -18.62 0.4 -0.48 0.12 -0.36 0.68 0 0.64s2.54 0 5.62 0.24c0.22 0 9.88 0.24 14 0.12 1.14 0 5.6 -0.28 6.22 -0.32a0.3 0.3 0 0 0 0 -0.6c-0.84 -0.06 -4.72 -0.48 -7.22 -0.48zm0.1 7.62c-2.72 0 -16 -0.24 -18.6 0.4 -0.5 0.12 -0.36 0.7 0 0.64s2.56 0 5.64 0.24c0.22 0 9.88 0.24 14 0.14 1.14 0 5.6 -0.3 6.22 -0.34a0.3 0.3 0 0 0 0 -0.6c-0.86 -0.1 -4.76 -0.38 -7.26 -0.48zm-0.16 7.98c-2.72 0 -16 -0.26 -18.6 0.4 -0.5 0.12 -0.36 0.68 0 0.62s2.56 0 5.64 0.24c0.22 0 9.88 0.24 14 0.14 1.14 0 5.6 -0.28 6.22 -0.34a0.3 0.3 0 0 0 0 -0.6c-0.88 -0.06 -4.76 -0.38 -7.26 -0.46zm-0.1 7.94c-2.72 -0.1 -16 -0.24 -18.62 0.4 -0.48 0.12 -0.36 0.68 0 0.64s2.54 0 5.64 0.22c0.2 0 9.88 0.26 14 0.14 1.14 0 5.6 -0.28 6.22 -0.32a0.3 0.3 0 0 0 0 -0.6c-0.86 -0.02 -4.74 -0.4 -7.24 -0.48zm-18.2 -14.9s0 0.04 0 0zm-101.64 139.1a16.56 16.56 0 0 0 2.86 4.74c0.8 0.68 6.22 -0.6 7.2 -0.92 0.66 -0.2 1.56 -0.5 1.58 -1.16 0 -1.18 -4 -6.26 -4.24 -6.48a0.3 0.3 0 0 0 -0.28 -0.12 31.76 31.76 0 0 0 -7.2 0.98c-0.86 0.48 -0.28 2.04 0.08 2.96zm7 -3.3c0.74 1.24 2.6 4.34 3.14 5.6a57.14 57.14 0 0 1 -6.44 1.16 17.22 17.22 0 0 1 -2.86 -5.38 60 60 0 0 1 6.16 -1.38zm4.4 12.76a0.3 0.3 0 0 0 -0.46 0.4 90.66 90.66 0 0 0 12 15.08c0.26 0.28 0.7 -0.12 0.44 -0.42a116.14 116.14 0 0 0 -11.98 -15.06zm7.94 -12.28a2 2 0 0 0 1.62 0.74c0.22 -0.16 0 -1.12 -0.32 -1.56a2.3 2.3 0 0 0 -1.76 -1c-0.22 0.16 -0.2 1.08 0.46 1.82zm8.72 -87.2a4.94 4.94 0 0 0 0.78 0c0.66 0 2 -0.76 1.84 -1.18s-2.46 -0.28 -2.66 -0.28 -2.48 0 -2.6 0.34 1.58 1.12 2.64 1.12zM160 144.1h1.5c0.12 0 -0.34 -1.1 -1.2 -1.42 -1.4 -0.68 -3.1 0.52 -0.3 1.42zm13.56 -0.36a3.26 3.26 0 0 0 1.56 -1.06c0 -0.5 -1.1 -0.72 -1.86 -0.46s-1.34 1.18 -1.2 1.42a2.26 2.26 0 0 0 1.5 0.1zM302 135.6a5.12 5.12 0 0 0 2.88 0.26 1.1 1.1 0 0 0 0.78 -0.72 18.82 18.82 0 0 0 0.66 -6c-0.22 -3.02 -0.82 -2.98 -1.04 -1.32 0 0.46 -0.16 1.08 -0.26 1.76 0 0 -0.28 2.74 -0.62 5.1a5.06 5.06 0 0 1 -2.26 0.4 0.3 0.3 0 0 0 -0.14 0.52zm-4.44 -8.48a1.06 1.06 0 0 0 -1.08 0.94c0 0.7 0 0.66 -0.18 1.72a1 1 0 0 0 2 0.18c0.1 -0.9 0.16 -1 0.2 -1.76a1 1 0 0 0 -0.94 -1.08zm15.04 -0.26a1.04 1.04 0 0 0 -1.06 0.96c0 0.66 0 0.7 -0.14 1.7a0.98 0.98 0 0 0 0.92 1.08 1 1 0 0 0 1.06 -0.92c0 -1.04 0.12 -0.94 0.16 -1.78a1 1 0 0 0 -0.94 -1.04zm-6.5 12.3a4 4 0 0 0 -1.8 0c-1.86 0.3 -3.18 1.8 -2.92 2.16s1.84 -0.46 3.16 -0.68a8 8 0 0 1 1.28 0c1.58 0 1.64 0.34 1.82 0s-0.98 -1.28 -1.54 -1.48z" stroke-width="1"></path></g></svg>