<svg xmlns="http://www.w3.org/2000/svg" viewBox="0 0 400 400" id="Job-Application-2--Streamline-Milano" height="400" width="400"><desc>Job Application 2 Streamline Illustration: https://streamlinehq.com</desc><g fill="#000000"><path d="M155.18 111.78a22 22 0 0 1 -2.58 2 0.44 0.44 0 1 0 0.5 0.74 18.72 18.72 0 0 0 3.02 -2c0.86 -0.9 0.18 -2 -0.26 -2.82 -1.56 -2.66 -2 -3.24 -4.26 -6.8a0.52 0.52 0 0 0 -0.88 0.54 56.12 56.12 0 0 1 4.46 8.34zM142.8 127.6a0.56 0.56 0 0 0 -0.56 -0.98A13.42 13.42 0 0 1 125.2 122a0.48 0.48 0 0 0 -0.84 0.48 13.52 13.52 0 0 0 18.44 5.12zm-7.32 -34.18a0.72 0.72 0 0 0 -1.42 0 38 38 0 0 0 0.14 4.86 0.92 0.92 0 0 0 1.82 -0.22c-0.02 -0.8 -0.46 -3.82 -0.54 -4.64zm28.98 -1.32a0.7 0.7 0 0 0 -1.4 0v6a0.92 0.92 0 0 0 1.8 -0.22c0.08 -0.54 -0.42 -4.88 -0.4 -5.78zm0.12 -9.82c-1.2 -0.3 -1.62 1.58 -0.44 1.78a3.76 3.76 0 0 1 3.04 3.68 0.7 0.7 0 0 0 1.38 0 5.42 5.42 0 0 0 -3.98 -5.46zm-30.4 2.04a5.6 5.6 0 0 0 -4.52 4.5 0.7 0.7 0 0 0 1.38 0.3 4.14 4.14 0 0 1 3.5 -3.02 0.9 0.9 0 0 0 -0.36 -1.78zm109.24 226.94 -5.82 0.48c0.84 -1.82 1.7 -3.64 2.52 -5.44a0.3 0.3 0 0 0 -0.54 -0.28c-1.06 2 -2.14 3.88 -3.24 5.84 -10.7 0.88 -38.9 2.16 -42.64 2.2a0.64 0.64 0 0 0 0 1.28c12.3 0 37.72 -1.9 42 -2.24 -2 3.4 -6 10 -6.58 11.26 -3.06 0 -30.6 0.34 -33.88 0.28a0.62 0.62 0 0 0 0 1.24c13.26 0.34 23.5 0.28 33.08 -0.18l-2.74 4.3c-5.18 -3.18 -12.96 -1.46 -14.78 4.66a47.2 47.2 0 0 1 -6.88 -4c-0.3 -0.2 -0.66 0.22 -0.38 0.46a56.68 56.68 0 0 0 6.82 5.56c-1.1 8 6.74 13.22 14.14 10.66a9.7 9.7 0 0 0 5.62 -5.32 11 11 0 0 0 -2.3 -10.24c1.04 -2 2 -4.12 3.12 -6.2 2.9 -0.14 8.56 -0.44 11.48 -0.78a0.44 0.44 0 0 0 0 -0.86c-2.74 0 -8.72 0.28 -10.8 0.36 0.12 -0.28 4.22 -8.72 5.44 -11.32 1.82 -0.2 4.18 -0.46 6.5 -0.78a0.46 0.46 0 0 0 -0.14 -0.94zM220.46 338c-2.26 -0.56 -7.34 -2.42 -8.54 -2.86 1.68 -5.6 8.36 -6.96 13.02 -4.16 -1.42 2.28 -2.94 4.6 -4.48 7.02zm-8.94 -0.58a58.28 58.28 0 0 0 10.2 5.34 0.36 0.36 0 0 0 0.38 -0.14c1.6 -2.98 3.28 -6.18 5.16 -9.8a9.32 9.32 0 0 1 2 8.24c-3.26 9.54 -18.46 6.58 -17.74 -3.62zm21.02 -121.66c9.2 0 9.4 -0.16 9.42 -0.54 0 -1.34 -0.28 -42.44 -1.4 -69.3a0.58 0.58 0 0 0 -0.5 -0.82c-3.84 -0.14 -55.16 0.42 -59.56 0.56 -0.3 0 -0.92 0.38 -0.94 0.82 -0.12 9.38 -0.74 64.56 -0.72 68.34 0 0.26 0.36 0.64 0.62 0.62 3.64 -0.08 47.2 0.32 53.08 0.32zm7.02 -69.5c0.22 5.86 1.18 66.3 1.24 68.3 -2.88 -0.18 -5.78 -0.2 -8.64 -0.22 0.5 -3.74 1.06 -6 0.42 -8.54a4.34 4.34 0 0 0 5.28 -2.88 0.3 0.3 0 0 0 -0.42 -0.36c-2.24 1.06 -4.3 0 -6.46 -2.8a14 14 0 0 1 -1.68 -2.88 7.3 7.3 0 0 1 -0.92 -3.74c0 -1.04 0.36 -2.14 0.86 -2.24s1.42 0.66 1.38 1.52a1.68 1.68 0 0 1 -0.68 1.18 0.3 0.3 0 0 0 0.24 0.52 2.94 2.94 0 0 0 2.46 -1.72c0.58 -1.8 -1.42 -4.3 -3.44 -6.5 0 0 -0.86 -1 -2 -2.38a12.86 12.86 0 0 1 -1.84 -7.52 12.82 12.82 0 0 0 1.2 -7.36 3.72 3.72 0 0 0 2.26 -0.3 0.26 0.26 0 0 0 0.12 -0.2 17 17 0 0 0 -1.24 -9.06c-2.2 -5.08 -8.14 -11.2 -14.5 -8.96a14.94 14.94 0 0 0 -9.8 -0.12c-5.02 1.6 -8 6.66 -9.04 8.56a22.36 22.36 0 0 0 -2.72 10.58c-0.34 4.86 0.36 5.54 -0.38 8.86a30.98 30.98 0 0 1 -4.96 10.24 14.34 14.34 0 0 0 -2 3.78 16.5 16.5 0 0 0 -1.02 5.06 42 42 0 0 0 -2.94 3.64c0 -4 0.4 -52.92 0.42 -54 5.24 0.02 54.46 -0.4 58.8 -0.46zm-21.8 20.24a5.04 5.04 0 0 1 0 -2.44 6.6 6.6 0 0 0 1.24 2.28 0.3 0.3 0 0 0 0.22 0h0.34a17.2 17.2 0 0 0 -0.74 5.42 2.44 2.44 0 0 0 -2.14 0 22.1 22.1 0 0 0 -0.4 -4.74l1.22 -0.18a0.3 0.3 0 0 0 0.26 -0.34zm-2 5.86c0 2.22 -0.98 4.8 -2.76 5.24 -4 1 -5.62 -7.62 -3.48 -10.86a3.4 3.4 0 0 1 2.94 -1.52c2.94 0 3.38 4.16 3.26 7.14zm7.56 4a2 2 0 0 1 -1.88 -0.44 4.52 4.52 0 0 1 -1.46 -3.22c-0.14 -1.42 -0.14 -5.48 1.52 -7.02a2.18 2.18 0 0 1 2 -0.54c1.1 0.18 2.36 1.44 2.2 6.3 -0.1 2.56 -0.92 4.28 -2.42 4.92zm-22.42 -6.56a4 4 0 0 0 -2.54 0c0.18 -10.8 -0.58 -9.48 0 -12.6 0.56 -4.4 6.88 -8 13.26 -6.4 -5.9 3.2 -10.5 12.46 -10.72 19zm-3.16 1.6a3.24 3.24 0 0 1 3.18 -0.32 6.86 6.86 0 0 0 0.74 2.84c1.48 2.8 3.74 4.42 5.22 1.64a0.3 0.3 0 0 0 -0.22 -0.44c-2.82 -0.34 -3.06 -4.68 0.72 -5.6 0 2.56 0 6.52 2.74 8.5a3.66 3.66 0 0 0 4.66 -0.32 6.74 6.74 0 0 0 1.84 -4.54 1.44 1.44 0 0 1 0.9 -0.52 1.56 1.56 0 0 1 1.42 0.52 4.34 4.34 0 0 0 4 4.32 15.16 15.16 0 0 1 -0.64 4.14c-0.66 2.24 -2.68 7.56 -8.3 6.66a0.32 0.32 0 0 0 -0.34 0.32c0.18 4 0.12 4 0.38 4 1 0.44 2 4.14 0.82 5.88s-3.56 1.44 -5.54 0.12c-1.56 -8.36 -1.2 -14.92 -7.82 -21a0.3 0.3 0 0 0 -0.28 0 3.64 3.64 0 0 1 -3.48 -6.2zm7.82 32.32a8.16 8.16 0 0 0 8.44 5.34 0.3 0.3 0 0 0 0 -0.6 5.06 5.06 0 0 1 -4 -5.38c0 -0.72 -0.16 -1.66 -0.36 -2.98 5.12 2.92 8.78 -2.4 6.2 -7.18 11.4 2.42 15.4 14 15.34 21.4h-26.42c0.26 -3.72 0.56 -7.3 0.8 -10.6zm-25.32 -1c1.48 -2.3 4.38 -6.5 7.02 -5.76 4.74 1.28 8.72 8.34 9.74 17.24h-16.92c0.08 -3.48 0.12 -7.14 0.16 -11.48zm123.6 -2.72c-5.76 0 -50.28 0.4 -52.24 0.26a0.52 0.52 0 0 0 0 1.02c12.36 0.62 46.12 -0.32 52.28 -0.68a0.3 0.3 0 0 0 -0.04 -0.6zm-52.94 -12.24c13.04 0.88 48.56 -0.16 53.12 -0.64a0.4 0.4 0 0 0 0 -0.78c-6.46 0.38 -48.98 0.5 -53.02 0.26 -0.8 -0.08 -0.86 1.1 -0.1 1.16zm0.72 -13.76a0.58 0.58 0 0 0 0 1.16c12.7 0.44 49.18 0 52.72 -0.8a0.3 0.3 0 0 0 0 -0.58s-48.92 0.22 -52.72 0.22zm-0.04 -11.42c8.72 0.32 40.16 0.36 43.12 -0.58a0.3 0.3 0 0 0 0 -0.6c-10.98 0.28 -39.62 0.12 -42.98 0a0.6 0.6 0 0 0 -0.14 1.18zm-47.42 104.32a0.54 0.54 0 0 0 0.48 -0.74c0.1 -1.82 -0.12 -7.6 -0.12 -9.14 1.44 -1.24 3.02 -2.46 4.44 -3.74a0.48 0.48 0 0 0 0 -0.7c-0.56 -0.38 -3.26 1.78 -4.38 2.74 -0.14 -0.62 -0.18 -0.56 -13.18 -0.7a0.6 0.6 0 0 0 -0.56 0.88c0 1.22 0.16 8.4 0.16 10.76a0.6 0.6 0 0 0 0.56 0.58c1.28 0.02 12.32 0.08 12.6 0.06zM192 255.86c12.8 0.26 11.5 0 11.52 0.4a35.66 35.66 0 0 0 -4.94 5.06c-0.96 -1.28 -2 -2.46 -2.84 -3.72 -0.36 -0.5 -1.16 0 -0.8 0.54 1.1 1.58 2 3.22 3.16 4.82a0.7 0.7 0 0 0 1.24 -0.18 30.68 30.68 0 0 1 4.24 -4.82c0 2 0 6.1 0.14 7.84 -1.86 0 -9.28 -0.1 -11.54 -0.1 -0.18 -2.2 -0.18 -8.76 -0.18 -9.84zm16.96 -20.94a0.48 0.48 0 0 0 0 -0.7c-0.56 -0.38 -3.26 1.78 -4.38 2.74 -0.14 -0.62 -0.14 -0.56 -13.18 -0.72a0.62 0.62 0 0 0 -0.56 0.9c0 1.22 0.16 8.4 0.16 10.76a0.6 0.6 0 0 0 0.56 0.58h12.64a0.52 0.52 0 0 0 0.48 -0.72c0.1 -1.82 -0.12 -7.6 -0.12 -9.14 1.44 -1.22 2.96 -2.4 4.4 -3.7zM192 237.5c12.8 0.26 11.5 0 11.52 0.4a34.64 34.64 0 0 0 -4.94 5.06c-0.92 -1.22 -2 -2.48 -2.84 -3.72 -0.36 -0.5 -1.16 0 -0.8 0.52 1.1 1.58 2 3.24 3.16 4.84a0.7 0.7 0 0 0 1.24 -0.18 29.82 29.82 0 0 1 4.24 -4.82c0 2 0 6 0.14 7.84h-11.54c-0.18 -2.3 -0.18 -8.86 -0.18 -9.94zm16.96 -19.76a0.48 0.48 0 0 0 0 -0.7c-0.56 -0.38 -3.26 1.78 -4.38 2.74a0.58 0.58 0 0 0 -0.56 -0.46c-4 -0.18 -12.64 -0.24 -12.64 -0.24a0.6 0.6 0 0 0 -0.54 0.88c0 1.22 0.16 8.4 0.16 10.76a0.6 0.6 0 0 0 0.56 0.58h12.64a0.56 0.56 0 0 0 0.48 -0.74c0.1 -1.82 -0.12 -7.6 -0.12 -9.14 1.44 -1.2 3 -2.42 4.4 -3.68zM192 220.32c12.8 0.28 11.5 0 11.52 0.4a35.66 35.66 0 0 0 -4.94 5.06c-0.96 -1.26 -2 -2.44 -2.84 -3.72 -0.38 -0.5 -1.18 0 -0.8 0.54 1.08 1.56 2 3.22 3.16 4.82a0.7 0.7 0 0 0 1.24 -0.18 29.82 29.82 0 0 1 4.24 -4.82c0 2 0 6.1 0.14 7.84h-11.54C192 228 192 221.4 192 220.32zm85.8 32.96a0.48 0.48 0 0 0 0 -0.7c-0.56 -0.38 -3.26 1.78 -4.38 2.74 -0.16 -0.64 -0.2 -0.56 -13.18 -0.7a0.6 0.6 0 0 0 -0.56 0.88c0 1.22 0.16 10.76 0.16 10.76a0.58 0.58 0 0 0 0.56 0.58h12.64a0.52 0.52 0 0 0 0.46 -0.74c0.12 -1.82 0 -7.6 0 -9.14 1.32 -1.18 2.86 -2.38 4.3 -3.68zm-17.06 2.58c12.8 0.26 11.5 0 11.54 0.4a33.62 33.62 0 0 0 -4.94 5.06c-0.94 -1.22 -2 -2.44 -2.86 -3.72 -0.38 -0.5 -1.16 0 -0.8 0.54 1.1 1.58 2 3.24 3.16 4.82a0.7 0.7 0 0 0 1.24 -0.18 29.12 29.12 0 0 1 4.26 -4.82c0 2 0 6.1 0.12 7.84 -1.86 0 -9.28 -0.1 -11.54 -0.1 -0.06 -2.22 -0.16 -8.78 -0.18 -9.84zm-1.1 -18.72c0 1.22 0.16 10.76 0.16 10.76a0.58 0.58 0 0 0 0.56 0.58h12.64a0.52 0.52 0 0 0 0.46 -0.28c0.16 -0.32 0 -8.52 0 -9.58 1.14 -0.98 4.42 -3.62 4.52 -3.86s0 -0.52 -0.12 -0.58c-0.56 -0.38 -3.26 1.78 -4.38 2.74a0.56 0.56 0 0 0 -0.56 -0.46c-4 -0.2 -8.4 -0.2 -12.62 -0.26a0.62 0.62 0 0 0 -0.66 0.94zm1.1 0.36c12.8 0.26 11.5 0 11.54 0.4a33.62 33.62 0 0 0 -4.94 5.06c-0.96 -1.26 -2 -2.48 -2.86 -3.72 -0.36 -0.5 -1.16 0 -0.8 0.52 1.08 1.56 2 3.28 3.18 4.84a0.68 0.68 0 0 0 1.22 -0.2 30.82 30.82 0 0 1 4.26 -4.8c0 2 0 6 0.12 7.84h-11.54c-0.06 -2.32 -0.16 -8.88 -0.18 -9.94zm17.06 -19.76a0.48 0.48 0 0 0 0 -0.7c-0.56 -0.38 -3.26 1.78 -4.38 2.74a0.58 0.58 0 0 0 -0.56 -0.46c-4 -0.18 -12.64 -0.24 -12.64 -0.24a0.6 0.6 0 0 0 -0.54 0.88c0 1.22 0.16 10.76 0.16 10.76a0.58 0.58 0 0 0 0.56 0.58h12.64a0.58 0.58 0 0 0 0.46 -0.3c0.16 -0.32 0 -8.52 0 -9.58 1.34 -1.2 2.9 -2.42 4.3 -3.68zm-17.06 2.58c8.44 0.18 10.74 0.12 11.36 0.16 0.3 0 0.16 0.1 0.18 0.24a33.62 33.62 0 0 0 -4.94 5.06c-0.94 -1.24 -2 -2.44 -2.86 -3.72 -0.36 -0.5 -1.16 0 -0.8 0.54 1.08 1.56 2 3.26 3.16 4.82a0.7 0.7 0 0 0 1.24 -0.18 30 30 0 0 1 4.26 -4.82c0 2 0 6.1 0.12 7.84h-11.54c-0.06 -2.26 -0.16 -8.88 -0.18 -9.94zm-50.4 8.24c8.84 0 34.76 -0.8 34.76 -0.8a0.42 0.42 0 0 0 0 -0.82c-4.52 0 -32 0.44 -34.74 0.54a0.54 0.54 0 0 0 -0.02 1.08zm0.68 -5.06a0.6 0.6 0 0 0 0 1.2l36.64 0.1a0.42 0.42 0 0 0 0 -0.82c-4.7 -0.18 -33.98 -0.54 -36.64 -0.48zm-1.5 18.8s33.64 -0.8 36.4 -0.94a0.5 0.5 0 0 0 0 -1s-33.52 0.62 -36.38 0.7a0.62 0.62 0 0 0 -0.02 1.24zm0.02 3.7c2 0 11.24 -0.66 12.24 -0.8a0.38 0.38 0 0 0 0 -0.76s-10.16 0.38 -12.22 0.42a0.58 0.58 0 0 0 -0.02 1.14zm28.92 9.8a211.74 211.74 0 0 0 -23.4 0.34c-0.74 0 -0.74 1.2 0 1.2 2.26 0 -3.8 0 18 -0.56l5.28 -0.12a0.44 0.44 0 0 0 0.12 -0.86zm-23.92 6.48a0.58 0.58 0 0 0 0 1.14h21.04a0.46 0.46 0 0 0 0 -0.92 148.66 148.66 0 0 0 -21.04 -0.22zm84.94 -34.46a152 152 0 0 0 -21.08 -0.28 0.58 0.58 0 0 0 0 1.14h21.04a0.46 0.46 0 0 0 0.04 -0.86zm-19.8 -4.78a0.58 0.58 0 0 0 0 1.14c8.88 0 31.88 -0.34 34.48 -0.4a0.3 0.3 0 0 0 0 -0.6c-6.98 -0.56 -23.7 -0.2 -34.48 -0.14zm29.56 18c-5.14 0.22 -24.96 0 -29.8 -0.52 -0.74 0 -0.8 1.06 0 1.14 4.86 0.52 24.68 0.68 29.9 0.24a0.44 0.44 0 0 0 -0.1 -0.86zm-15.42 3.94c-2.44 -0.14 -12.14 -0.36 -14.54 -0.32a0.52 0.52 0 0 0 0 1.04h14.52a0.36 0.36 0 0 0 0.02 -0.72zm13.96 13.02a0.42 0.42 0 0 0 0 -0.84c-4.5 -0.16 -20.42 -0.4 -23.88 -0.5a0.52 0.52 0 0 0 -0.52 0.48 0.54 0.54 0 0 0 0.5 0.56c7.9 0.3 15.92 0.48 23.9 0.3zm-13.56 3.72c-3 0 -6.14 0.12 -9.52 0.26a0.64 0.64 0 0 0 0 1.26c0.2 0 6.44 -0.3 9.56 -0.64a0.44 0.44 0 0 0 -0.04 -0.88zm16 12.54c-9.04 -0.26 -114.12 -0.26 -117.42 -0.26a0.64 0.64 0 0 0 0 1.28c1.8 0 111.2 -0.14 117.44 -0.38a0.3 0.3 0 0 0 -0.02 -0.64zm0.3 9.58c0 -0.54 3.1 -0.72 -85.36 -0.58h-30a0.56 0.56 0 0 0 0 1.12c2.26 0 111.52 -0.1 115.1 -0.26a0.3 0.3 0 0 0 0.26 -0.28zm-117.72 9.06a0.56 0.56 0 0 0 0 1.1c6 0.1 44.14 1.14 45.78 1.14a0.44 0.44 0 0 0 0 -0.86c-5.94 -0.46 -42.04 -1.36 -45.78 -1.38zm47.08 10.72a0.44 0.44 0 0 0 0 -0.86c-10 0.7 -47.42 1.24 -47.22 1.24a0.64 0.64 0 0 0 0 1.26c11.34 0.4 43.12 -1.12 47.22 -1.64zm66.38 -8.48a0.3 0.3 0 0 0 0 -0.6c-6.1 -0.2 -44.42 -0.54 -46 -0.66a0.6 0.6 0 0 0 0 1.18c11 0.46 41.92 0.34 46 0.08zm-44.92 9.32c11.16 0.84 42.72 0.46 47.46 0.14a0.42 0.42 0 0 0 0 -0.84c-3.32 0.16 -44 -0.36 -47.38 -0.58 -0.88 -0.06 -0.9 1.22 -0.08 1.28zm51.78 36.36c-15.3 -0.88 -56.62 -1.46 -55.74 -1.46a0.66 0.66 0 0 0 0 1.32l55.72 0.92a0.4 0.4 0 0 0 0.02 -0.78zm-4.36 -7.96c-1.6 0.14 -1.8 -0.12 -2.32 -0.78 -2.52 -3.2 -4.7 1.12 -8.34 1.28 -0.94 0 -1.62 0 -1.82 -0.38s-0.12 -0.48 0 -0.88 2.32 -1.46 2.18 -2.14a0.58 0.58 0 0 0 -0.64 -0.38 4 4 0 0 0 -2.54 2c-2.46 1.24 -5.58 2.9 -7.34 0.68a1.62 1.62 0 0 1 -0.18 -1.3l1.04 -1.02a0.52 0.52 0 0 0 -0.5 -0.84 2.24 2.24 0 0 0 -1.54 1.4 20.66 20.66 0 0 1 -4.34 2.98c-0.52 0.26 -1.7 1.02 -2.16 0.66s-0.32 -2.5 -0.12 -3.28c3.26 -2.96 3.18 -3.8 3.14 -4.18s-0.6 -1.02 -1.02 -0.74a8.32 8.32 0 0 0 -3.26 4.52c-2.18 1.58 -5.8 3.8 -6.56 1.2a17.04 17.04 0 0 0 6.82 -7.86c0.46 -1.16 1.22 -3.12 0 -4.2s-2.72 0.42 -3.48 1.22a14.68 14.68 0 0 0 -4.44 10.18 56 56 0 0 1 -6.26 3.22c-1.4 0.66 -2.54 1.06 -3.14 -0.1a6.22 6.22 0 0 1 -0.34 -3.34 24.78 24.78 0 0 1 6.6 -15.2 4.68 4.68 0 0 1 2.68 -1.54 1.44 1.44 0 0 1 1.08 0.56c1 1.18 0.52 2.78 -0.1 4.46 -0.2 0.56 0.66 0.86 0.9 0.3a5.84 5.84 0 0 0 0.52 -4.76 2.78 2.78 0 0 0 -3.56 -1.58 9.16 9.16 0 0 0 -3.68 3.24 26.36 26.36 0 0 0 -5.5 13.48c-0.34 3.2 0 6.84 3.12 6.26a10.84 10.84 0 0 0 2.42 -0.94 53.1 53.1 0 0 0 5.52 -2.8c1.14 2.92 4.58 1.42 7.22 -0.34 -0.24 2.36 0.68 4.12 2.84 3.14a19.26 19.26 0 0 0 5.04 -3.1 3.32 3.32 0 0 0 2.88 2.4 10.14 10.14 0 0 0 5.46 -1.46c0 2 2.9 2 4.76 1.3 2.78 -0.86 4.24 -2.8 5.4 -1.8 0.58 0.5 0.92 1.32 1.88 1.58a9.34 9.34 0 0 0 3.08 -0.14c2.62 -0.28 5.46 -0.46 7.84 -0.84a0.3 0.3 0 0 0 0 -0.6zm-31.66 -11.82c1.72 -1.64 2.64 -0.38 0.86 3.14a16.32 16.32 0 0 1 -5.54 6 14 14 0 0 1 4.68 -9.14z" stroke-width="1"></path><path d="m218.56 178.66 -0.66 0.62a0.48 0.48 0 0 0 0.54 0.78 6.5 6.5 0 0 0 1.16 -0.74c0.18 -0.2 0.42 -0.52 -1.6 -3.72a0.46 0.46 0 0 0 -0.78 0.46c0.14 0.24 1.1 2.14 1.34 2.6zm-7.18 6.18a2.9 2.9 0 0 0 3.28 -0.58 0.62 0.62 0 0 0 -0.88 -0.86c-1.08 0.9 -3.44 0 -4.26 -1.12 -0.34 -0.44 -1.04 0 -0.7 0.48a5.48 5.48 0 0 0 2.56 2.08zm1.38 -12.26a0.46 0.46 0 0 0 -0.92 0 11.5 11.5 0 0 0 0 1.82 0.62 0.62 0 0 0 1.14 -0.3c0.02 -0.36 -0.2 -1.32 -0.22 -1.52zm9.52 -0.28a0.52 0.52 0 0 0 -1.04 0c0 2 0.16 2.14 0.26 2.22a0.58 0.58 0 0 0 0.88 -0.1 8.34 8.34 0 0 0 -0.1 -2.12zm-10.08 -1.62a0.56 0.56 0 0 0 0.64 -0.52c0 -0.5 -0.4 -0.76 -0.9 -0.7a1.68 1.68 0 0 0 -1.44 1.5 6.26 6.26 0 0 0 0 0.72 0.46 0.46 0 0 0 0.92 0.14c-0.02 -0.44 0.3 -1.24 0.78 -1.14zm10.42 -1.76a0.64 0.64 0 0 0 -0.3 1.24c0.8 0.18 0.78 0.68 0.74 0.82a0.44 0.44 0 0 0 0.66 0.48c0.56 -0.28 0.28 -2.22 -1.1 -2.54zM346.98 352c-2.3 -0.78 -5.68 2 -4.88 4.16a2.54 2.54 0 0 0 3.34 1.2c1.16 -0.38 2.96 -1.56 3.2 -2.88a2.3 2.3 0 0 0 -1.66 -2.48zm-1.3 4c-0.74 0.36 -1.74 0.66 -2.3 0s1.28 -2.92 2.88 -2.82c1 -0.06 2.3 1.3 -0.58 2.82z" stroke-width="1"></path><path d="M389.84 285.26c-8.76 -0.26 -19.1 -0.44 -29.58 0.24a109.8 109.8 0 0 0 -4.4 -12.96 56.48 56.48 0 0 0 -15.82 -22 3.62 3.62 0 0 0 -5.32 2c0 -0.22 -2.46 -105.36 -2.74 -112.24 0 -0.44 0 -0.5 -0.44 -0.54h-24a5.1 5.1 0 0 0 -2.76 -4.5 4.34 4.34 0 0 0 -6.2 4.74c-10.58 0 -102.58 -0.88 -112.16 -0.98a23.22 23.22 0 0 0 -5.26 -10c-3.08 -3.64 -3.84 -6.62 -5.44 -12.72a59.7 59.7 0 0 1 -1.86 -17.7 59.02 59.02 0 0 0 1.86 -19.04 24.64 24.64 0 0 0 8.8 0.84 0.3 0.3 0 0 0 0.26 -0.26A54.42 54.42 0 0 0 182 55.36c-4 -11.4 -14.3 -26 -27.48 -31.1a23.08 23.08 0 0 0 -20 1.04c-14.52 -3.16 -29.58 0.7 -39.3 10 -17 9.84 -23.42 33.86 -24.46 53 -0.76 14 0.9 11.72 -0.36 18.8 -2.28 12.84 -8.98 23.62 -13 30 -4.38 7.08 -5.88 8 -8.16 13.26a50.38 50.38 0 0 0 -3.9 19.18C32.18 183.64 24 204 21.02 230 19.18 248.4 18 267.72 26 284.72l0.62 1.06c-4 0 -15.2 0.2 -16.5 0.46a0.52 0.52 0 0 0 0 1.04c1.02 0 16.74 -0.34 17.1 -0.34 16.18 25.76 54.48 32.68 66.1 34.22a217.64 217.64 0 0 0 44.22 0.56c5.14 -0.36 10.36 -1.04 12.74 -5.34a47.08 47.08 0 0 0 17.34 1.14c-0.66 32.56 -0.92 39.86 -0.78 41.46 0 0.56 0 0.44 0.54 0.46 36.92 0.62 147.52 3.28 157.88 2.28a0.3 0.3 0 0 0 0.26 -0.28v-5.42h8a0.76 0.76 0 0 0 0.62 -0.62c0 -3.74 -0.16 -7.5 -0.18 -11.34a11.52 11.52 0 0 1 4.6 3.52c-0.5 0.38 -3.58 2.52 -3.58 2.52a0.6 0.6 0 0 0 -0.18 0.76c1.58 3.2 5.76 12.1 5.76 12.1l-5.54 2.9a0.3 0.3 0 0 0 -0.14 0.38c8 19.14 7.56 18.1 7.86 18.1 47.08 0 45.22 0 45.4 -0.1s0 1.46 -0.72 -41.06c0 -0.2 0 -0.16 -2.66 -3.04a0.3 0.3 0 0 0 -0.36 0l-4.4 2.28c-1.3 -3.9 -2.84 -8 -4.84 -13.08a0.56 0.56 0 0 0 -0.74 -0.36c-2 0.78 -4 1.62 -5.86 2.46 -2.68 -14.86 -4.14 -30 -8 -44.62 10 -0.74 20.28 -0.46 29.24 -0.5a0.48 0.48 0 0 0 0.04 -1.06zm-85.54 -148.64a4 4 0 0 1 2 3.14c-1.12 0 -5.14 0.18 -6.48 0.18a3.16 3.16 0 0 1 4.48 -3.32zm2.62 19.56c0 1.38 0.14 3.48 -1.26 3.82s-2.48 -1.12 -2.8 -2.2a12.78 12.78 0 0 1 -0.34 -2.46c-0.12 -1.62 -0.28 -7.6 -0.26 -9.28 0 -0.62 -0.88 -0.58 -0.94 0a50.9 50.9 0 0 0 -0.16 7.36 16 16 0 0 0 0.66 5.1c1.16 3.44 5.6 3.86 6 -0.16a146.96 146.96 0 0 0 -0.28 -17.3c6.8 0 20.98 -0.14 23.42 -0.18 0.38 19.86 2.88 140.4 3.46 160.16a80.7 80.7 0 0 0 -7.88 -9.48c-2 -1.5 -5.04 -2.16 -6.46 0s-0.66 4.6 -0.42 7.7c0.92 12.14 6.18 22.84 8.66 29.3a22.1 22.1 0 0 0 4.7 8.44c-0.6 5.9 -0.14 11.82 -0.16 17.74 -0.2 0 -150.68 -0.88 -157.18 -0.84C173.44 126 173.06 144.48 174.14 140c13.12 0.28 0.2 0.28 132.26 1 0.2 2.26 0.6 11.84 0.52 15.18zm28 103.14a45.12 45.12 0 0 0 1.38 5.04 7.1 7.1 0 0 0 -1.28 -0.68c-0.08 -1.42 -0.1 -2.88 -0.14 -4.36zm-10.48 101.58c-21.88 -0.38 -143.66 -2.38 -156.3 -2.56 0.44 -20.34 4.62 -174.34 2.48 -193.82l0.32 -21.38 1.52 -0.32c0.78 44.76 0.96 212.18 2.84 212.18 12.34 0 144.8 1.02 149.1 1.02 0 1.24 -0.04 3.7 0 4.88zM99.74 320.6c-24.4 -2.1 -45.48 -10 -60.94 -22.58a47.64 47.64 0 0 1 -8.94 -9.34c-7.18 -10.56 -8.46 -23.64 -8.72 -36.24a95.38 95.38 0 0 1 66.58 -0.44c-0.62 5.04 -0.94 5.02 -0.64 5.48s0.2 0.2 3.24 0.82c-11.02 4.62 -25.34 12.92 -32.8 26.52a38.94 38.94 0 0 0 -4 13.62 0.42 0.42 0 0 0 0.82 0.1c3.26 -23.26 27.34 -35.62 37.86 -39.84 6.56 1.42 13.22 2.98 19.82 4.64a60.7 60.7 0 0 0 -14 44.92 0.48 0.48 0 0 0 0.94 0 62.62 62.62 0 0 1 14.24 -44.58 114 114 0 0 1 25.5 10.56c-8.52 11.48 -10.6 27.48 -5.16 40a0.4 0.4 0 0 0 0.72 -0.3 41.3 41.3 0 0 1 5.4 -39.12c2.78 1.5 5.52 3.04 7.6 4.22 3.46 2 7.16 4.34 8 8a7.72 7.72 0 0 0 -5.3 -1.48c-2.48 0.52 -3.68 3.2 -4.4 4.78a30.3 30.3 0 0 0 -2.54 15.22c0.3 4 1.3 8.74 6.24 10.58 -1.8 2.86 -5.34 3.7 -7.9 4a233.36 233.36 0 0 1 -41.62 0.46zm-20.98 -91.06a0.38 0.38 0 0 0 0.52 -0.54 66.72 66.72 0 0 0 -52.96 -20 104 104 0 0 1 9.18 -23.4 46 46 0 0 1 48.7 14c0.54 1.68 0.94 3.14 1.28 4.4 2 7.54 4.82 18.36 -2.92 17.4a0.3 0.3 0 0 0 -0.26 0.5 6.84 6.84 0 0 0 4.14 2.26 83.68 83.68 0 0 1 1.4 26.62 94.3 94.3 0 0 0 -66.72 0.4A170.5 170.5 0 0 1 26 210.4a68.28 68.28 0 0 1 52.76 19.14zm-32.6 -58.86c12.28 -7.5 20.38 -0.92 29.42 12.12a57.08 57.08 0 0 1 7.34 13.2 47.28 47.28 0 0 0 -46.6 -11.86 76.66 76.66 0 0 1 9.84 -13.46zM116.86 254a95.6 95.6 0 0 1 -3.48 -11.34 59.84 59.84 0 0 0 48.4 -2.88 0.48 0.48 0 0 0 -0.44 -0.84 60.82 60.82 0 0 1 -48.32 2.2A133.1 133.1 0 0 1 110 218.56c8.9 5.3 21.3 6.12 31.7 5.62a19.66 19.66 0 0 0 10.3 -2.96 0.48 0.48 0 0 0 -0.5 -0.82c-5.34 2.96 -11.66 2.74 -17.78 2.5 -8.26 -0.3 -16.68 -1.44 -23.7 -6a118.28 118.28 0 0 1 3.26 -34A62.4 62.4 0 0 0 119.72 196c2.82 4.26 4.7 7.06 8.18 8.7a17.24 17.24 0 0 0 13.08 0 0.3 0.3 0 0 0 0 -0.56c-8.16 -2 -12 -9.38 -13.28 -16.54 16.54 9.06 34.42 2 39.78 -11.16a0.44 0.44 0 0 0 -0.78 -0.36C160 189.4 142.8 194.88 127.44 185.86c-0.52 -4.44 0.3 -4.86 -1.12 -12.66 10.34 8 23.24 1.68 22 -10.22a16.1 16.1 0 0 0 -3.2 -7.74c4.84 -1.12 7.7 0.38 14.5 4.46 3.36 2 6.68 4.28 9.86 6.54 0.32 7.76 0.32 23.12 0.14 42a25.22 25.22 0 0 1 -13.28 7.14 0.44 0.44 0 0 0 0.16 0.86 24.36 24.36 0 0 0 13.02 -6.24c-0.22 23.02 -0.7 50.94 -1.2 76.54 -2.24 0 -9.34 0 -12 0.16 -1.26 -5.74 -7.62 -8.28 -12.32 -11.02s-10 -5.42 -15.16 -7.8c9.68 1.26 20.42 1.52 29.24 -4a0.54 0.54 0 0 0 -0.56 -0.94c-10.78 6 -25.66 4.94 -35.12 2.22a279.06 279.06 0 0 0 -34 -8.66 84.58 84.58 0 0 0 -0.66 -32.34c3.44 -0.38 6.18 -3.5 7.66 -6.66a86.32 86.32 0 0 0 20.98 36.92 0.3 0.3 0 0 0 0.48 -0.42zm51.44 33.6c0 3.32 -0.12 6.58 -0.18 9.8a73.1 73.1 0 0 0 -11.52 -9.6v-0.12c2.36 0 9.56 0.04 11.7 -0.08zM150.68 74.74a52.72 52.72 0 0 1 1.16 -10.48 23.2 23.2 0 0 0 4.54 9.28 0.34 0.34 0 0 0 0.3 0l1.86 -0.44c-3.58 5.04 -4 11.3 -4 17.78 0 0.96 0 1.84 0.1 2.66a5.2 5.2 0 0 0 -8.16 1.12 88.24 88.24 0 0 0 -1.68 -18.38l5.56 -1.32a0.28 0.28 0 0 0 0.32 -0.22zm-9.78 32c-7.12 6 -15.38 -1.12 -17.64 -8.5 -1.36 -4.86 -2.56 -17.78 2.62 -24.44a11 11 0 0 1 9.2 -4.24c6.28 0 8.66 5.82 9.54 12 1.12 7.96 2.5 20.16 -3.72 25.18zM100.14 86.22a8.64 8.64 0 0 0 -8.78 0.52c-1.14 -7 -1.28 -8 -1.22 -19.56 0 -7.72 0 -18 2.7 -24.86 5.04 -13.28 25.6 -18.84 40 -16 -23.68 14.28 -31.66 44.06 -32.7 59.9zm-4.54 0.22a8.76 8.76 0 0 1 4.5 1.08c0.84 4.34 2.1 11.08 4.98 14.3 4.2 5.54 9.68 5.82 13.26 -0.12a0.3 0.3 0 0 0 -0.28 -0.44 8 8 0 0 1 -6.1 -2c-3.06 -3 -2.16 -7.86 -0.6 -10.2 2.68 -4 5.3 -2.46 9.58 -6a61.6 61.6 0 0 0 0.56 13.42 18.16 18.16 0 0 0 8.9 12.54c6.66 3.4 15.18 -0.88 16 -11.56 1.62 -4.44 5.84 -5.8 8.6 -1.54 0.7 3.54 2.24 8.24 5.62 10.58a7.36 7.36 0 0 0 7.38 0.18c-3.78 19.48 -8.96 38.1 -28.46 34.76a0.3 0.3 0 0 0 -0.36 0.28c0 1.48 -0.4 9.06 -0.54 11.26a0.32 0.32 0 0 0 0.24 0.32 15.5 15.5 0 0 1 4.52 1.84 21.12 21.12 0 0 1 3.3 6.52C149.3 174 135.8 180 126 171.24c-1.84 -9.12 -6 -22 -11.34 -41.64 -1.2 -4.44 -4.88 -15.46 -15.4 -21.08a0.4 0.4 0 0 0 -0.22 0c-1.06 0.26 -6.66 1.28 -10 -2s-1.82 -20.08 6.56 -20.08zm73.16 18.24c-4.2 3.2 -8.28 1.66 -10.62 -3.32A22.44 22.44 0 0 1 156 92.88a87.36 87.36 0 0 1 0.28 -9.48c0.7 -6.46 3.74 -13.24 10.24 -13.24a12.8 12.8 0 0 1 4.76 1c3.04 1.62 3.78 8.7 3.4 15.58 -0.94 15.02 -4.54 16.9 -5.92 17.94zm167.06 198c0 -1.32 0 -4.38 -0.16 -8.78a39.78 39.78 0 0 1 4.4 9.76 9.24 9.24 0 0 1 -1.3 2.94zm-0.38 -18.72a34.66 34.66 0 0 1 5.36 10c0 1.5 -0.14 5 -0.32 7.18a44.14 44.14 0 0 0 -4.88 -9.46c-0.04 -2.22 -0.1 -4.8 -0.16 -7.68zm5.4 6.9a33.1 33.1 0 0 0 -5.44 -8.86c-0.12 -5.1 -0.24 -10.94 -0.4 -17.24a4 4 0 0 1 2 1.56 60 60 0 0 1 3.84 24.64zm-193.7 -1.38c2 -4.12 4.54 -3.38 8.36 -0.98a61.3 61.3 0 0 1 12.5 10.36c0 2 0 4 -0.12 6.12a34 34 0 0 0 -7.78 -4.58 0.5 0.5 0 0 0 -0.24 0.98 56.42 56.42 0 0 1 8 5.02v4.96a17.72 17.72 0 0 0 -6.5 -2.46 0.54 0.54 0 1 0 0 1.06 25.14 25.14 0 0 1 6.4 2.74c0.16 0.1 0.12 -0.42 0 3.76a52 52 0 0 1 -14.84 -0.7c-5.38 -0.9 -7.86 -3.34 -8.56 -8.42a30 30 0 0 1 2.78 -17.76zm187.04 48.26a6.94 6.94 0 0 0 4.26 1.04 0.52 0.52 0 0 0 0 -1.02 5.72 5.72 0 0 1 -4.42 -1.62c-2.5 -2.26 -3.68 -6.12 -5.12 -9.72 -4.48 -11.28 -8.38 -21.5 -8 -32.44 0 -2.9 2.36 -3.32 4.74 -1.74s15.32 19.24 17.46 21.78a0.54 0.54 0 0 0 0.86 -0.66c-1.4 -2 -2.9 -4 -4.32 -5.86l0.1 -0.12c0.88 -1.04 2 -2.48 2.36 -12.1 0.46 -16 -0.76 -20.16 -3.44 -28.12a64.68 64.68 0 0 1 -2.56 -9.16c-0.36 -2 -0.92 -5.24 1.18 -6.54s3.82 1.52 5.3 2.78c18.78 18.78 20 49.84 25.1 77.46 -6.74 2.16 -22.3 11.66 -28 15.02a12 12 0 0 0 -5.58 -4c-0.1 -1.56 -0.1 -3.22 0.08 -4.88zm7.42 24.56s-4.1 -8.5 -5.54 -11.64c5.34 -3.48 21.9 -13.5 29.7 -16.74 2.88 -1.2 5.7 -2.62 8.56 -3.82 1.74 4.38 3.34 8.84 4.68 12.66zm5.64 -304.16c0.48 -23.42 -19.36 -42.46 -43.18 -42.46s-43.64 19.04 -43.18 42.46c1.12 56.18 85.24 56.2 86.36 0zm-80.42 0c0.98 -48.46 73.52 -48.48 74.48 0 0.42 20.18 -16.7 36.6 -37.24 36.6s-37.64 -16.42 -37.24 -36.6z" stroke-width="1"></path><path d="M304 36.78a0.46 0.46 0 0 0 -0.92 0c0.14 20.38 0 26.4 0.18 28.3 0 1 0.26 1.34 1.52 0.88a107.22 107.22 0 0 1 18.72 -5.36 0.48 0.48 0 0 0 -0.2 -0.94 90.44 90.44 0 0 0 -18.6 4.78c-0.06 -5.26 -0.58 -22.8 -0.7 -27.66zm-23.66 6.82a0.7 0.7 0 0 0 0.96 -1c-0.56 -0.46 -2.56 -2.32 -3.02 -2.84a0.52 0.52 0 0 0 -0.76 0.72c0.48 0.54 2.32 2.64 2.82 3.12zm7.24 -7.46a0.68 0.68 0 0 0 1.24 -0.2c0.1 -0.38 0 -0.52 -0.64 -1.38a28.54 28.54 0 0 1 -1.54 -2.48c-0.34 -0.66 -1.3 -0.12 -0.98 0.54a24 24 0 0 0 1.92 3.52zm32.42 -0.36a42.94 42.94 0 0 0 3.12 -3.54 0.54 0.54 0 0 0 -0.78 -0.74 43.4 43.4 0 0 0 -3.24 3.38 0.64 0.64 0 0 0 0.9 0.9zm8.42 10.7c0.28 0 0.34 0 2.34 -1.56L332 44a0.48 0.48 0 1 0 -0.52 -0.82c-0.56 0.36 -2.8 1.6 -3.48 2a0.7 0.7 0 0 0 0.42 1.3zM320.38 82a0.68 0.68 0 0 0 -1.02 0.92c0.4 0.5 2.16 2.68 2.54 3.24s1.34 0 0.94 -0.58 -1.96 -2.98 -2.46 -3.58zm9.62 -9.62a0.7 0.7 0 0 0 -0.82 1.1c0.2 0.18 2.82 2.26 3.04 2.5a0.54 0.54 0 0 0 0.78 -0.74 35.58 35.58 0 0 0 -3 -2.86zm-44 9.18a0.5 0.5 0 0 0 0.36 0.84c0.24 0 0.32 -0.1 0.82 -0.56a20.24 20.24 0 0 0 3.24 -3.42c0.48 -0.7 -0.6 -1.54 -1.14 -0.86a44.68 44.68 0 0 1 -3.28 4zm-8.24 -8.62c0.18 0 0.26 0 0.86 -0.4 1.02 -0.54 2.9 -1.54 3.38 -1.86a0.68 0.68 0 0 0 -0.68 -1.18c-0.72 0.38 -3.6 2.42 -3.82 2.54a0.48 0.48 0 0 0 0.26 0.9zm-2.92 -17.56a2 2 0 1 0 0 4 2 2 0 1 0 0 -4zm29.02 -24.72a2 2 0 1 0 0 -4 2 2 0 1 0 0 4zm0.14 54.4a2 2 0 1 0 0 4 2 2 0 1 0 0 -4zm30.94 -24.9a2 2 0 1 0 0 -4 2 2 0 1 0 0 4zm-83.16 232.1a1.76 1.76 0 0 0 0 3.52 1.76 1.76 0 0 0 0 -3.52zm0 8.78a1.76 1.76 0 0 0 0 3.52 1.76 1.76 0 0 0 0 -3.52zm59.56 -98.18a1.76 1.76 0 0 0 0 -3.5 1.76 1.76 0 0 0 0 3.5zm0.52 -15a1.76 1.76 0 0 0 0 -3.52 1.76 1.76 0 0 0 0 3.52zm0 -10.86a1.76 1.76 0 0 0 0 -3.5 1.76 1.76 0 0 0 0 3.5z" stroke-width="1"></path></g></svg>