<svg xmlns="http://www.w3.org/2000/svg" viewBox="0 0 400 400" id="Hiring-1--Streamline-Milano" height="400" width="400"><desc>Hiring 1 Streamline Illustration: https://streamlinehq.com</desc><g fill="#000000"><path d="M227.64 126.22C228.58 116 237.16 103.84 250 98a111.2 111.2 0 0 0 4.58 10.7 10.66 10.66 0 0 0 3.72 1.52c3.74 13.52 2 15.34 2.66 16 0.18 0.2 -0.84 0.12 18.44 0.12a0.84 0.84 0 0 0 0.72 -0.82 122.28 122.28 0 0 1 2 -16 4.46 4.46 0 0 0 2.34 -1.6 71.36 71.36 0 0 0 2.74 -9.82c1.02 0.46 2 0.9 2.88 1.38a42.88 42.88 0 0 1 11.42 9.5c3.34 4.26 7.54 10.74 7.86 16.18 0 0.14 0.5 0.28 0.58 0s0 -0.54 0 -0.74c-0.22 -5.34 -4.24 -12 -7.36 -16.3a42.98 42.98 0 0 0 -11.84 -10 49.52 49.52 0 0 0 -11.18 -4l-2.54 -8.44c5.42 -0.74 5.2 -0.86 6.44 -0.22a5.1 5.1 0 0 0 2.56 0.88 13.44 13.44 0 0 0 5.68 -1.4c0.84 -0.4 1.44 -1.22 2.2 -1.42a11.48 11.48 0 0 1 3.84 0.4 3.82 3.82 0 0 0 3.64 -1.68c0.46 -0.74 0.62 -1.6 1.2 -2.48 0.2 -0.3 1.16 -0.22 1.72 -0.46a6.12 6.12 0 0 0 4.4 -6.44c-0.26 -3.02 -2 -5.08 -2.2 -8.58s0.58 -5.56 -1.14 -8.36 -5.76 -5.72 -6.88 -8.74c-0.8 -2.2 0 -4.64 -1.68 -6.5a23.22 23.22 0 0 0 -4.3 -3.72 35.28 35.28 0 0 0 -5.68 -1.52c-1.22 -0.36 -1.68 -1.3 -2.5 -2.34a10 10 0 0 0 -9.78 -3.8c-1.76 0.5 -2.84 0.98 -4.96 1.74a21.1 21.1 0 0 0 -8 -0.42 27.56 27.56 0 0 0 -7.3 2.9 10.26 10.26 0 0 0 -4.98 7.7c0 0.6 0 2 -0.38 2.24 -1.9 1.52 -5.28 0.6 -7.7 2.22a9.52 9.52 0 0 0 -3.84 6.66c0 0.72 0.3 1.86 0 2.32 -0.62 1.24 -2.2 1.58 -3.24 2.64a14 14 0 0 0 -3.32 5.14A5.56 5.56 0 0 0 232 68c1.72 2 2.38 2.86 2 5.7a6.8 6.8 0 0 0 0.58 5.48 10 10 0 0 0 3.22 3.16c1.08 0.36 1.7 -1 2.8 -0.74 0.52 0.14 1.34 2.46 2.7 3.2 2.2 1.18 3.78 -0.16 5.82 0.28 0.78 0.16 2.18 0.82 3.08 0.58a9.32 9.32 0 0 1 3.52 -0.56 3.7 3.7 0 0 0 2.36 -0.18c1.16 -0.3 2 0.64 3.28 0.48 -0.54 2.18 -1.5 6 -2 8.2a71.08 71.08 0 0 0 -9.36 2.76 39.66 39.66 0 0 0 -21 21.18 30.56 30.56 0 0 0 -2 8.68c-0.06 0.4 0.6 0.36 0.64 0zm32.92 -32c0.16 -0.88 0.42 -2 0.74 -3.38 2 -8.14 2.34 -8.3 1.64 -8.66a9.86 9.86 0 0 1 -3.66 -3.48 63.74 63.74 0 0 1 -4.72 -11.34 0.64 0.64 0 0 0 -0.3 -0.38 14.86 14.86 0 0 1 -4.68 -4.46 2.94 2.94 0 0 1 0.16 -3.5c0.84 -1.04 1.76 -0.28 3.04 0.3a0.78 0.78 0 0 0 1.02 -0.5c0.54 -1.64 2.78 -11.3 5.74 -13.82a15.56 15.56 0 0 1 4.46 -2.64c-0.1 0.26 -0.38 0.98 -0.5 1.22 -3.1 3.22 -1.76 6.28 0.7 10a8.16 8.16 0 0 0 3.34 2.32c2.8 1.52 6.5 1.82 8.84 3.72 3.08 2.52 -0.4 6.72 4.3 10a5.4 5.4 0 0 0 2.12 0.94c-2.82 7.8 -3.88 10 -7.62 11.8a0.62 0.62 0 0 0 -0.34 0.8c0.3 0.84 3.64 11.62 3.64 11.62 0.24 0.8 1.24 0.12 7.38 2.58a79.5 79.5 0 0 1 -2.62 10c-0.68 1.3 -6 2 -7.42 2.26 -5.28 0.7 -16 1.2 -20.32 -1.86 -0.52 -1 -3.78 -9.32 -4.22 -10.42 7.04 -3 9.08 -2 9.28 -3.06z" stroke-width="1"></path><path d="M267.2 66.94c0.7 1.14 2.34 0.82 3.6 0.38a0.28 0.28 0 0 0 0.24 -0.32c0 -0.4 -0.4 -0.12 -1.82 -0.38 -0.14 0 -0.9 -0.22 -0.78 -0.32a6.92 6.92 0 0 1 -0.24 -1.84c0 -0.12 -0.12 -4.84 0 -4.96a0.3 0.3 0 0 0 -0.58 -0.14 12 12 0 0 0 -0.42 7.58zm-10.12 -1.66a0.72 0.72 0 0 0 -0.22 1.42 0.7 0.7 0 0 0 0.66 0 0.74 0.74 0 0 0 -0.44 -1.42zm2.1 -1.98c-1.1 0 -0.62 1.46 0 1.46a0.74 0.74 0 0 0 0 -1.46zm1.2 4.46a0.76 0.76 0 0 0 -1.14 0.32 0.76 0.76 0 0 0 0.6 1.2 0.88 0.88 0 0 0 0.54 -1.52zm1.44 -9.1c-0.86 0 -0.98 2 0 2s0.9 -1.96 0 -2zm13.06 2.04c0.6 0 1.04 -2 0 -2 -0.6 0.12 -0.88 2 0 2zm-8.08 13.98a4.14 4.14 0 0 0 4 0.52 5.28 5.28 0 0 0 3.04 -2.48 0.3 0.3 0 0 0 -0.4 -0.42c-0.56 0.34 -1.38 0.74 -1.58 0.84a7.56 7.56 0 0 1 -3.08 1 7.04 7.04 0 0 1 -1.72 0 0.28 0.28 0 1 0 -0.26 0.54zm-167.36 -10.34a0.66 0.66 0 0 0 -1.32 0v2a0.66 0.66 0 0 0 1.32 -0.1c0.02 -0.24 -0.02 -1.66 0 -1.9zm16.56 -0.2v1.82a0.66 0.66 0 0 0 1.32 0.1v-2a0.66 0.66 0 0 0 -1.32 0.08zm-9.02 15.56a3.24 3.24 0 0 0 4.9 -2.86 0.28 0.28 0 0 0 -0.54 0 3.06 3.06 0 0 1 -0.8 1 4 4 0 0 1 -2 1.16 5.38 5.38 0 0 1 -1.34 0.24 0.26 0.26 0 1 0 -0.22 0.46z" stroke-width="1"></path><path d="M114.18 129.04a0.26 0.26 0 1 0 0.52 0c-0.4 -5 -2.18 -14.6 -3.16 -16.3 0.44 -0.94 1.28 -3 1.68 -4.22 0.58 0.36 1.2 0.8 1.68 0.48a118 118 0 0 0 8.64 -9.34c12.34 4.72 21.62 12.96 24.66 25.82a0.26 0.26 0 0 0 0.52 -0.12c-2.88 -12.96 -12 -21.5 -24.52 -26.5 0.24 -0.32 0.48 -0.62 0 -1a44.82 44.82 0 0 0 -5.5 -3.18c-0.2 -0.12 -0.2 0 -2 1.28 -0.38 -2.1 -1.76 -9.38 -2 -10.96a14.86 14.86 0 0 0 8.96 -7.5A73.26 73.26 0 0 0 126 68c1.74 -2.3 3.6 -6 2 -8.28a13.02 13.02 0 0 0 0.8 -1.72 2 2 0 0 0 0 -1.72 2.92 2.92 0 0 0 -0.26 -0.5c0.88 -1.18 0.58 -2.24 0 -3.62a2.26 2.26 0 0 0 -0.66 -0.98 3.88 3.88 0 0 0 0.64 -0.8 4.48 4.48 0 0 0 -1.7 -4.86 3.26 3.26 0 0 0 -0.9 -0.34A4.38 4.38 0 0 0 122.2 40a3.32 3.32 0 0 0 -2.22 0.48A4.56 4.56 0 0 0 113.42 38l-0.5 0.24c-0.22 -0.76 -0.2 -1.64 -1.14 -2.18a4 4 0 0 0 -4.62 1.14c-0.6 -0.52 -0.68 -1.02 -2.86 -1.2a4.86 4.86 0 0 0 -3.38 0.94c-0.26 0.22 -0.74 0.88 -0.92 1.02a2.56 2.56 0 0 0 -0.6 -0.32 5.78 5.78 0 0 0 -2.86 0.16A4 4 0 0 0 94 40.28c-0.8 0.26 -1.86 -0.78 -4.58 2.46a4.28 4.28 0 0 0 -0.96 2.22 7.26 7.26 0 0 0 0 0.88c-0.58 0.54 -1.28 0.78 -1.82 1.36a5.28 5.28 0 0 0 -0.82 4.28c0 0.2 0.6 1 0.32 1.02s0 -0.1 0 -0.18a4.56 4.56 0 0 0 -1.52 2.24 4.9 4.9 0 0 0 0.6 3.02c0.18 0.28 0.52 0.52 0.78 0.92a1.52 1.52 0 0 0 -0.58 1.16 2.52 2.52 0 0 0 0.44 1.44c-2.12 3.04 0.42 6 3.64 8a39.4 39.4 0 0 0 1.34 6.9 14.38 14.38 0 0 0 8.64 8.58c-0.54 2.88 -1.24 8.46 -1.6 11.36 -2.12 -1.5 -2 -1.54 -2.3 -1.42a53.7 53.7 0 0 0 -5.86 3.22 0.68 0.68 0 0 0 -0.22 0.46 36.26 36.26 0 0 0 -16.14 11.8 32.74 32.74 0 0 0 -7.04 15.08 0.28 0.28 0 0 0 0.54 0A32 32 0 0 1 74 110.4a35.68 35.68 0 0 1 16 -11.42 123.48 123.48 0 0 0 9.74 10c0.52 0.34 1.3 -0.2 2.38 -0.86a22.26 22.26 0 0 0 2.54 4.64 166.92 166.92 0 0 0 -1.44 16.9 0.26 0.26 0 0 0 0.52 0c13.78 -0.84 9.68 -0.62 10.44 -0.62zm4.52 -33.88c0.76 0.48 4 2.54 4.7 3.1 -0.18 0.22 -8 8.52 -8.98 9.46a62.26 62.26 0 0 1 -5.56 -4c0.36 -0.26 9.4 -8.16 9.84 -8.56zm8.54 -32.46a11.58 11.58 0 0 1 -2 4.32 10.22 10.22 0 0 0 -0.46 -6c-0.74 -1.76 -0.98 -1.06 -0.26 -1.58 0.5 0 0.64 -0.12 0.98 0a2.82 2.82 0 0 1 1.74 3.26zm-18 2a3.02 3.02 0 0 0 -3.02 0c0 -5.66 -4 -7.54 -9.66 -7.46A6.22 6.22 0 0 0 91.4 60c1.18 -6.22 3.14 -10.94 8.86 -13.82a17.78 17.78 0 0 1 10.98 -1.24c4.7 1.02 7.46 4 9.5 8.42a18.94 18.94 0 0 1 1.2 3.64c0.1 0.42 0.1 0.56 0.14 0.78a6.3 6.3 0 0 0 -3.16 -0.94c-5.82 0 -9.82 2.04 -9.66 7.8zm-7.44 6.12c-4.62 2.16 -9.08 0 -10 -2.82 -1.42 -4.48 0.32 -9.52 4.76 -9.74 12.72 -0.8 9.62 10.58 5.24 12.56zm8.3 -8.64c1.02 -3.64 5 -4.34 8.76 -4.1 4.48 0.22 6.16 5.3 4.76 9.74a5.88 5.88 0 0 1 -4.2 3.44 8.12 8.12 0 0 1 -5.72 -0.64 7.8 7.8 0 0 1 -3.6 -8.44zm-23.56 2.2a2.74 2.74 0 0 1 2 -3.64c1.04 0 1.5 0.74 2.12 0.76a10.7 10.7 0 0 0 0 6.82c-0.32 -0.32 -3.26 -1.6 -4.12 -3.94zm14.18 19.86a0.58 0.58 0 0 0 -0.38 -0.66 13.4 13.4 0 0 1 -8.36 -8 41.14 41.14 0 0 1 -1.26 -6.8c1.36 3.46 6.42 5.74 11.56 3.16a8 8 0 0 0 4 -6.5 4.24 4.24 0 0 0 1.3 0.18 63.22 63.22 0 0 0 -0.98 7.18 12.28 12.28 0 0 0 0 1.72 0.98 0.98 0 0 0 0.28 0.64c1.26 0.82 3.06 0 3.76 0a0.26 0.26 0 0 0 0.26 -0.28c0 -0.46 -0.82 -0.16 -2.32 -0.34a2.36 2.36 0 0 1 -0.78 -0.22 39.62 39.62 0 0 0 0.2 -8.78c2.1 0 0.78 -0.96 1.76 1.86a8.34 8.34 0 0 0 14.74 1.64 63.48 63.48 0 0 1 -2 7.86 13.36 13.36 0 0 1 -3.58 4.46c-3.56 2.84 -5.76 2.14 -5.54 3.3 0.32 1.54 2 9.64 2.38 12a102.68 102.68 0 0 0 -8.16 6.74 97.08 97.08 0 0 0 -8.72 -6.82c0.04 -0.2 1.12 -8.88 1.84 -12.34zm-0.18 23.36c-0.34 0.2 0.18 0.68 -5.54 -5.06l-4.34 -4.4c0.7 -0.58 4.18 -2.66 5.02 -3.16 0.48 0.38 10.18 8.44 10.56 8.8a49.54 49.54 0 0 1 -5.7 3.82z" stroke-width="1"></path><path d="M98.4 60.6c-1.52 -0.18 -2.5 0.66 -2.38 0.96s3.68 0.32 3.84 0 -0.76 -0.88 -1.46 -0.96zm18.34 1.12h0.68a5.52 5.52 0 0 0 1.52 -0.26c0.24 -0.38 -0.74 -0.94 -1.44 -1.02 -1.54 -0.2 -2.52 0.66 -2.38 0.96a4.28 4.28 0 0 0 1.62 0.32zm219.42 193.38a2.14 2.14 0 0 0 2 -3.02 2.28 2.28 0 0 0 -4.3 0.8 2.16 2.16 0 0 0 2.3 2.22zm-1.06 -2.58c0.22 -1.6 2.2 -1.04 1.8 0.5a0.92 0.92 0 0 1 -1.72 0 1.46 1.46 0 0 1 -0.08 -0.5zm0.56 -7.7a2.14 2.14 0 0 0 2 -3.02 2.28 2.28 0 0 0 -4.3 0.8 2.16 2.16 0 0 0 2.3 2.22zm-1.06 -2.6c0.22 -1.56 2.2 -1.06 1.8 0.52a0.92 0.92 0 0 1 -1.72 0 1.4 1.4 0 0 1 -0.08 -0.52z" stroke-width="1"></path><path d="M306.8 175.46a39.12 39.12 0 0 0 0.42 12 6 6 0 0 0 -0.16 5.8 10.56 10.56 0 0 0 4.56 4.32c2 6.16 4.24 13.16 9.86 16.98 -0.44 1.4 -2 6.28 -2.4 7.88L318 222c-0.24 0 0 -0.16 -3.84 2.8 -12.22 3.3 -18.9 8.88 -25.88 18.5a89.52 89.52 0 0 0 -7.12 11.48 0.3 0.3 0 0 0 0.12 0.4c0.74 0.38 0.64 -2 7.78 -11.32s13.28 -14.28 24.54 -17.46c0.74 0.52 12 8.54 13.12 8.94 1.48 0.58 2.84 -2.36 3.52 -4 -0.18 9.22 0.26 19.26 0.82 26.62a0.3 0.3 0 0 0 0.58 0c0.42 -9.82 -0.14 -22 -0.42 -25.66 -0.34 -4.14 -0.62 -2.32 1.66 1.12 0.62 0.92 1.54 2.12 2.54 1.68s12 -9.04 12.4 -9.42a42 42 0 0 1 11.24 5.22 61.84 61.84 0 0 1 14.28 13.82c5.52 7.34 5.26 9.6 6 9.3a0.3 0.3 0 0 0 0.16 -0.38 60.7 60.7 0 0 0 -19.66 -23.84 42.28 42.28 0 0 0 -12 -5.58c-4.72 -3.3 -4 -3.08 -4.82 -2.72 -0.66 -2 -1.72 -5 -2.96 -8a17.76 17.76 0 0 0 4.56 -6 32.94 32.94 0 0 0 2.7 -11.2 7.84 7.84 0 0 0 3.22 -6.38c0 -1.14 0 -0.72 0.2 -1.04a8.74 8.74 0 0 0 0.76 -1.72 17.04 17.04 0 0 0 0.96 -7.4c0 -7.5 -1.56 -13.68 -8.38 -17A46.44 46.44 0 0 0 336.8 160a37.66 37.66 0 0 0 -13.46 0.12c-8.92 2.3 -15.16 6.26 -16.54 15.34zM327.08 234c-0.38 -0.22 -11.78 -7.64 -12.68 -8.2l3.44 -3.12 12 6a20.5 20.5 0 0 1 -2.76 5.32zm16.42 -12 3.58 2.96c-0.88 0.6 -11.88 8.58 -12.24 8.84a20.78 20.78 0 0 1 -2.98 -5.18c0.14 0 6 -3.5 9.38 -5.34zm5.64 -32.2a6.6 6.6 0 0 1 -2.86 5.6c-0.32 0.28 -0.28 0.76 -0.36 1.6 -0.5 5.88 -2.26 12.26 -6.82 16 -0.64 0.5 0.42 1.12 3.08 8.88 -3.2 1.7 -8.34 4 -11.12 5.62 -0.3 0.18 -0.14 0.18 -0.52 0 -3 -1.58 -6.8 -2.9 -10.66 -4.7 0.26 -0.9 2.12 -6.58 2.66 -8.22 0.32 -0.96 -2.1 -0.74 -5.38 -6.36 -2.94 -5.04 -4 -11 -4.6 -11.46S306.78 194 308 189.06a1.4 1.4 0 0 1 0.68 -0.98c0.84 0 1.54 -0.24 2 -0.26s0.18 0 0.98 0.7c1.28 1.18 2.18 0.7 2.4 -0.48 0.54 -2.78 0.96 -10.22 1.86 -12.88 0.26 -0.72 -0.12 -0.14 2.44 0.2 6.2 0.8 19.52 -0.96 24.14 -1.4 1 1.74 1.64 11.12 2.26 12.24a0.76 0.76 0 0 0 0.92 0.42 2.38 2.38 0 0 1 3.44 1.68 9.22 9.22 0 0 1 0.02 1.48z" stroke-width="1"></path><path d="M339.62 184.9a14.18 14.18 0 0 0 -1.86 0c-0.8 0 -2.68 0.6 -2.52 1.1s6.94 0.32 7.04 0c0.28 -0.5 -1.68 -1.02 -2.66 -1.1zm-18.28 0.24a11.62 11.62 0 0 0 -1.86 0c-0.8 0 -2.68 0.56 -2.52 1.08s6.94 0.34 7.06 0c0.26 -0.48 -1.68 -1 -2.68 -1.08zm0.86 5.02a0.74 0.74 0 0 0 -1.46 0v1.62a0.72 0.72 0 0 0 1.44 0c0.04 -0.4 0.04 -1.2 0.02 -1.62zm6.32 9.26c0.54 1.46 2.82 0.86 4.26 0a0.3 0.3 0 0 0 -0.22 -0.54 5.04 5.04 0 0 1 -2.72 0c-0.32 -5 0 -3.02 -0.42 -8.58 0 -0.3 -0.48 -0.56 -0.58 0a26 26 0 0 0 -0.32 9.12zm1.28 -0.48zm9.06 -9.4a0.74 0.74 0 0 0 -1.46 0v1.6a0.74 0.74 0 0 0 1.46 0c0.02 -0.2 0 -1.34 0 -1.6zm-7.74 15.3c-0.76 0 -4 -0.12 -4.14 0.38s3.26 1.62 5.84 0.84c0.36 -0.12 2 -0.74 2 -1.16s-0.16 -0.18 -3.7 -0.06zm-148.84 -7.5c0 -0.58 -2.4 -0.74 -3.34 -0.68s-3.26 0.6 -3.22 1.08c0.08 0.82 6.52 0.26 6.56 -0.4zm-2.48 2.54c-0.32 0.14 -0.56 0.26 -0.56 2.48a0.72 0.72 0 0 0 1.44 0v-1.52a0.72 0.72 0 0 0 -0.88 -0.96zm11.6 9.16a0.3 0.3 0 0 0 0 -0.58c-0.6 0 -1.4 -0.16 -2 -0.3a6.16 6.16 0 0 1 -0.64 -0.22c-0.16 -0.56 0.18 -7.5 -0.2 -9.26 0 -0.4 -0.5 -0.64 -0.64 0.32s-0.32 1.7 -0.48 3.4a24.56 24.56 0 0 0 0 6c0.56 1.26 2.56 0.78 3.96 0.64zm6.86 -11.56c0.64 0 2.64 -0.28 2.62 -0.76S198.42 196 197.7 196s-3.24 0.16 -3.22 0.72 2.98 0.78 3.78 0.76zm-1.34 2.7a0.72 0.72 0 1 0 -1.42 0c0 0.88 0 1.52 0.12 2a0.72 0.72 0 1 0 1.42 -0.14c-0.04 -0.38 -0.06 -0.96 -0.12 -1.86zm-7.56 16c0 0.58 2.68 0.68 4.12 -0.44 0.72 -0.56 1.42 -2 1.04 -2.24s-0.2 0 -1.84 1.1c-1.16 0.72 -3.36 1.08 -3.32 1.58zm-123.78 31.12c-0.52 -1.8 -1.26 -4.1 -1.86 -5.88a22.72 22.72 0 0 0 5.6 -6.26c-0.3 2.58 -0.14 2.9 0.28 3.78a9.72 9.72 0 0 0 -1.78 2.88c-0.62 1.74 0.46 3.02 2.42 2.62s2 -3.04 2.76 -3.84c0.94 0 1.58 0 2.66 -1.86a20.98 20.98 0 0 0 1.32 -5.24 12.26 12.26 0 0 0 3.24 -5.18 8 8 0 0 0 0.38 -4.76 5.52 5.52 0 0 0 0.82 -1.6c0.9 -2.64 1.38 -6.74 -0.28 -8.88 -0.3 -0.36 -0.9 -0.92 -1.34 -0.86a12 12 0 0 0 0.46 -2.32c-0.26 -2.86 -1.04 -5.24 -3.7 -6.36 -0.18 0 -1.26 -0.26 -1.76 -0.42 -0.32 -1.22 0.24 -2.62 -1.9 -4.34a5.14 5.14 0 0 0 -2.22 -1.1 3.02 3.02 0 0 0 -1.5 0.22 3.4 3.4 0 0 0 -0.7 -1.54 6.92 6.92 0 0 0 -5.26 -1.64 13.02 13.02 0 0 0 -4.7 1.06 1.04 1.04 0 0 0 -0.92 -0.64c-0.42 0 -0.3 0 -0.4 -0.36 -0.62 -2 -2.18 -1.86 -3.54 -2a3.58 3.58 0 0 0 -3 -1.04 10.46 10.46 0 0 0 -2.14 0.82 9.88 9.88 0 0 0 -1.78 -0.78c-2.64 -0.34 -3.88 1.02 -5.32 3.18 -1.38 0 -1.88 -0.44 -3.52 0.5a10 10 0 0 0 -3.02 2.7 10 10 0 0 0 -1.02 2.24 5.56 5.56 0 0 0 0 1.38A5.32 5.32 0 0 0 31 204c-1.76 2.84 -0.44 6.62 0.88 7.24a3.4 3.4 0 0 0 0.8 0.26 3.82 3.82 0 0 0 -0.58 2.5 3 3 0 0 0 2.98 2.98 8.94 8.94 0 0 0 -0.2 6 5.48 5.48 0 0 0 1.52 8.36 4.64 4.64 0 0 0 3.74 0 16.14 16.14 0 0 0 6.76 10.26c-0.24 0.9 -1.14 4.52 -1.32 5.28a62.52 62.52 0 0 0 -12.9 3.64c-13.24 5.38 -22.26 15.3 -22.68 30a0.28 0.28 0 0 0 0.54 0c0.56 -11.3 6.32 -19.8 16 -25.54 2.58 1.9 8 5.24 8.92 6.32 -0.98 2.24 -4 6.44 -4 7.46 0 0.62 -0.34 -0.2 13 11.34a0.26 0.26 0 0 0 0.44 -0.2h3.74c0.16 0.48 0.62 0.22 0.52 0l-7 -24c6.24 5.22 19.28 5.78 25.28 1.28l-6.56 22.46c0 0.3 0.38 0.56 0.54 0h4.24a0.26 0.26 0 0 0 0.44 0.2c12.6 -10.88 12.32 -10.12 12.34 -10.74 0 -1 -2.9 -5.2 -4 -7.46a86.82 86.82 0 0 1 7.24 -5.12c7.58 6 11.4 13.66 13.64 22.66a0.26 0.26 0 0 0 0.52 -0.14c-3.44 -16.58 -12.8 -27.78 -30.26 -31.74zm9.2 -44.18s-0.02 -0.02 0 0zm-38.54 26.64a5.18 5.18 0 0 1 -0.8 -5.9 6.4 6.4 0 0 0 4 2 31.32 31.32 0 0 0 0.66 4.7 4.44 4.44 0 0 1 -3.86 -0.8zm28.96 27.2c-4.8 2.74 -16 2.5 -21.24 -1.2a19.14 19.14 0 0 1 -2.16 -1.76l-1.5 -5.12c1.82 -0.5 3.68 -0.92 5.5 -1.24 0.32 0 0.18 0 0.92 -3.28s0.86 -3.14 0.62 -3.3c-4.88 -3.04 -6.74 -8.84 -7.1 -14.58 0 -0.98 0 -1.14 -0.36 -1.28s-2.7 -0.36 -3.82 -2a3.4 3.4 0 0 1 1.46 -0.66 0.28 0.28 0 0 0 0 -0.54 4.42 4.42 0 0 0 -1.8 0.4 5.58 5.58 0 0 1 -0.24 -2.5c0.12 -1.32 0.62 -4 2 -4a5.78 5.78 0 0 0 0.98 0.92 0.54 0.54 0 0 0 0.4 0.24c2.44 1.26 3.58 -2.36 4.62 -4.46 0.2 -0.42 0.22 -1.68 0.38 -2.34 0.74 0 1 0.3 3.16 -0.96 1.7 -0.98 1.86 -2.7 2.54 -4.18h1.48a6.8 6.8 0 0 0 2.26 -0.54 4 4 0 0 0 0.42 1.74 13.48 13.48 0 0 0 4 4.72 11.76 11.76 0 0 0 2 0.74c-1.24 1.02 -0.72 5.32 2.72 6.62a9.74 9.74 0 0 0 1.62 0.42c-0.2 1.08 -2.3 3.8 2.88 5.78a8.54 8.54 0 0 0 1.1 0.16c-0.1 0.28 -0.26 0.72 -0.28 0.84a4.88 4.88 0 0 0 0 2.34c0.3 1.04 1.18 1.44 1.74 2 -0.28 1 -0.6 1.48 0 2.28 -3.58 7.66 -7.5 8 -7.06 9.18 0.68 2 1.58 4.64 2.14 6.64 0.18 0.68 0.66 0.24 5.16 1.7l-1.46 4.98a14.2 14.2 0 0 1 -3.08 2.24z" stroke-width="1"></path><path d="M45.58 215.1c-1.28 0.16 -2.26 1 -2.12 1.3s2 0 2.26 0c2.62 -0.24 2.74 0 2.82 -0.36s-1.04 -1.16 -2.96 -0.94zm1.14 4.18a0.66 0.66 0 0 0 -1.32 0.12v1.36a0.66 0.66 0 0 0 1.3 -0.12c0.06 -0.42 0.06 -0.92 0.02 -1.36zm10.58 8.72c-0.12 -0.42 -0.6 0 -2 -0.14a7.38 7.38 0 0 1 -1.3 -0.36 71.74 71.74 0 0 0 0 -8.54c0 -0.28 -0.44 -0.44 -0.54 0a35.84 35.84 0 0 0 -0.58 8.74c0 0.38 0.2 0.76 0.56 0.86a5.16 5.16 0 0 0 3.74 -0.28 0.26 0.26 0 0 0 0.12 -0.28zm3.24 4s-1.48 1.06 -1.52 1.08l-0.52 0.34c-0.56 0.34 -2.28 1.02 -2.28 1.12 0 0.52 2 0.92 3.6 -0.44 0.64 -0.52 1.22 -1.88 0.72 -2.1zm-15.6 -2.58a0.66 0.66 0 0 0 0 1.32 0.66 0.66 0 1 0 0 -1.32zm296.38 101.84a5.82 5.82 0 0 0 -4.14 10.52 6.32 6.32 0 0 0 6.5 0.32c3.98 -2.22 4.32 -10.38 -2.36 -10.84zm1.86 9.84a5.44 5.44 0 0 1 -5.26 -0.48c-3.44 -2.16 -2 -8.24 3.36 -8.16s5.92 6.78 1.9 8.64z" stroke-width="1"></path><path d="M389.7 356.68c-7.78 -100.74 -6.78 -86.18 -6.52 -88a0.28 0.28 0 0 0 -0.24 -0.32c-14 -2.16 -36.56 2.34 -38.44 5.12 -0.18 0.26 -0.16 0 0.56 5.8 -6.64 0.98 -22.86 4.54 -24.72 5.3 -0.7 0.28 -0.76 0.56 -0.32 7.58 -15.66 -2.88 -45.78 3.2 -46 3.22 -3.72 -3.36 -18.68 -6.92 -23.68 -6.94a12.74 12.74 0 0 0 -2 0.18l-6.58 -8.46c0.92 -0.74 2.62 -2 2 -3.12s-1.7 -3.34 -2.9 -5.36c15.76 -14.2 25.68 -35.54 24.86 -62.3 -1.36 -44.38 -22.36 -69.9 -67.06 -74.24 -89.82 -8.58 -121.7 95.68 -64.36 137.86 25.7 18.86 56.18 22.78 81.8 13.46 0.7 1.46 2.44 5.16 3.84 5.52a10.64 10.64 0 0 0 3.78 -1.24c0.46 0.74 9.52 15.08 15.12 23.74 -6.18 2.62 -17.34 9.2 -14.82 15.46a8.2 8.2 0 0 0 4.7 4.58c3.8 1.52 7.42 0.36 11.2 -1.38 -2 2.12 -2.8 4.42 -2 6.54a8.42 8.42 0 0 0 10.22 4.5c3.2 -0.9 3.16 -1.4 2.18 -0.32 -1.88 2 -2.76 4.28 -2 6.36a7.18 7.18 0 0 0 4 4c3.84 1.54 7.8 -0.12 11.8 -2.22 3.2 4.34 6 8 8.36 10.52 1.48 1.64 4.52 6.58 9.76 8 3.24 0.92 7.32 0.56 12.4 -2.7 6.76 -4.36 4.28 -12.52 -0.22 -19.2a58 58 0 0 0 8 -4c1.42 -0.76 15.66 1.14 22.38 1.08 0.5 3.82 0.66 5.18 1.18 5.42 4 2 22.58 -0.56 27.24 -1.38 0.7 5.68 0.62 5.5 0.82 5.72 1.78 1.74 11.7 2.16 14.2 2.26a176.54 176.54 0 0 0 21.12 -0.52 0.28 0.28 0 0 0 0.34 -0.52zM135.28 271.78C79.18 230.54 110.24 128 198.66 136.36q64.44 6 66.6 73c2.18 71.16 -74.02 103.66 -129.98 62.42zm85 19.12c-0.86 -0.22 -2.86 -4 -3.28 -4.76a75.34 75.34 0 0 0 23 -13.58c1.1 1.88 2.1 3.76 2.68 4.94 -4.94 4.72 -20.32 13.08 -22.4 13.4zm19.24 41.1c-3.52 1.46 -6.76 2.6 -10.18 1.24a7 7 0 0 1 -4 -3.84c-2.22 -5.46 10.26 -12.5 15.86 -14.5 3.6 -1.32 8.18 -2.48 11.76 -1.08s4 4.26 2 7.2a24 24 0 0 1 -6 5.74c-5.36 2.72 -4.06 2.98 -9.44 5.24zm12.56 9.48c-3.18 1.32 -6.1 2.36 -9.16 1.1a6.14 6.14 0 0 1 -3.52 -3.44c-2 -4.9 9.32 -11.26 14.34 -13.06 3.24 -1.2 7.4 -2.28 10.62 -1s3.58 3.86 1.82 6.48a24.76 24.76 0 0 1 -7.12 6.26 62.34 62.34 0 0 1 -7.06 3.64zm9.82 10.4c-3 1.24 -5.78 2.24 -8.7 1.04a5.86 5.86 0 0 1 -3.32 -3.24c-1.86 -4.66 8.9 -10.72 13.62 -12.42 3.06 -1.12 7.02 -2.14 10 -0.94s3.44 3.62 1.74 6.14c-2.56 3.84 -8.96 7.54 -13.24 9.4zm40.5 -8a58.8 58.8 0 0 1 -8.18 4c-0.16 -0.22 -15.66 -20.3 -28.66 -37.08l4.78 0.7a35.22 35.22 0 0 0 13.22 15.02 24.82 24.82 0 0 0 20 2.16 0.28 0.28 0 1 0 -0.14 -0.54c-10.76 2.78 -19.86 -0.7 -26.74 -9.04a36.18 36.18 0 0 1 -5.24 -8.44 0.68 0.68 0 0 0 -0.5 -0.4c-14.26 -2.12 -18.7 -2.26 -23.68 -4.48a11.5 11.5 0 0 1 -7.08 -7.82 4.82 4.82 0 0 1 1.76 -5.06 14.44 14.44 0 0 1 8.48 -3.06 65 65 0 0 1 14.32 2.74c9.44 2.8 8.16 4.1 9.34 4 0.74 0 27.12 -6.62 46.1 -3.14 0.94 13.62 3.42 39.56 4.98 51.82 -7.06 -0.08 -20.88 -2.36 -22.76 -1.38zm24.74 6.26c-0.78 -3.06 -6.42 -59.72 -6.16 -64.56 2.24 -0.78 17.76 -4.58 24.16 -5.72l8.38 69.26c-4.52 0.68 -22.4 2.58 -26.38 1.02z" stroke-width="1"></path><path d="M248.82 210c-0.7 -22.58 -7.84 -42.14 -28.3 -52a69.66 69.66 0 0 0 -25.44 -6.84c-71.08 -6.68 -94.58 76 -49.68 109.04 44.6 32.66 105.16 7.14 103.42 -50.2zm-0.6 0c0.56 18 -5.34 32.98 -15.04 43.74a43.4 43.4 0 0 0 -27.84 -21.66l-0.44 -1.18c-0.52 -1.22 -2.8 -1.24 -4.12 -1.06 -0.16 0 -0.2 0.14 -0.46 0.44 -0.42 -2.36 -0.52 -1.08 0.44 -2.3 0.64 -0.8 0.82 -1.74 1.52 -2.3s1 -1.6 1.66 -2.34a8.58 8.58 0 0 0 1.8 -4c0.28 -2 1.86 -4 1.48 -6.18 -0.26 -1.66 -0.34 -4.16 -0.46 -4.32 0.24 -1.48 0.14 -1.38 1.32 -2.54 2.26 -2.16 4.34 -4.34 3.42 -7.5a5.34 5.34 0 0 0 -1.38 -2.52c1.16 -0.64 1.06 -2.92 0.78 -4.1 -0.34 -1.54 -2 -1.72 -1.32 -3.04a13.52 13.52 0 0 0 2.22 -3.72c0.44 -1.68 -0.3 -2 -1.6 -4.62 -0.94 -1.84 -0.9 -2.76 -2.24 -3.76s-3.2 -1.04 -4.56 -1.78c-0.9 -0.5 -1.42 -2.9 -2.92 -3.6 -4.5 -2 -5.6 -0.84 -7.74 -0.3 -2.7 0.68 -2 -1.58 -6 -1.5a22.74 22.74 0 0 0 -3.12 0.36c-2.12 0.34 -3.42 2.3 -5.04 2.74s-2.6 -1.54 -8 2.12c-1.3 0.88 -1.6 2.88 -2.24 4 -1.5 2.78 -5.02 4 -4.18 8.48 0.42 2.12 1.6 3.1 2.18 4.92 0.14 0.5 -0.4 1.64 -0.48 2.26a5.84 5.84 0 0 0 0.5 3.36c-3.36 3.86 -0.32 8 4 10.78a10 10 0 0 1 0.42 1.3 0.64 0.64 0 0 0 0 0.28c0 3.62 -0.36 5.74 1.56 8.92 0.66 1.06 1.46 3.38 2.3 4.58 1.2 1.76 2.26 1.74 3.82 3.84a34 34 0 0 0 -0.88 3.64c-0.54 -0.48 -0.64 -0.66 -0.88 -0.54a10.9 10.9 0 0 0 -2.76 1.52c-10.88 3.6 -22.56 10.54 -29.18 20 -18.52 -25.72 -11.28 -64.62 16 -83.52 16.16 -11.2 36.38 -13.24 55.28 -9.14 9.08 2 9.78 3.52 10.56 2.78 15.52 10.68 21.04 28.64 21.62 47.46zm-28.34 -50.7C142.12 138 105.56 229.52 157.02 265.54c-62.38 -30.94 -30.66 -127.82 48.82 -111.24a59.6 59.6 0 0 1 14.04 5zm-41.16 72.44a23.34 23.34 0 0 1 0.6 -2.62 16.94 16.94 0 0 0 4.28 2c3.88 1.68 6.62 1.1 10.66 0.2a9.06 9.06 0 0 0 2.36 -1.34 13.24 13.24 0 0 1 2.4 -0.68 19.68 19.68 0 0 1 0.3 2c0 0.2 -0.26 0.48 -0.46 0.82 -1.7 2 -4.52 5.6 -6 7.84 -0.46 0.74 -0.94 1.48 -0.48 2a0.76 0.76 0 0 0 0.26 0.18c-1.48 2.32 -2 2.8 -2.4 3.64 -0.9 -0.88 -2.88 -3.18 -3.7 -4.14 0.28 -0.38 0.3 -0.76 -0.74 -2 -1.3 -1.52 -3.42 -3.54 -4.88 -4.9a38.14 38.14 0 0 1 -2.2 -3zM168 198.26c0.82 -0.72 1.54 0.14 2.58 0.28a2.64 2.64 0 0 0 0.72 0.4c0.86 0.24 1.36 -0.6 1.56 -1.52 0.3 -1.56 0 -4 0.3 -5.08a23.42 23.42 0 0 1 1.62 -3.52c0.14 -0.26 1.12 -1.66 1.32 -1.66 0.52 0 -0.36 2 0.98 2.48s2.46 -0.32 3.42 -1.6 1.2 -1.46 2.32 -0.84 1.66 1.1 2.76 0.86a4.64 4.64 0 0 0 2.14 -1.44c0.62 -0.56 0.94 -0.84 2 -0.14a18.48 18.48 0 0 0 2 1.4c1.42 0.54 2.34 -1.48 2.76 -1.38 1.16 0.26 1.44 2 3.42 1.62 0.52 0 1.12 -0.32 1.48 -0.42 0.48 0.32 1.04 0.94 1.54 1.3s1.18 0.24 1.42 1.28a20.38 20.38 0 0 0 0.4 3.02c0.28 0.68 0 2.7 0.82 3.86 1.24 1.62 3.28 0.22 5.52 -0.48a3.38 3.38 0 0 1 1.56 2.42c0.72 2.66 -1.26 4.52 -3.24 6.36 -1.52 1.42 -1.4 1.48 -1.82 3.74s-1.02 5.44 -2.94 6.8a10.66 10.66 0 0 0 -2.22 1.6c-0.6 0.72 -0.8 1.64 -1.64 1.68 -1.16 0 -1.72 -0.48 -3.36 0.44s-2 1.72 -3.42 1.6 -1.6 -0.52 -2.42 -0.3 -0.88 0.74 -2.46 0.4a6 6 0 0 0 -2.46 -0.26c-0.5 0 -1.12 0.34 -1.4 0.12 -1.26 -1.04 -2 -2.74 -3.62 -3.64 -1.08 -0.58 -2.76 -0.62 -3.68 -1.22a36.38 36.38 0 0 1 -3.66 -5.64 15.74 15.74 0 0 0 -0.8 -2.48c-0.48 -0.64 -9.04 -5.2 -3.5 -10.04zm38.38 44.46c-1.74 -0.28 2.14 0.44 -12.48 -1.72 1.14 -2 5.82 -8.66 7.14 -10.52 0.82 0 2.86 0.1 3.1 0.8a69.24 69.24 0 0 1 2.18 11.44zm-21.26 -1.86c-14 4 -8.62 2.38 -12.94 3.54 -0.8 -2.64 0.86 -8.22 1.82 -10.84 0.26 -0.72 2 -1.62 2.6 -2 1.52 1.68 7.06 7.52 8.46 9.3zm-2 2 2.12 -0.64a48 48 0 0 0 4.76 5.12c0.54 0.26 0.92 0 1.3 -0.54 0.8 -0.96 2.3 -3.34 2.94 -4.36l4.64 0.72a105.46 105.46 0 0 0 -4 29.76c-2 0.2 -4.24 0.32 -6.38 0.34a97.74 97.74 0 0 0 -5.42 -30.38z" stroke-width="1"></path></g></svg>