<svg xmlns="http://www.w3.org/2000/svg" viewBox="0 0 400 400" id="Hiring-2--Streamline-Milano" height="400" width="400"><desc>Hiring 2 Streamline Illustration: https://streamlinehq.com</desc><g fill="#000000"><path d="M349.9508 133.6442C349.7682 133.6442 346.8014 135.7666 345.5692 135.0134S344.2226 138.4594 350.4984 134.4886C350.8234 134.2778 350.7984 133.7942 350.4534 133.6182C350.2932 133.5364 350.1016 133.5464 349.9508 133.6442M348.262 125.3602C349.0836 123.9224 347.8056 122.7586 347.0068 124.1734S347.4632 126.775 348.262 125.3602M228.9302 99.8232C217.4084 105.77 211.636 118.9818 215.1006 131.4762C215.1684 131.7502 215.4406 131.9216 215.7168 131.8642C215.9908 131.8642 217.0862 132.138 217.0404 131.8642C213.6878 119.8436 219.2086 107.117 230.2768 101.3524C230.5506 101.3524 229.729 100.3026 229.592 100.0516C229.478 99.8002 229.1824 99.688 228.9302 99.8004M53.1618 138.2312C54.0618 138.443 55.0066 138.1656 55.6494 137.501C55.9332 137.2136 55.7994 136.7264 55.4084 136.6244C55.2738 136.5892 55.1306 136.609 55.0104 136.6794C51.4958 139.418 53.5498 131.5676 51.5872 132.8454C51.1764 133.1194 51.473 133.279 51.5872 134.7396S51.9752 137.7748 53.0934 138.2312M57.361 139.9428C57.5288 139.5754 57.2358 139.164 56.8336 139.2024C56.7142 139.2138 56.6024 139.2658 56.5166 139.3496C54.7136 141.9054 51.9524 140.0798 51.8154 141.2436S56.5622 141.5404 57.361 139.9428M56.7448 133.051C57.4522 132.8456 56.9044 130.9742 56.197 131.1796S56.0374 133.2562 56.7448 133.051M48.2096 133.941C47.5022 134.1464 48.05 136.0176 48.7574 135.8122S48.917 133.7356 48.2096 133.941M150.2886 116.0264C151.4396 89.8054 123.7742 72.1712 100.4906 84.2848C77.207 96.3984 75.7682 129.1746 97.9006 143.282C102.9416 146.495 108.7386 148.3262 114.7104 148.592C133.5022 149.3534 149.3888 134.812 150.2886 116.0264M114.7562 147.6336C108.4802 147.3598 101.0634 144.4614 101.0634 143.7768C101.0634 143.617 103.9846 129.468 110.7396 127.0718C110.7396 127.1858 115.6234 132.8682 115.783 132.8682L119.9136 127.2772S125.8244 129.8558 125.8928 129.8102S126.8742 122.6672 126.8056 122.576C137.1208 118.3996 146.8654 126.1588 147.0936 126.2502C142.0438 139.5978 129.0154 148.213 114.7562 147.6336M108.1152 112.2608C109.1712 111.899 110.1204 111.2792 110.8766 110.458C111.5016 109.3812 111.9196 108.197 112.1088 106.9664C112.611 104.9352 113.2728 102.151 114.391 102.1966C114.391 104.4788 117.6772 107.765 120.1648 107.1716C120.7 109.4714 122.452 111.2934 124.729 111.9184C125.3706 112.9448 125.6142 114.1708 125.4136 115.3644C125.214 117.3382 124.2768 119.164 122.7892 120.4764C122.561 120.6134 122.538 121.2068 122.538 121.2524C122.6036 121.94 122.7336 122.62 122.926 123.2834C121.0318 126.0448 116.9698 126.0676 115.2126 125.771H114.8246V125.5656C114.579 124.9558 114.4028 124.3204 114.2996 123.6714C114.2996 123.0552 110.8764 124.105 108.0466 121.6174C106.326 120.5608 105.0146 118.9518 104.3268 117.0532C104.3268 116.9164 103.3912 113.9268 108.138 112.489M115.144 127.0032C116.4346 127.12 117.7332 127.12 119.0236 127.0032L115.8744 131.5674C114.6812 129.944 113.361 128.4178 111.9262 127.0032C112.9974 126.9228 114.073 126.9228 115.144 127.0032M125.9612 123.1922L125.3222 128.7604L120.758 126.5924C121.8534 126.1818 125.3222 123.4888 126.0754 123.1922M83.1716 113.0368C84.6314 87.623 113.055 73.3196 134.334 87.2908C146.8096 95.4818 152.2524 111.014 147.6186 125.2004C146.69 124.5088 145.714 123.8834 144.6974 123.329C144.81 123.2948 144.907 123.2222 144.9714 123.1236C148.4174 116.9392 150.6766 103.4518 142.9174 98.5454C141.4548 97.681 139.8458 97.093 138.1706 96.811C136.8992 96.595 135.668 96.1872 134.5192 95.6014C133.5002 95.0982 132.7804 94.1412 132.5794 93.0226C132.3348 92.071 131.8742 91.1884 131.233 90.4438C128.0836 86.9978 123.7932 88.7094 120.9862 88.0248C119.6262 87.6936 118.3708 87.0266 117.335 86.085C111.9492 81.6576 100.0822 84.807 97.7772 97.4956C97.7772 98.1118 96.8416 98.6138 95.8146 99.23C92.5944 100.7656 90.364 103.8196 89.881 107.3542C89.4068 111.1086 90.6088 114.8814 93.1674 117.6694C93.4412 118.0346 93.715 118.377 93.9204 118.6964S93.715 120.2254 93.2814 121.3894C91.6154 125.7482 88.5574 133.804 100.5842 142.0652L100.2646 143.3888C89.316 137.301 82.7438 125.5524 83.2858 113.0368" stroke-width="1"></path><path d="M113.3868 113.265C113.5466 114.3832 114.2084 117.076 116.308 116.0034C116.5744 115.918 116.7114 115.6232 116.6046 115.3644C116.5208 115.0844 116.2078 114.9442 115.9428 115.0678C115.6608 115.1998 115.3348 115.1998 115.0528 115.0678C114.6648 114.8396 114.528 113.904 114.391 113.0596C114.341 112.3196 114.1634 111.5938 113.866 110.9144C113.6816 110.5718 113.1956 110.5574 112.991 110.8884C112.8962 111.042 112.8904 111.2346 112.976 111.3936C113.2026 111.9706 113.341 112.5784 113.3868 113.1964M114.3226 118.8334C114.0356 118.6642 113.8484 118.3664 113.8204 118.0346C113.763 117.7618 113.5026 117.5814 113.2272 117.6238C112.2002 117.7608 112.9304 120.4536 116.6274 119.7234C116.8788 119.6092 116.991 119.3136 116.8786 119.0616C116.7732 118.8012 116.475 118.6778 116.2166 118.7876C115.6152 119.062 114.9242 119.062 114.3226 118.7876M110.9222 113.9268C111.3102 113.9268 111.447 113.1508 111.2644 112.4434S110.6026 111.211 110.2376 111.3024S109.7126 112.0782 109.918 112.7856S110.557 114.018 110.9222 113.9268M118.3846 111.9414C119.2748 111.713 118.5672 109.0886 117.6772 109.3396S117.4946 112.1924 118.3846 111.9414M152.3882 261.0546C149.6952 260.621 148.6912 273.4922 146.2722 278.627C143.4158 277.2558 140.6352 275.7322 137.9424 274.0628C136.4818 273.264 134.9984 274.656 136.5732 276.3448C136.5732 276.3448 144.6746 284.4236 148.326 284.5832C152.662 283.6932 153.5064 263.5878 153.5064 263.3596C153.5064 262.7662 153.5064 261.2144 152.3882 261.0774M140.042 221.4372C138.8324 221.2318 138.3988 222.7152 138.1706 223.5138C137.0068 227.5076 134.93 236.9098 133.9258 238.9182C130.1832 237.7772 125.1398 232.825 123.7932 234.4908C123.4738 234.9016 123.2912 235.6092 124.2268 236.773C124.2268 236.773 132.3284 244.8516 135.957 245.0114C140.293 244.1214 141.1374 224.016 141.1602 223.7878C141.1602 223.2172 141.1602 221.6654 140.0192 221.5056M128.8824 191.8154C127.65 191.6328 127.2164 193.1162 127.011 193.9148C125.8472 197.9086 123.7704 207.288 122.7664 209.3876C118.7042 208.1552 114.0942 203.1802 112.6566 204.9832C112.337 205.394 112.1316 206.1014 113.0674 207.2652C113.0674 207.2652 121.1916 215.3212 124.8202 215.5038C129.1562 214.5908 130.0006 194.4854 130.0006 194.28C130.0006 193.6868 130.0006 192.1348 128.8824 191.998M120.2332 162.8096C117.5402 162.376 116.559 175.27 114.1172 180.382C111.2634 179.0204 108.4898 177.4964 105.8102 175.8178C104.3496 175.019 102.8664 176.411 104.441 178.0998C104.441 178.0998 112.5424 186.1556 116.171 186.3154C120.507 185.4254 121.3514 165.32 121.3514 165.0918C121.3514 164.5212 121.3514 162.9694 120.2332 162.8096M132.1458 170.8198C132.5338 172.0294 208.0946 149.4136 207.6382 147.4738C205.3332 144.5756 130.0234 170.4548 132.1458 170.8198ZM145.3364 200.3048C145.7016 201.5372 221.1254 177.94 220.8288 176.9588C219.9844 174.5626 144.4692 197.8402 145.3364 200.3048ZM154.2366 232.0718C154.6018 234.7418 229.98 210.9166 229.7518 208.7258C227.2416 206.3296 153.5292 229.7898 154.2366 232.0718ZM165.5104 271.1872C166.3548 274.4278 241.9156 250.6482 241.0026 247.8412C240.4778 246.1982 164.9626 269.7268 165.5104 271.1872M197.2546 71.2968C197.1176 70.886 187.51 73.579 175.8026 77.2076C147.6642 86.0394 147.8696 87.6368 176.2818 78.691C187.9892 75.0168 197.3914 71.7076 197.2546 71.2968M180.2984 88.8692C168.5684 92.5662 159.1888 95.8752 159.3258 96.286S169.0704 94.004 180.7776 90.3754C208.9162 81.5208 208.7108 79.9462 180.2984 88.8692M237.9446 75.1764C244.5194 74.2622 251.0234 72.8974 257.411 71.0916C283.0164 64.77 282.9252 63.3324 257.046 69.7222C246.3884 72.3466 237.8306 74.7886 237.9446 75.1766M294.4954 220.1136C289.8422 221.2328 285.2678 222.6584 280.8028 224.3812C281.2364 225.7732 287.649 223.628 295.317 221.5056S309.0096 217.6032 308.325 216.7132C303.6186 217.5568 298.9694 218.6926 294.4042 220.1136M101.3144 208.2694C100.9036 206.6492 90.4516 209.844 78.7216 213.3814S58.4336 219.8398 58.89 221.0948C59.0496 221.4828 68.6346 218.9498 80.3646 215.4124S101.4514 208.566 101.3144 208.2694" stroke-width="1"></path><path d="M395.5474 218.2422C395.73 218.2422 396.3234 193.139 392.9914 181.7284C393.95 182.0936 394.3608 181.7284 393.2196 180.1766C389.2716 174.494 394.9312 174.517 388.1762 168.3324C387.8398 168.99 387.3048 169.525 386.6472 169.8614C384.365 170.934 384.7758 168.3324 388.0164 177.3696C388.9402 178.8836 390.247 180.1274 391.8048 180.9752L391.9874 181.523C395.3876 192.7282 394.7714 217.0556 394.7714 217.4206C380.7822 219.7028 341.119 218.1738 337.422 216.485C337.443 214.3714 337.6492 212.2638 338.0382 210.1864C345.6832 215.8004 354.013 215.6634 356.8428 214.5452C362.3654 212.3772 357.9154 205.5994 361.1332 194.6452C364.8074 182.1392 370.5354 181.4318 371.0376 170.7742C371.9048 153.567 364.077 150.6688 357.9382 150.8742C360.3644 150.013 362.885 149.446 365.4464 149.1854C370.9352 150.6508 375.842 153.7654 379.5042 158.1084C381.7502 161.348 383.4894 164.911 384.6618 168.6746C385.274 167.8056 386.1568 167.1638 387.172 166.849C386.921 165.708 388.085 163.4714 387.172 160.2994C386.4744 158.4548 385.4108 156.7702 384.0456 155.3472C384.193 152.9732 383.8752 150.5932 383.11 148.341C381.946 145.1918 379.3216 144.1648 379.641 143.366C383.2012 134.5114 382.722 117.5096 373.1142 112.4206S359.4216 109.7048 358.6228 109.0886C350.042 104.0224 340.868 115.2048 340.7766 117.4868C340.7766 118.0574 342.2144 119.3126 344.1998 120.6134C343.339 123.1726 342.0588 125.5712 340.4116 127.7108C339.3316 128.6374 339.6598 130.3856 341.0022 130.8576C341.136 130.9046 341.2748 130.936 341.4158 130.9514C342.2372 132.914 340.3432 138.8932 342.4426 142.5902C345.5692 148.1128 355.679 143.7084 354.0814 151.3534L351.7994 151.9468C346.094 153.5442 323.0446 170.4776 323.387 175.9546C323.387 177.2782 323.5696 178.579 323.7066 179.8114C323.7066 179.8114 323.4782 180.0624 323.3414 180.131C317.5904 184.0562 299.1966 183.7366 288.3566 179.8798C290.6386 175.6808 288.813 174.882 285.504 178.6932L285.116 178.4878C284.865 178.328 286.8048 176.2056 286.1886 175.0874S283.5414 175.909 282.6284 176.9132C282.1476 176.4894 281.6976 176.0318 281.282 175.5438C280.6886 173.9692 280.1866 170.6602 277.8588 169.907C277.6306 169.907 275.417 165.6852 274.9606 164.8408C276.7634 164.4528 295.4996 159.0898 300.6344 158.5878C301.7526 158.5878 301.6384 157.3782 300.7484 157.3554C295.317 157.1956 274.39 163.3118 274.139 163.3574L272.108 159.7516C300.1964 140.3874 296.7892 97.878 265.975 83.2348C256.4998 78.732 245.7344 77.7366 235.594 80.4254C231.646 69.7906 227.8578 60.32 224.3432 52.6292C224.4254 52.6516 224.5122 52.6516 224.5944 52.6292H224.754L272.2676 39.9406V40.1004C293.035 78.8964 297.0514 145.0776 314.0304 182.1164C314.103 182.2928 314.2732 182.4092 314.464 182.413C314.5384 182.4346 314.6176 182.4346 314.6922 182.413C314.9436 182.299 315.0558 182.0034 314.9432 181.7512C298.0328 144.7124 294.039 78.5996 273.2034 39.7124L272.6784 38.7996L224.252 51.7848C224.054 51.851 223.9178 52.0328 223.9096 52.2412C222.586 49.343 221.2852 46.6728 220.03 44.2994C219.899 44.0522 219.591 43.9598 219.3454 44.094C219.0996 44.2256 218.9994 44.5262 219.1172 44.7788C224.9116 56.4496 229.9948 68.4602 234.3388 80.7448C216.0146 85.9832 203.0756 102.329 202.184 121.3664C200.769 152.9966 231.4634 176.2742 261.1994 165.2744C270.3278 195.3754 296.3212 287.6642 296.4352 288.8964C296.6178 291.0188 251.8656 306.0124 209.4638 316.2818C174.2052 324.7942 140.0192 329.0616 140.0192 329.0616S124.8658 283.99 113.7976 246.586C96.8644 189.5332 76.0742 118.7876 62.4958 88.1388C69.342 81.1556 84.8148 78.7594 97.5034 76.135C102.0676 75.1536 106.6318 74.2408 109.8952 73.2596C118.5216 70.7492 127.4676 67.7824 136.9382 64.656C164.3236 55.5274 191.9372 48.2018 217.6338 44.5276C218.7978 44.3452 219.1856 43.98 219.1856 43.7062C219.186 43.4196 218.947 43.191 218.6608 43.204C192.5534 43.9572 164.0954 53.3594 136.5048 62.4422C127.0796 65.4774 118.2022 68.5126 109.5986 71.0458C106.2894 72.0044 101.9078 72.9172 97.2752 73.8756C84.3584 76.5458 68.315 79.8776 61.4002 87.2032C61.2406 87.363 61.0352 87.4314 61.4002 88.0932C69.5018 107.0576 84.4952 151.9924 83.9932 151.8554S83.1488 152.6998 82.7152 153.7724C81.4372 150.7372 72.9478 140.2852 63.1804 144.3016C62.62 144.5306 62.0392 144.7064 61.446 144.8266C61.446 144.6212 61.0124 143.6856 60.921 143.4802C61.9228 143.0062 62.7292 142.1996 63.2032 141.198C64.3072 138.7492 64.5564 136.0006 63.9106 133.3932C64.47 133.288 64.9404 132.9116 65.1658 132.389C65.6714 131.1532 65.3732 129.7338 64.4126 128.8062C63.712 126.0348 62.1056 123.577 59.8484 121.8228C55.056 118.1258 46.0188 120.5448 41.8654 125.246C39.4594 128.0754 38.4836 131.852 39.2182 135.4928C38.7224 135.9612 38.4914 136.6454 38.602 137.3184C38.7846 139.0756 40.7014 141.0382 42.1392 140.1482C45.9048 148.0444 51.2676 145.4428 51.9066 146.675C52.4088 147.5652 52.6142 147.9302 51.7698 148.09C42.1848 149.4136 36.822 160.9612 36.4112 167.3054C11.3078 149.3224 25.1832 109.6592 55.5124 111.0056C66.6492 111.5078 70.0724 116.711 70.8938 115.3644C71.05 115.1332 70.9766 114.818 70.7342 114.6798C49.744 101.6602 22.5308 116.2454 21.7506 140.9334C20.9704 165.6212 47.208 181.8958 68.9786 170.2276C76.0358 166.4452 81.424 160.1606 84.0844 152.6086S90.5428 173.1476 93.8292 183.7822C87.6902 184.7864 50.469 196.4252 50.6972 197.338C51.2448 200.2134 88.7628 187.89 94.2628 185.2428C99.9452 203.8192 105.0572 221.0492 110.3744 239.0094C105.6732 239.3974 65.3026 252.4968 65.4396 253.478C65.4396 253.729 65.4396 254.368 66.1242 254.3224C72.9706 253.8888 106.9056 242.0446 110.6712 240.0136L112.725 246.8598C115.8058 257.312 118.7726 267.399 121.5796 276.6644C118.6814 277.1436 108.8226 279.9506 97.161 283.6248C83.3314 287.9836 72.2632 291.9316 72.4228 292.4108C72.5742 292.8402 73.0384 293.0724 73.4726 292.9358C76.8046 292.274 86.572 288.9192 97.7316 285.4048C109.3704 281.7306 119.229 278.9692 121.8762 277.714C128.3346 299.2572 133.013 315.62 136.7784 326.072C115.8058 335.406 92.9618 342.4576 74.5452 340.1298C74.0204 338.4412 22.2392 170.409 6.0818 114.0408C22.6728 109.2256 61.3318 95.784 61.7426 95.5558S62.1534 94.369 62.062 94.118C61.9752 93.852 61.6878 93.7084 61.423 93.7984C61.0122 93.9582 20.596 107.0576 4.6212 113.1736C3.754 113.516 4.005 113.904 4.142 114.3604C25.069 187.388 73.0618 342.3664 73.3358 342.3664C97.412 343.439 116.5818 337.3686 137.8738 327.9206L138.764 330.2026S138.9464 330.7504 139.2204 330.7732C159.052 331.184 199.0802 322.4206 229.9116 314.0682C259.7844 305.9894 293.8108 294.83 298.0782 289.4212C298.2152 289.2388 298.0782 288.577 298.0782 288.4628C296.4352 282.2098 296.07 281.0916 295.7962 280.2244S295.2942 278.7866 295.4994 278.8552C299.9268 280.2928 318.7542 271.096 318.7314 271.1644C309.8996 294.693 300.7484 318.0618 294.1986 342.1154C294.039 342.7314 297.85 345.972 298.763 346.6796C294.7464 350.4678 288.3108 353.64 279.9582 359.4822C279.7668 359.6342 279.6934 359.891 279.7758 360.1212C279.7758 360.3038 279.9126 360.4636 281.0308 360.5092S285.1616 360.5092 291.2548 360.144C306.6362 359.2996 307.2296 359.9158 306.5222 353.2976C306.341 352.2864 306.341 351.251 306.5222 350.2396C306.9018 350.3532 307.3064 350.3532 307.686 350.2396C319.7356 344.2148 338.7684 322.7174 355.154 301.9958C351.6852 353.3432 353.739 349.0758 356.934 349.669C351.959 353.6856 339.8866 359.2768 340.9592 360.8514C340.9592 361.0112 341.6894 361.1254 342.6936 361.171C348.3304 361.422 365.5148 359.9842 365.8114 359.9386C369.691 359.2084 367.0894 351.9056 367.8882 349.7376C367.9248 349.602 367.9786 349.4716 368.0478 349.3496C369.6226 348.8992 371.0846 348.1216 372.3382 347.0674C381.4668 320.2754 386.031 286.9566 389.6138 260.1646C390.23 255.6004 390.8234 251.2872 391.394 247.2478C391.394 247.2478 397.6698 222.715 395.5702 218.0368M358.4858 123.7854C359.458 125.252 360.1754 126.8724 360.6082 128.5778C358.1206 126.9576 354.1042 125.4286 352.3926 124.4244C355.6788 124.8352 355.4506 119.7004 358.4858 123.7854M346.4818 122.051C348.0148 122.9182 349.6272 123.6366 351.2972 124.1962C350.7316 125.7704 349.9148 127.2424 348.878 128.555C347.211 128.3124 345.6368 127.6356 344.3138 126.5924C344.1084 125.9534 345.957 123.0096 346.596 122.0282M349.266 144.8494C346.984 144.393 344.4736 143.9136 343.3554 141.951C341.3472 138.4594 343.4694 132.4802 342.3056 130.2438C342.3056 130.0384 341.0276 129.9016 340.8222 129.1028S344.2454 123.3974 345.1126 121.047L345.6832 121.3892S342.648 126.2274 343.6292 127.0946S348.1934 130.0384 349.517 129.3766C350.6088 128.1804 351.461 126.786 352.0274 125.2688C355.1672 126.717 358.2158 128.3556 361.1558 130.1754C361.1558 130.4948 361.3156 130.7916 361.384 131.111C361.6352 132.1836 363.6662 131.111 364.6018 131.7956S365.2408 136.3598 362.5936 135.3786C362.5936 135.3786 362.7078 135.0134 362.3426 134.808C359.5128 133.165 356.0896 141.1524 362.16 141.5174C362.433 141.5186 362.6612 141.3102 362.6848 141.0382C362.6848 140.0112 360.4028 141.0382 359.8778 139.0984C359.6008 137.914 360.0054 136.6738 360.9276 135.8806C361.7264 135.2188 361.8634 136.0632 362.3882 135.584C361.9318 136.9532 363.5064 145.5112 364.3964 148.1812C361.2752 148.7118 358.2164 149.5606 355.268 150.7144C355.793 146.5382 352.986 145.671 349.2888 144.9406M63.8194 145.3514C63.8194 144.6668 65.645 149.6876 65.1202 150.2352C63.476 149.975 61.8518 149.6014 60.2592 149.117C61.9508 148.4596 63.2578 147.0772 63.8194 145.3514M52.2718 145.3514C46.772 145.1004 45.1516 144.0278 42.9608 139.167C42.7202 138.7758 42.1516 138.7758 41.911 139.167C41.2492 139.9886 39.88 138.3454 39.743 137.2272C39.4008 134.0778 46.2698 138.779 53.4358 125.5884C54.805 128.19 60.4646 131.2252 63.226 129.4452C64.2758 129.4452 64.755 131.2024 64.3898 132.0012C64.2284 132.3468 63.8504 132.5358 63.477 132.4576C62.085 132.2978 64.6638 136.2916 62.4272 140.7644C60.5558 144.5072 58.639 140.9698 60.6928 145.6482C60.6928 145.8308 61.6056 146.2186 62.724 145.6482C60.6036 148.6984 56.6682 149.897 53.2074 148.5464C54.2116 148.2726 52.5914 145.3744 52.3402 145.3744M52.1578 149.0714C53.8718 150.214 56.009 150.524 57.9772 149.9158C54.8962 155.3244 53.915 154.6396 51.4502 149.231L52.1578 149.0714M52.9564 172.9878C47.4292 172.7456 42.0756 170.9848 37.4838 167.8988C37.5444 167.8274 37.584 167.7404 37.5978 167.6478C37.8488 162.0566 42.3218 151.673 50.4462 149.3908C53.2076 155.5068 55.1474 156.8534 58.8672 150.3264C57.9772 153.5214 60.9666 166.3012 63.5454 165.571S62.4958 152.677 60.2364 150.0526C61.1036 150.2352 64.253 151.2164 64.8006 151.2394C67.3794 151.2394 65.9418 147.4966 65.0746 145.0548C65.0242 144.9704 64.9536 144.8998 64.8692 144.8494C73.4042 142.5672 80.5928 151.4676 81.734 154.1832C81.8086 154.3614 81.9752 154.4842 82.1676 154.5028H82.3958C77.2912 166.1306 65.601 173.4596 52.9108 172.9878M336.92 217.6032C335.003 224.7234 332.7894 231.8208 330.4616 238.8724C329.3204 235.5862 327.974 229.5842 326.7646 224.1756C325.8746 220.2048 325.0302 216.4394 324.2998 213.8834C328.7144 214.2092 333.1184 213.1222 336.8742 210.7796C336.2582 217.8542 336.8742 217.626 336.8742 217.626M288.1968 177.301C287.9682 178.0534 287.6462 178.774 287.2384 179.4462L286.3254 179.0582C286.8752 178.3984 287.5036 177.8082 288.1968 177.301M285.6408 179.8798C291.8368 182.3498 298.4172 183.717 305.0844 183.9192C312.8436 184.2616 320.192 183.3258 323.6836 181.021C325.4866 195.8318 330.8952 204.481 336.897 209.3648C329.115 215.1614 318.1382 212.3316 312.2046 210.095C303.9534 207.0634 296.5608 202.075 290.6614 195.558C288.3794 192.751 286.2798 187.1598 283.1532 183.6454C283.8872 182.3804 284.7188 181.1748 285.6408 180.0396M281.6928 184.0334C281.9438 183.8052 282.035 183.4856 281.4646 184.6038C279.1824 189.168 281.2592 189.4876 284.2716 186.886C286.0288 189.5788 288.0598 193.8464 289.6572 196.0144C289.6572 196.0144 289.4976 196.2198 289.3834 196.3568C286.371 200.396 281.4188 190.5146 279.0226 185.6992C280.0152 185.3828 280.9264 184.8532 281.6928 184.1474M278.9542 184.6952C279.1732 183.8924 279.5036 183.1242 279.9354 182.413C280.3436 182.6314 280.7328 182.8834 281.0994 183.1662C281.3276 183.3486 279.3878 184.5582 278.9542 184.6724M282.3774 185.1516C282.6284 184.6494 282.3774 184.3528 283.6782 186.0644C283.0084 186.6866 282.2364 187.1884 281.396 187.5478C281.575 186.7392 281.8914 185.9672 282.3316 185.2656M285.0246 176.1372C284.733 176.8608 284.3898 177.5624 283.9976 178.2368L283.2446 177.7574C283.7694 177.1466 284.3672 176.6024 285.0246 176.1372M282.5828 178.4194C285.3668 180.3592 285.0474 178.4194 282.3774 182.9836C281.7886 182.4142 281.129 181.9234 280.4146 181.523C281.061 180.4444 281.7856 179.4146 282.5826 178.4422M280.3006 176.411C282.3316 178.9442 282.3544 176.411 279.4562 181.1578C278.703 180.9068 276.17 181.1578 275.0518 179.5604C274.1846 178.4422 277.8358 178.6246 278.1098 178.3508C278.5138 178.1928 278.5952 177.6566 278.2562 177.3856C278.099 177.26 277.8866 177.2278 277.699 177.301C274.7324 177.5064 271.9254 174.0604 276.2614 174.3572C276.6478 174.4098 276.9464 174.0244 276.7988 173.6634C276.7304 173.4958 276.5776 173.3774 276.3982 173.353C272.5642 172.4174 272.336 169.4962 277.2198 170.8426C279.1824 171.2762 280.2778 176.2056 280.3006 176.2284M278.9314 181.8424C278.5978 182.4336 278.3154 183.052 278.087 183.691S277.4024 182.276 277.1058 181.7056C277.704 181.8428 278.3194 181.889 278.9314 181.8424M276.3526 169.7472C271.6742 169.5418 271.6286 172.0294 274.276 173.5812C273.9614 173.6854 273.6732 173.8566 273.4316 174.0832C272.1308 171.8012 267.5208 163.266 267.1786 162.6728C268.525 161.9652 269.803 161.2122 271.0582 160.3906ZM224.2064 153.5442C219.9968 150.4956 216.462 146.6112 213.8228 142.1336C216.4014 141.4034 243.8782 133.4388 243.3304 132.3434C242.3034 130.2896 214.2792 140.4906 213.138 140.9014C210.0682 134.4718 208.7234 127.3546 209.2356 120.2482C210.0662 111.8672 213.6726 104.0038 219.4824 97.9064C224.0562 93.254 229.6392 89.7168 235.7994 87.5684S251.7742 133.0738 259.3966 158.3138C254.6886 160.1294 249.6446 160.9078 244.6084 160.596C237.731 160.289 231.0728 158.0854 225.3702 154.229C264.1662 143.1378 253.5542 143.0466 224.1606 153.4302M237.7164 86.9978C261.9336 80.8542 285.2016 99.856 284.0206 124.8124C283.3388 139.3308 274.3576 152.1588 260.9484 157.7662C253.2576 132.663 245.2018 107.5596 237.6024 86.587M261.7242 160.0026C261.5874 159.5918 261.4504 159.1582 261.3364 158.7474C299.5618 142.7726 289.064 86.3816 248.1914 84.556C218.493 83.2296 198.4958 114.55 212.1964 140.9326C218.5548 153.1768 230.9624 161.0986 244.7454 161.7142C249.9016 162.0474 255.0692 161.269 259.8986 159.4322C260.0354 159.8658 260.1496 160.2766 260.2866 160.6872C255.422 162.4804 250.2414 163.257 245.0648 162.9694C214.736 162.165 196.6514 128.8304 212.5124 102.967C220.1404 90.5284 234.0166 83.3222 248.5792 84.2364C291.0038 86.1306 301.4786 144.2332 261.7242 160.1168M318.6174 269.955C310.6984 273.4922 297.1198 278.8552 295.2714 277.6228C293.3316 270.4342 287.284 248.3662 287.284 248.3662S295.7734 246.084 299.8812 245.1484C303.4414 244.2812 311.5656 242.0446 312.7066 241.6796C313.3914 241.4742 312.912 240.7896 311.908 240.9492C307.7452 241.6046 303.6232 242.496 299.5618 243.6194C293.8564 245.194 288.9956 246.6318 286.9872 247.362C280.6658 224.5408 272.222 194.8734 263.0936 164.681C264.2346 164.2246 265.3756 163.7454 266.4254 163.2204C266.9046 164.1104 273.1348 175.3156 273.1348 175.3612C273.1348 176.411 274.0476 178.0998 275.0518 177.7804C274.133 178.2424 273.8964 179.447 274.5726 180.2222C274.9378 180.747 275.6908 180.9296 275.9646 181.637C280.0268 192.1348 284.0662 195.9688 286.4168 197.863C288.288 199.3692 290.6158 197.475 290.6158 197.475C296.1136 204.2868 303.5444 209.2752 311.9308 211.7838C315.589 213.0246 319.3558 213.9186 323.1816 214.454C323.9118 216.9642 324.8932 220.2504 325.8288 224.4268C326.8598 229.8442 328.2706 235.1822 330.0508 240.4016C326.7416 250.306 323.2044 259.8908 319.6214 269.567L318.6174 269.9322M287.2154 356.2188C305.4724 344.6258 295.956 347.0904 305.7234 350.194C305.5274 351.273 305.5274 352.3786 305.7234 353.4574C299.885 355.9216 293.5188 356.8714 287.2154 356.2188M348.4446 356.7438C357.71 351.2438 358.6912 349.8974 358.463 350.1712C361.2854 350.5628 364.1524 350.4936 366.9526 349.9658C366.742 351.48 366.742 353.016 366.9526 354.53C361.031 356.7294 354.6768 357.511 348.399 356.8122M388.6326 260.3928C385.0496 286.9794 380.5996 319.9788 371.5852 346.6112C371.5852 346.6112 371.2658 346.9078 371.1972 346.9992C367.911 350.2168 358.988 349.829 355.2224 348.5282C353.8076 337.962 356.5004 301.0146 356.5232 300.9688C367.2178 287.5978 377.2116 273.681 386.4646 259.2746C387.7864 256.8048 388.9452 254.251 389.9334 251.6296C389.5454 254.4594 389.1574 257.3576 388.7468 260.3928M385.5746 258.7726C379.527 269.8864 329.4802 338.6466 307.4806 349.7148C302.8294 348.555 298.6614 345.96 295.568 342.298C306.9786 300.2842 326.6276 260.1418 338.0838 217.8542C343.3062 218.788 348.5944 219.3068 353.8988 219.4062C367.554 220.112 381.2416 219.868 394.8628 218.6758C394.8926 218.828 394.9466 218.9742 395.0226 219.1094C395.8898 221.1634 394.0184 243.3684 385.5518 258.8638" stroke-width="1"></path></g></svg>