<svg transform="scale(1)" version="1.1" id="Layer_1" xmlns="http://www.w3.org/2000/svg" xmlns:xlink="http://www.w3.org/1999/xlink" x="0px" y="0px" xml:space="preserve" class="show_show__wrapper__graphic__5Waiy " viewBox="76.3 74.48 355.3 369.82"><title>React</title><style type="text/css"> 	.st0{fill:#241F20;} 	.st1{fill:#FFFFFF;} 	.st2{fill:#241F20;} 	.st3{fill:none;} </style><g id="Archives"><polygon class="st0" points="430.8,326.1 282.1,274.4 314.9,408.3 	"></polygon><polygon class="st0" points="77,146.9 167.8,136.7 167.8,274.4 77,276.2 	"></polygon><polygon class="st1" points="412,118.7 412,382.4 336.9,411.4 336.9,125 	"></polygon><path class="st0" d="M336.9,411.9c-0.1,0-0.2,0-0.3-0.1c-0.1-0.1-0.2-0.2-0.2-0.4V125c0-0.3,0.2-0.5,0.5-0.5l75.1-6.3 		c0.1,0,0.3,0,0.4,0.1c0.1,0.1,0.2,0.2,0.2,0.4v263.7c0,0.2-0.1,0.4-0.3,0.5l-75.1,29C337,411.9,336.9,411.9,336.9,411.9z 		 M337.4,125.4v285.2l74.1-28.6V119.2L337.4,125.4z"></path><polygon class="st1" points="412,118.7 336.9,126.3 181,93.1 246.1,87 	"></polygon><path class="st0" d="M336.9,126.8h-0.1L180.9,93.5c-0.3,0-0.5-0.3-0.5-0.5s0.3-0.5,0.5-0.5l65-6.1h0.1L412,118.2 		c0.2,0,0.4,0.3,0.4,0.5c0,0.3-0.2,0.5-0.5,0.5L336.9,126.8L336.9,126.8z M184.3,93.2l152.6,32.5l71.6-7.2L246.1,87.5L184.3,93.2z"></path><polygon class="st1" points="181,93.1 181,372.8 336.9,364.4 336.9,126.3 	"></polygon><path class="st0" d="M181,373.3c-0.1,0-0.2,0-0.3-0.1c-0.1-0.1-0.2-0.2-0.2-0.4V93.1c0-0.2,0.1-0.3,0.2-0.4 		c0.1-0.1,0.3-0.1,0.4-0.1L337,125.8c0.2,0,0.4,0.3,0.4,0.5v238.1c0,0.3-0.2,0.5-0.5,0.5L181,373.3z M181.5,93.7v278.6l154.9-8.3 		V126.7L181.5,93.7z"></path><polygon class="st1" points="334.5,126.5 334.5,390.3 259.4,419.2 259.4,132.8 	"></polygon><path class="st0" d="M259.4,419.7c-0.1,0-0.2,0-0.3-0.1c-0.1-0.1-0.2-0.2-0.2-0.4V132.8c0-0.3,0.2-0.5,0.5-0.5l75.1-6.3 		c0.1,0,0.3,0,0.4,0.1c0.1,0.1,0.2,0.2,0.2,0.4v263.8c0,0.2-0.1,0.4-0.3,0.5l-75.1,29C259.5,419.7,259.4,419.7,259.4,419.7z 		 M259.9,133.2v285.2l74.1-28.6V127.1L259.9,133.2z"></path><polygon class="st1" points="259.4,132.8 107.6,99.9 107.6,315.9 259.4,393.1 	"></polygon><path class="st0" d="M259.4,393.6c-0.1,0-0.2,0-0.2-0.1l-151.8-77.2c-0.2-0.1-0.3-0.3-0.3-0.5v-216c0-0.2,0.1-0.3,0.2-0.4 		c0.1-0.1,0.3-0.1,0.4-0.1l151.8,32.9c0.2,0.1,0.4,0.3,0.4,0.5v260.3c0,0.2-0.1,0.3-0.2,0.4C259.6,393.6,259.5,393.6,259.4,393.6z 		 M108.1,315.6l150.8,76.7V133.2l-150.8-32.7V315.6z"></path><polygon class="st1" points="177.7,93.4 334.5,126.5 259.4,132.8 107.6,99.9 	"></polygon><path class="st0" d="M259.4,133.3h-0.1l-151.8-32.9c-0.3,0-0.5-0.3-0.5-0.5s0.3-0.5,0.5-0.5l70.2-6.6h0.1L334.6,126 		c0.3,0,0.5,0.3,0.5,0.5s-0.3,0.5-0.5,0.5L259.4,133.3L259.4,133.3z M110.8,100.1l148.6,32.2l71.7-6L177.7,93.9L110.8,100.1z"></path><path class="st1" d="M317.7,361.5c-1.5,12.5-10.6,21.7-20.4,20.6c-0.5,0-0.9-0.1-1.3-0.2c-9.1-2-15.1-12.6-13.7-24.5 		c1.2-10.5,7.9-18.7,15.8-20.4c1.5-0.3,3.1-0.4,4.7-0.2C312.4,337.9,319.2,349,317.7,361.5z"></path><path class="st0" d="M298.9,382.7c-0.6,0-1.2,0-1.7-0.1c-0.5-0.1-0.9-0.1-1.4-0.2c-9.3-2-15.5-13-14.1-25.1 		c1.2-10.5,7.9-19,16.1-20.8c1.6-0.3,3.2-0.4,4.8-0.2c10.1,1.2,17,12.6,15.5,25.3l0,0c-0.6,5.9-3.2,11.4-7.2,15.7 		C307.8,380.6,303.5,382.6,298.9,382.7z M300.9,337.2c-1,0-2,0.1-2.9,0.3c-7.9,1.7-14.2,9.9-15.4,19.9c-1.4,11.5,4.5,22.1,13.3,24 		c0.4,0.1,0.8,0.2,1.3,0.2c4.6,0.5,9.2-1.2,12.9-5c3.9-4.1,6.4-9.4,7-15.1l0,0c1.5-12.2-5.1-23.1-14.6-24.2 		C302,337.2,301.5,337.2,300.9,337.2L300.9,337.2z"></path><path class="st0" d="M311.7,361.5c-1.2,10.5-7.9,18.7-15.8,20.4c-9.1-2-15.1-12.6-13.7-24.5c1.2-10.5,7.9-18.7,15.8-20.4 		C307,339,313.1,349.6,311.7,361.5z"></path><path class="st1" d="M395.9,343.5c-1.5,12.5-10.6,21.7-20.4,20.5c-0.5,0-0.9-0.1-1.3-0.2c-9.1-2-15.2-12.6-13.7-24.5 		c1.2-10.5,7.9-18.7,15.8-20.4c1.5-0.3,3.1-0.4,4.7-0.2C390.6,319.8,397.3,330.9,395.9,343.5z"></path><path class="st0" d="M377.1,364.6c-0.6,0-1.2,0-1.8-0.1c-0.5,0-0.9-0.1-1.4-0.2c-9.4-2-15.6-13-14.1-25.1 		c1.2-10.5,7.9-19,16.1-20.8c1.6-0.3,3.2-0.4,4.8-0.2c10.1,1.2,17,12.5,15.5,25.3l0,0c-0.6,5.9-3.2,11.4-7.2,15.7 		C386,362.6,381.7,364.5,377.1,364.6z M379.1,319.1c-1,0-2,0.1-2.9,0.3c-7.9,1.7-14.2,9.9-15.4,19.9c-1.4,11.5,4.5,22.1,13.4,24 		c0.4,0.1,0.8,0.2,1.3,0.2c4.6,0.5,9.2-1.2,12.9-5c3.9-4.1,6.4-9.4,7-15.1c1.4-12.2-5.1-23.1-14.6-24.2 		C380.2,319.1,379.7,319.1,379.1,319.1L379.1,319.1z"></path><path class="st0" d="M389.9,343.5c-1.2,10.5-7.9,18.7-15.8,20.3c-9.1-2-15.2-12.6-13.7-24.5c1.2-10.5,7.9-18.7,15.8-20.4 		C385.2,320.9,391.3,331.5,389.9,343.5z"></path><polygon class="st2" points="77,146.9 77,352.7 246.1,443.5 246.1,367.6 147.5,274.4 123.2,167.2 	"></polygon><path class="st0" d="M246.1,444.2c-0.1,0-0.2,0-0.4-0.1l-169-90.8c-0.2-0.1-0.4-0.4-0.4-0.7V146.9c0-0.3,0.1-0.5,0.3-0.6 		c0.2-0.1,0.5-0.2,0.7-0.1l46.2,20.4c0.2,0.1,0.4,0.3,0.4,0.5l24.2,107l98.4,93c0.1,0.1,0.2,0.3,0.2,0.5v75.9c0,0.3-0.1,0.5-0.4,0.6 		C246.4,444.2,246.2,444.2,246.1,444.2z M77.8,352.2l167.5,90v-74.3L147,275c-0.1-0.1-0.2-0.2-0.2-0.4l-24.2-106.9L77.8,148 		L77.8,352.2z"></path><polygon class="st2" points="246.1,367.6 430.8,326.1 430.8,391 246.1,443.5 	"></polygon><path class="st0" d="M246.1,444.2c-0.2,0-0.3-0.1-0.4-0.1c-0.2-0.1-0.3-0.4-0.3-0.6v-75.9c0-0.4,0.2-0.7,0.6-0.7l184.7-41.5 		c0.4-0.1,0.8,0.2,0.9,0.6c0,0.1,0,0.1,0,0.2v65c0,0.3-0.2,0.6-0.5,0.7l-184.7,52.4C246.2,444.2,246.1,444.2,246.1,444.2z 		 M246.8,368.2v74.3l183.2-52V327L246.8,368.2z"></path><polygon class="st2" points="388.6,281.4 360.2,287.4 360.2,187.7 388.6,184.1 	"></polygon><path class="st0" d="M360.2,288.1c-0.2,0-0.3-0.1-0.5-0.2c-0.2-0.1-0.3-0.4-0.3-0.6v-99.7c0-0.4,0.3-0.7,0.6-0.8l28.4-3.6 		c0.2,0,0.4,0,0.6,0.2c0.2,0.1,0.3,0.3,0.2,0.6v97.3c0,0.4-0.2,0.7-0.6,0.7l-28.4,6L360.2,288.1z M361,188.3v98.1l26.9-5.7v-95.8 		L361,188.3z M388.6,281.4L388.6,281.4z"></path><polygon class="st2" points="310.7,297.6 282.3,303.6 282.3,198.6 310.7,194.9 	"></polygon><path class="st0" d="M282.3,304.4c-0.2,0-0.3-0.1-0.5-0.2c-0.2-0.1-0.3-0.4-0.3-0.6V198.6c0-0.4,0.3-0.7,0.6-0.8l28.4-3.7 		c0.4-0.1,0.8,0.2,0.8,0.6c0,0,0,0.1,0,0.1v102.8c0,0.4-0.2,0.7-0.6,0.7l-28.4,6L282.3,304.4z M283.1,199.2v103.5l26.9-5.7V195.7 		L283.1,199.2z M310.7,297.6L310.7,297.6z"></path><polygon class="st0" points="271,127 271,97.5 188.4,75.2 188.4,109.2 	"></polygon><polygon class="st1" points="244.8,124.1 244.8,101.4 181,84.1 181,110.4 	"></polygon><path class="st0" d="M244.8,124.6h-0.1l-63.7-13.7c-0.2,0-0.4-0.3-0.4-0.5V84.1c0-0.2,0.1-0.3,0.2-0.4c0.1-0.1,0.3-0.1,0.4-0.1 		l63.7,17.2c0.2,0.1,0.4,0.3,0.4,0.5v22.8C245.2,124.4,245,124.6,244.8,124.6z M181.5,110l62.7,13.5v-21.8l-62.7-16.9V110z"></path><polygon class="st2" points="351.4,111.6 351.4,92.8 276.9,75.2 276.9,96.8 	"></polygon><path class="st0" d="M351.4,112.3h-0.1l-74.4-14.8c-0.4-0.1-0.6-0.4-0.6-0.7V75.2c0-0.4,0.4-0.8,0.8-0.7c0,0,0.1,0,0.1,0L351.5,92 		c0.3,0.1,0.6,0.4,0.6,0.7v18.8C352.1,111.9,351.8,112.3,351.4,112.3C351.4,112.3,351.4,112.3,351.4,112.3L351.4,112.3z M277.7,96.2 		l72.9,14.5V93.4l-72.9-17.3V96.2z"></path><polygon class="st1" points="366.2,121.2 366.2,109 317.6,97.5 317.6,111.6 	"></polygon><path class="st0" d="M366.2,121.7L366.2,121.7l-48.7-9.7c-0.2,0-0.4-0.3-0.4-0.5V97.5c0-0.2,0.1-0.3,0.2-0.4 		c0.1-0.1,0.3-0.1,0.4-0.1l48.6,11.5c0.2,0.1,0.4,0.3,0.4,0.5v12.2c0,0.2-0.1,0.3-0.2,0.4C366.4,121.7,366.3,121.7,366.2,121.7z 		 M318.1,111.2l47.6,9.4v-11.2l-47.6-11.2V111.2z"></path><path class="st0" d="M170.2,107.1H170L131.7,98c-0.3-0.1-0.4-0.3-0.4-0.6c0,0,0,0,0,0c0.1-0.3,0.3-0.4,0.6-0.4l38.3,9.1 		c0.3,0.1,0.4,0.3,0.4,0.6C170.6,107,170.4,107.1,170.2,107.1z"></path><line class="st3" x1="171.3" y1="99.9" x2="181" y2="102.1"></line><path class="st0" d="M181,102.6h-0.1l-9.7-2.2c-0.3-0.1-0.4-0.3-0.4-0.6c0,0,0,0,0,0c0.1-0.3,0.3-0.4,0.6-0.4l9.7,2.2 		c0.3,0,0.5,0.3,0.4,0.6C181.5,102.4,181.3,102.6,181,102.6L181,102.6z"></path><line class="st3" x1="317.6" y1="111.6" x2="282.3" y2="104.1"></line><path class="st0" d="M317.6,112.1h-0.1l-35.3-7.4c-0.3-0.1-0.4-0.3-0.4-0.6c0,0,0,0,0,0c0.1-0.3,0.3-0.4,0.6-0.4c0,0,0,0,0,0 		l35.3,7.4c0.3,0,0.5,0.3,0.4,0.6S317.9,112.1,317.6,112.1L317.6,112.1z"></path></g></svg>