<svg xmlns="http://www.w3.org/2000/svg" viewBox="0 0 400 400" id="Cloud-Service-Empty-2--Streamline-Milano.svg" height="400" width="400"><desc>Cloud Service Empty 2 Streamline Illustration: https://streamlinehq.com</desc><g fill="#000000"><path d="M180.28 128a2.26 2.26 0 0 0 -0.48 -4.22 32.18 32.18 0 0 0 -5.8 -0.16s-19.4 0.26 -22 0.36c-2.14 0 -3.36 0.86 -3.14 2.98 0.34 3.26 5.34 2.5 8.48 2.6a83.78 83.78 0 0 0 8.38 -0.26c7.62 -0.48 12.9 -0.34 14.56 -1.3zm-3.1 -0.18c-3.66 0 -24 1.7 -26.38 0.28a1.44 1.44 0 0 1 -0.78 -1.4c0 -1.26 0.64 -1.5 1.66 -1.72a43.22 43.22 0 0 1 8.36 0c2.12 0 13 -0.22 14 -0.3 4.72 -0.4 5.86 0.48 6.14 0.9 0.58 0.92 -1.3 2.2 -3 2.24zM204 161.38c4.16 0.12 8 -0.34 13.84 -0.56 5.28 -0.2 5 -0.3 6.5 -0.4 4.82 -0.28 3.44 -4.5 2 -4.82a19.08 19.08 0 0 0 -5.02 -0.22c-0.46 0 -20.12 0.32 -22.68 0.4 -2.12 0 -3.36 0.86 -3.14 3 0.5 3.22 5.48 2.5 8.5 2.6zm22.6 -3.58c0 0.78 -1.48 1.74 -2.9 1.84s-2.84 0.18 -4.48 0.22c-2.58 0 -19.8 1.32 -21.88 0a1.4 1.4 0 0 1 -0.78 -1.4c0 -1.26 0.64 -1.5 1.66 -1.72a44.86 44.86 0 0 1 8.36 0c2.14 0 12.96 -0.26 14 -0.28 4.44 -0.18 6.06 0.58 6.1 1.34zM181.34 187.88a23.36 23.36 0 0 0 -6.36 -0.16s-18.8 0.26 -21.34 0.36c-2.12 0 -3.36 0.84 -3.14 2.98 0.32 3.24 5.36 2.5 8.48 2.6 4 0.12 8.22 -0.34 13.84 -0.56 5.2 -0.2 5.04 -0.3 6.48 -0.38a4.64 4.64 0 0 0 2.52 -0.72c1.22 -0.92 0.82 -3.76 -0.48 -4.12zm-2.68 4c-1.42 0.18 -3.02 0.18 -4.46 0.24a182.42 182.42 0 0 1 -19.84 0.46 4.36 4.36 0 0 1 -2 -0.44 1.38 1.38 0 0 1 -0.78 -1.4c0 -1.24 0.64 -1.48 1.64 -1.7a44.82 44.82 0 0 1 8.36 0c0.56 0 13.22 -0.22 14 -0.28 7.48 -0.76 6.6 2.68 3.08 3.24zm-3.7 29.68c-3.3 0.26 -16.26 0.16 -21.32 0.34 -2.12 0 -3.36 0.84 -3.14 3 0.28 2.72 3.88 2.64 6.62 2.6h3.32c3.76 0 7.4 -0.38 11.1 -0.54 2.5 0 4.9 -0.16 7.16 -0.38a6 6 0 0 0 3.12 -0.7 2.38 2.38 0 0 0 0.78 -2.54c-0.44 -1.04 -2.1 -2.2 -7.64 -1.78zm-13.42 1.3c0.56 0 13.22 -0.22 14 -0.3 4.38 -0.42 5.52 0.54 5.8 0.96 0.68 1.04 -0.96 2.22 -2.6 2.22 -2.68 0 -24 1.74 -26.38 0.28a1.38 1.38 0 0 1 -0.76 -1.4c0 -1.24 0.64 -1.5 1.64 -1.72a43.18 43.18 0 0 1 8.3 -0.04zm30.78 82.32c-17.74 0 -34.12 8.3 -36.88 12 -0.26 0.36 0.28 0.72 0.56 0.38 2.3 -3.02 16.7 -10.44 34.24 -11a50.82 50.82 0 0 1 41.4 17.56c0.36 0.44 1.16 0 0.78 -0.46a51.38 51.38 0 0 0 -40.1 -18.48zM78.7 73.86c5 -0.12 9.22 -1.5 8.42 -6.48 -0.64 -3.9 -5.1 -5.78 -8.9 -5a26.48 26.48 0 0 0 -4.38 1.38 8 8 0 0 0 -8.64 -13.12A26.84 26.84 0 0 0 60.32 54a11.48 11.48 0 0 0 -0.32 -4 21.38 21.38 0 0 0 -3.02 -8.14c-3.26 -4.52 -9.86 -4.26 -14.62 -2A10.44 10.44 0 0 0 36 48c0 0.16 0 1 0.26 2.56a13.38 13.38 0 0 0 -4.48 -1.12 13.56 13.56 0 0 0 -7.1 2.46A9.04 9.04 0 0 0 21.12 58a7.76 7.76 0 0 0 0.28 3.62 10.58 10.58 0 0 0 -10.24 3.32A7.42 7.42 0 0 0 10.32 72a3.34 3.34 0 0 0 2.24 2c2.9 0.78 59.12 0 66.14 -0.14zm-56.14 -10.74c0.44 0.28 0.84 -0.42 0.4 -0.68 -1.88 -1.2 -0.82 -5.14 -0.68 -5.58a7.86 7.86 0 0 1 3.1 -4.34c3.44 -2.46 8.62 -3.38 11.44 -0.26a0.44 0.44 0 0 0 0.72 -0.52 6.92 6.92 0 0 1 0.34 -6.84 14.62 14.62 0 0 1 11.62 -5.68c4 0 6.88 2.18 8.42 6.48 1.06 2.98 2.66 7.46 0.46 10.3a0.44 0.44 0 0 0 0.64 0.58c3.12 -3.34 6.58 -6.32 10.9 -5.34a6.9 6.9 0 0 1 5.32 7.88 8.16 8.16 0 0 1 -3.84 5.68 0.42 0.42 0 0 0 0.42 0.74c3.24 -1.48 7.12 -3.24 10.54 -2.12s5.6 6.24 2 8.6c-2 1.28 -1.14 1.3 -68.34 1.3 -2.3 0 -4.64 0 -5.2 -2.6a6.3 6.3 0 0 1 0.98 -5.22c2 -2.58 7.22 -4.4 10.24 -2.78a2 2 0 0 0 0.52 0.4zm365.8 31.9c-2.22 -2.2 -5.08 -2.22 -8 -1.88a8.14 8.14 0 0 0 3.12 -5c0.7 -4.78 -4.78 -8.24 -9.9 -5.08 1.14 -4.68 -2.18 -12.46 -7.16 -13.8a12.7 12.7 0 0 0 -10.42 2.24 6.88 6.88 0 0 0 -2.44 5.6 7.32 7.32 0 0 0 -10.62 -0.48 9.84 9.84 0 0 0 -0.14 11.72c-4.8 -1.14 -10 -0.18 -10.86 4.72a4.48 4.48 0 0 0 0.82 3.7c2 2.34 6.42 2.46 9.7 2.54a241.06 241.06 0 0 1 28.48 3.1c6.92 1.16 15.16 4.3 18.52 -0.68a5.34 5.34 0 0 0 -1.1 -6.7zm-1.68 7.72a10.28 10.28 0 0 1 -6.48 0.36l-4 -0.72c-31.1 -5.64 -37.2 -3.3 -41 -5.02a4 4 0 0 1 -1.7 -5.86c2.32 -3.68 6.98 -2.64 11.2 -1.62 0.2 0 0.42 -0.24 0.46 -0.32s0 -0.38 -0.26 -0.62a8.38 8.38 0 0 1 -2.66 -4 9.52 9.52 0 0 1 0.92 -7.12 5.12 5.12 0 0 1 4.2 -2.34 9.14 9.14 0 0 1 6.76 4.14 0.28 0.28 0 0 0 0.34 0c0.14 0 0.36 -0.44 0.3 -0.6a5.6 5.6 0 0 1 1.02 -6.1 10.92 10.92 0 0 1 10.22 -2.62c5.06 1.36 9.5 11.22 4.96 15.12 -0.28 0.24 0.14 0.92 0.46 0.68 2.74 -2.24 6.16 -5 9.5 -2a5.42 5.42 0 0 1 0.62 6.42c-0.76 1.42 -2.24 2 -3.54 2.98 -0.5 0.16 -0.4 0.94 0.14 0.86 3.52 -0.42 8.38 -1.02 10.5 2.76a4 4 0 0 1 -1.96 5.62zm-167.94 -47.02c-0.38 -0.28 -0.86 0.32 -0.5 0.64s1.78 2.2 2 2.54a0.46 0.46 0 0 0 0.76 -0.44 6 6 0 0 0 -2.26 -2.74zm2.26 -2.74a0.42 0.42 0 0 0 0 -0.84 6.34 6.34 0 0 0 -4.72 0.84c-0.52 0.28 0 1.06 0.44 0.8a10.18 10.18 0 0 1 4.28 -0.8zm42.5 60.12a0.88 0.88 0 0 0 0.88 -0.86 0.88 0.88 0 0 0 -0.88 -0.88 0.88 0.88 0 0 0 -0.86 0.88 0.86 0.86 0 0 0 0.86 0.86zm-5.2 -10.16a0.92 0.92 0 1 0 0 -1.82 0.9 0.9 0 0 0 -0.9 0.9 0.92 0.92 0 0 0 0.9 0.92zM253.24 94a0.84 0.84 0 0 0 0.84 -0.84 0.84 0.84 0 0 0 -0.84 -0.84 0.84 0.84 0 1 0 0 1.68zm-3.8 -7.48a0.86 0.86 0 0 0 0 -1.72 0.86 0.86 0 1 0 0 1.72zm-84.48 -15.38c-2.56 -0.88 -5.14 1.72 -5.86 4.42a18.84 18.84 0 0 0 1.46 12c1 2 1.8 3.28 4 3.32a4 4 0 0 0 4.38 -2.8 23.14 23.14 0 0 0 -0.68 -13.68 5.88 5.88 0 0 0 -3.3 -3.26z" stroke-width="1"></path><path d="M182.86 63.8s-24.64 -0.12 -33.74 0 -8.72 7.72 -8.72 7.72 -0.38 9.46 0 18.32 9.74 9.16 9.74 9.16h34.74l6.7 9.54v-37.4c1.26 -8.22 -8.72 -7.34 -8.72 -7.34zm-11.52 21.66c-0.18 2.96 -0.48 5.28 -2.42 6.58a8.44 8.44 0 0 1 -6.46 0.84c-2.42 -0.8 -3.64 -3.64 -4.36 -5.32 -2 -4.68 -2.6 -11.74 0.32 -15.62 3.54 -4.7 10 -4 11.72 2a35.14 35.14 0 0 1 1.2 11.52z" stroke-width="1"></path><path d="M379 276.3c-1.26 -17.72 -18 -28.9 -31.86 -33.1 -10.16 -3.08 -19.28 -3.22 -27.16 -0.44 -1.16 -18.58 -2.68 -42.58 -3 -44a17.38 17.38 0 0 1 0.26 -5.82c0.6 -0.9 3.18 -8.36 8.72 -26.92 7.56 -25.4 -6.32 -46.46 -7.2 -47.76 -3.24 -14.24 -5.18 -29.4 -13.4 -41.84 -14.28 -21.62 -40.4 -28.9 -53.66 -24a47.8 47.8 0 0 0 -6.8 -1.76c0.44 -3.22 -2 -6.86 -6 -20.9a6.66 6.66 0 0 0 -3.4 -4.54 6.92 6.92 0 0 0 -5.18 0c-1.42 -1.3 1.14 -2.54 0.94 -2.44a0.2 0.2 0 0 0 0 -0.36 3 3 0 0 0 -3.52 0.9 2.88 2.88 0 0 0 -2.64 -1.4 0.2 0.2 0 0 0 0 0.36 1.84 1.84 0 0 1 0.8 2.1A8.3 8.3 0 0 0 217.4 22c-0.22 0 -5.16 2.22 -6.32 6.56s-7.66 7.56 -7.74 7.6a7.88 7.88 0 0 0 -4 6 8.58 8.58 0 0 0 3.18 6.22 11.36 11.36 0 0 0 8.6 2.98 16.62 16.62 0 0 0 2 6c1.34 2.5 3.44 4.54 4.66 7.02 0.58 1.18 0 3.26 1.18 4.16a5.82 5.82 0 0 0 3.44 0.44 15.82 15.82 0 0 0 3.42 7.24 11.48 11.48 0 0 0 7.22 3 8.96 8.96 0 0 0 5.54 -2c1.02 1.22 2.18 2.36 3.24 3.52a0.3 0.3 0 0 0 0.5 -0.28 45.28 45.28 0 0 1 -1.24 -5.84 11.46 11.46 0 0 0 0.96 -1.62 47.86 47.86 0 0 0 0.96 6 68.56 68.56 0 0 0 5.76 16.66c2.62 5.26 12.66 20.84 14.7 24.4a145.24 145.24 0 0 0 -10.74 12.16 348.86 348.86 0 0 1 -15.58 -39.68c-0.12 -0.46 -0.8 -0.28 -0.74 0.18 0.88 6.4 6.58 20.1 9.1 26 -0.52 8.72 -5.66 16.24 -14.52 21.26a10 10 0 0 0 -4.44 0v-1.36a0.18 0.18 0 0 0 -0.18 -0.2h-4.3a2.68 2.68 0 0 0 -2.22 -2.48c-0.36 0 -9 -0.12 -10.88 0 -1.54 0.12 -2 1.8 -2 2.84h-3.5c6 -6.12 20.84 -21.86 20.76 -22.3 -1.8 -11.52 -0.92 -23.1 2.88 -37.54a0.32 0.32 0 0 0 -0.62 -0.18c-4.3 14 -5.26 26 -3.2 37.8 -1.88 1.52 -14.24 14.22 -19.86 21.06 -0.2 -6.28 -0.7 -13.06 -1.54 -20.68a0.56 0.56 0 0 0 -0.52 -0.52c-19.02 -0.62 -79.82 -1.88 -79.86 -1.88s-20.84 2.58 -31.18 4.2a0.46 0.46 0 0 0 -0.34 0.44c0 3.14 0.72 109.54 1.06 137A31.44 31.44 0 0 0 68 263.06c-3.24 2.5 -13.58 11.32 -11 21.66 -13.26 -3.26 -25.32 7.42 -31.42 19.54 -7.18 14.22 -3.28 26 6 38.94 16 22.32 42.5 26.2 69.78 24.22 15 -1.1 31.6 -3.74 41.18 -15a170.56 170.56 0 0 0 21.66 12c52.96 24.64 102.7 14.28 131.48 -14.56a105.58 105.58 0 0 0 26 -1.42c8.64 -1.88 16.92 -4 23.52 -9.14 5.34 -4.16 10.94 -11.48 10.68 -19.48 -0.18 -5.24 -3.84 -13.62 -8 -16.32 7.38 0 14.3 -1.2 20 -5.8 8.12 -6.54 11.68 -13.54 11.12 -21.4zM316.84 130c-7.56 11.86 -30.22 15.64 -38.72 14a0.4 0.4 0 0 1 0 -0.8h1.3c6 0 24.42 -0.14 36.76 -13.7a0.38 0.38 0 0 1 0.66 0.5zm-19.32 150.68c-0.38 -0.28 -0.82 -0.52 -1.18 -0.78a11.3 11.3 0 0 0 0.94 -0.98c0.52 0.44 2 1.5 2.48 1.24a0.44 0.44 0 0 0 0.22 -0.5c0 -0.28 -0.78 -0.84 -2 -1.66l0.72 -1.14a5.26 5.26 0 0 0 2 1.28 0.48 0.48 0 0 0 0.4 -0.72 5.06 5.06 0 0 0 -1.88 -1.38 5.3 5.3 0 0 1 1.88 -1.76c0.92 1.48 3.02 2.26 6 2.26a11.5 11.5 0 0 0 7.58 -2.26c1.42 1.7 0.9 8 0.62 8.56 -0.12 0.14 -1.34 0.76 -11.06 2.5 -4.84 0.86 -8.44 0.72 -10.7 -0.42a2 2 0 0 1 -0.82 -1.62c0 -0.74 0.52 -1.84 2.7 -2.8a3.74 3.74 0 0 0 1.7 0.98 0.44 0.44 0 0 0 0.4 -0.8zm17.02 -7.5c-0.76 0.56 -7.12 5 -12.8 0.34 0 -0.24 -0.88 -4.66 -1.02 -5.36a36 36 0 0 0 14.42 -0.94 37.38 37.38 0 0 0 -0.6 5.96zm-14 -127.1a0.38 0.38 0 0 1 0.64 -0.4c3.8 5.18 7.32 10 13.54 11.68a0.54 0.54 0 0 1 -0.28 1.06c-6.72 -1.68 -10.98 -7.48 -13.94 -12.42zm-17.52 70.82c-6.86 -17.24 -5.68 -50 -5.66 -50.28a0.26 0.26 0 0 0 0 -0.18 36.76 36.76 0 0 1 -8.22 -8.86c-0.4 -0.58 -0.34 -1.08 -0.16 -1.22s0.58 0 1.06 0.68a33.82 33.82 0 0 0 7.56 7.14 0.2 0.2 0 0 0 0.3 -0.16c0 -1.14 0.52 -4.9 0.66 -6 0.26 -2.18 2 -1.2 1.66 0.36 -3.78 24 4 55.3 4.14 55.62l5.34 21.76a37.56 37.56 0 0 0 -8.28 -2.6c1.5 -15.48 1.64 -16.06 1.56 -16.26zm-28.48 61.76a15.56 15.56 0 0 0 1.6 -1.24c1.22 0.76 2 1.14 2.32 1.1a0.5 0.5 0 0 0 0.42 -0.72 5.36 5.36 0 0 0 -2 -1.28 12.44 12.44 0 0 0 0.64 -1.12 6.7 6.7 0 0 0 2.64 1.32 0.46 0.46 0 0 0 0.32 -0.74 11.6 11.6 0 0 0 -2.56 -1.32 15.66 15.66 0 0 1 2 -2.28 7.36 7.36 0 0 0 6.3 2.1 13.42 13.42 0 0 0 7.56 -2.28c1.84 2.88 1.6 9.26 0.96 9.72a120 120 0 0 1 -23.18 2.5 5.38 5.38 0 0 1 0 -3.38 2.88 2.88 0 0 1 2.16 -1.86c0.66 0.68 2.36 2.18 2.76 1.32 0.06 -0.5 -0.66 -0.8 -1.98 -1.84zm18.56 -7.52a11.3 11.3 0 0 1 -12.88 0.64 30.94 30.94 0 0 0 -0.68 -4.32 58 58 0 0 0 13.56 0c-0.08 0.74 -0.04 3.64 -0.04 3.68zm-28 -219.82c2 0.46 5.22 1.46 6.36 1.84 0.66 5.24 1.82 12.7 0.82 18.24 -0.12 0.66 -0.9 3.46 -1.16 4.22 -1.02 -0.84 -6 -5.78 -8 -7.52v-0.48a9.36 9.36 0 0 0 3.62 -6.78 17.7 17.7 0 0 0 -2 -9.28c-0.14 -0.4 -0.08 -0.34 0.36 -0.24zm-22.62 16.82c-1.38 0 -2.88 -0.38 -3.06 -1a13.72 13.72 0 0 0 -1.4 -4.24c-1.16 -1.8 -5.14 -6 -6.16 -11.66 4.24 -1.16 6 -6.16 6.54 -7.9 3.38 7.9 9.36 7.08 10.42 6.86L232 56a4.22 4.22 0 0 1 0.38 3.58 6.78 6.78 0 0 1 -3.66 3.28c-2.72 0.46 -5.92 2.76 -6.24 5.28zm11.14 0.68c-2.88 -1.12 -4.48 1.08 -5 1.08a0.44 0.44 0 0 1 -0.36 -0.68A4.52 4.52 0 0 1 234 68c0.44 0.32 0 1.02 -0.38 0.82zm7.84 10.62c-0.78 -0.88 -1.54 -1.76 -2.38 -2.58a13.54 13.54 0 0 0 1.74 -1.82 20.68 20.68 0 0 0 0.64 4.4zm-0.3 -19.08L236 50.92a0.18 0.18 0 0 0 -0.28 0c-1.08 0.6 -2 -0.8 -2 -0.84a25.66 25.66 0 0 1 -1.14 -7.84c0 -0.24 0 -3.34 4 -1.26s1.74 8.4 1.72 8.46a0.16 0.16 0 0 0 0 0.14c1.28 3.6 5.24 2.62 5.64 2.5a17.62 17.62 0 0 1 1.7 8 8.64 8.64 0 0 1 -2.8 6.56 17.16 17.16 0 0 0 -1.68 -6.28zm19.08 64.86c12.7 -14 14.92 -13.42 15.1 -14.3a0.44 0.44 0 0 0 0 -0.32c-4 -5.72 -8 -11.86 -9.16 -18a0.3 0.3 0 1 0 -0.58 0.12c1.24 7.66 7.9 16.46 8.88 18.24a66 66 0 0 0 -10.4 8.78c-0.78 -1.82 -4 -6.78 -7.02 -11.58 -5 -7.82 -9.8 -14.8 -12.68 -26.88a48.8 48.8 0 0 1 -1.68 -9.58 11.3 11.3 0 0 0 0.5 -2.5 86.2 86.2 0 0 1 7.62 7.42 0.48 0.48 0 0 0 0.76 0 21.58 21.58 0 0 0 2 -10.44 122 122 0 0 0 -1.3 -12.96c12.16 -3.66 32.4 1.5 46.54 16.64 14.68 15.76 16.58 39.24 18.88 49.54 -6.2 14.54 -28 17.12 -33.42 17.7l5.8 -5.54a35.74 35.74 0 0 0 6.26 -7.5 51.24 51.24 0 0 0 7.24 -20.46c0.82 -6 1.86 -13.64 -0.22 -20.72a32.92 32.92 0 0 0 -10.16 -15.78 0.26 0.26 0 0 0 -0.36 0.38 33.12 33.12 0 0 1 9.78 16c1.88 7.2 0.78 14.58 -0.28 21.7a50.4 50.4 0 0 1 -7 18.76c-3.26 5.42 -8.3 9.3 -12.82 13.56l-22.8 14.82a46.56 46.56 0 0 0 -9.54 -14.68c0.76 -1.22 6.7 -8.72 10.06 -12.42zm-13.78 88.14 4 23.5a49.62 49.62 0 0 0 -11.28 6c-15.06 -11.28 -32.12 -6.3 -35.26 -5.22 -0.42 -23.46 -1.04 -53.42 -1.04 -53.42 42.32 -0.98 39.74 -0.88 40 -1.16a0.52 0.52 0 0 0 0.14 -0.38c-0.28 -5.24 -1.06 -21.6 -1.2 -24.56a16.52 16.52 0 0 0 6.18 -5.1c1.2 2 2.44 5.12 4 5.04a113.64 113.64 0 0 0 -5.54 55.3zm-47.68 63.62c-0.22 0 -72.8 4 -73 4s0 -0.88 0.58 -30.64c2.9 0 71.72 -0.9 72 -0.9 -0.04 6.26 -0.14 20.56 0.42 27.54zm-1.04 -63.12c-12.36 0 -58.88 0.34 -71.06 0.58V185.56c8.52 0 32.24 -0.34 70.74 -1.22 -0.46 7.36 0.24 26.58 0.32 29.52zM173.2 183.4c-13.3 0.18 -43.48 1.04 -46.62 1.18 0 -9.24 -0.16 -19.24 -0.26 -30.52 14.3 -0.64 29.7 -1.06 47.08 -1.32 -0.48 10.2 -0.24 20.66 -0.2 30.66zM169.02 152a12.32 12.32 0 0 1 0.68 -4.22C170.6 145.04 174 145.2 174 145.2a0.2 0.2 0 0 0 0.22 -0.18l0.2 -4.96a0.2 0.2 0 0 0 -0.2 -0.22l-18.96 0.36a0.18 0.18 0 0 0 -0.18 0.2l0.3 11.86 -6.7 0.22a10.98 10.98 0 0 1 0.54 -4 3.4 3.4 0 0 1 3.72 -2.3 0.2 0.2 0 0 0 0.22 -0.2v-4.3a0.2 0.2 0 0 0 -0.22 -0.2s-7.66 0.6 -14.3 0.64a6.36 6.36 0 0 0 -4.96 1.86 6 6 0 0 0 -1.36 4.28v4.84l-6 0.28c0 -2.72 -0.44 -31.2 -0.42 -33.56 1.28 0 69.4 1.18 72 1.22 0.12 1.52 0.88 12.7 1.08 17.82l-22.3 -0.46a0.22 0.22 0 0 0 -0.22 0.2v13.2zm-42.66 97.54c0.2 -12.66 0.3 -23.88 0.3 -34.3 12.3 0.5 58.82 0.28 71.08 -0.34 0 3.28 0.52 30.76 0.56 33.32 -12.3 -0.04 -64.98 0.62 -71.94 1.32zm48 -66.16c0 -10 0.32 -20.46 -0.16 -30.64 20 -0.28 63.62 -0.46 66.5 -0.4 0 3.1 1.1 26.84 1.46 29.8 -3.32 0.34 -58.94 1.12 -67.76 1.24zM234 151.24a8.44 8.44 0 0 1 7 -3.24 13.8 13.8 0 0 1 4.62 1.02l2 3.26a23.86 23.86 0 0 1 -5.76 4.88c0 -1.78 -0.18 -3.58 -0.28 -5.34a0.56 0.56 0 0 0 -0.56 -0.56zm10.44 -6.22c0.44 -0.64 4.48 -6 5.32 -7.04a64.3 64.3 0 0 1 9.14 14.74l-6.22 4s0 0.1 -0.14 0c-1.8 -0.22 -7.78 -10.72 -8.16 -11.7zm1.86 -24.56c2.12 4.92 4 8.92 6 12.56 -2.8 3.58 -5.66 7.44 -8.68 11.82a0.46 0.46 0 0 0 0 0.46c0.36 0.64 1.34 2.3 1.34 2.3a8.66 8.66 0 0 0 -1.7 -0.62 14.16 14.16 0 0 0 -5.64 0.58c0 -1.28 0.18 -2.74 -0.98 -3.44a5.06 5.06 0 0 0 -2.14 -0.44c-0.44 0 -1.5 0.14 -2 0a6.7 6.7 0 0 0 0 -2.44 1.38 1.38 0 0 0 -0.62 -0.84c7.34 -2.86 13.16 -10.9 14.36 -19.94zM215.2 145.22a0.22 0.22 0 0 0 0.2 -0.22l0.44 -4h10.58a11.04 11.04 0 0 1 3.72 0c1.46 0.54 1.38 1.5 1.28 2.8v0.36a0.5 0.5 0 0 0 0.5 0.5c4.94 -0.26 4.52 0.72 4.64 3.28a6.66 6.66 0 0 0 -3.32 3.3c-45.24 0.12 -42.62 0.56 -42.58 0.18a6 6 0 0 1 1.34 -4.68 5.3 5.3 0 0 1 3.5 -1.52zm-14 -27.58c0 0.58 0 2.12 0.36 6.34 0.32 4.78 0.76 11.28 0.9 14.96H199.8c0 -6.32 -0.5 -12.74 -0.9 -18.4a0.5 0.5 0 0 0 -0.5 -0.54c-24 0 -48.48 -0.38 -73.02 -0.98a0.52 0.52 0 0 0 -0.52 0.52c0.24 15.86 0.14 150.42 -0.12 161.8a0.52 0.52 0 0 0 0.52 0.5c25.68 -0.56 50.6 -1.86 74 -3.88a0.82 0.82 0 0 0 0.46 -0.5c0.46 -7.4 -0.8 -84.44 -1.52 -93.12h3.64c1.12 25.58 1.76 93.56 1.58 97.06 -12.78 1.08 -68 5.76 -80.94 5.84 0 -19.2 0 -163.78 -0.28 -171.56 25.12 0.32 75.8 1.82 79 1.96zm-110.28 2c2 -0.46 28 -3.78 30.42 -4 -0.46 22.58 0 155.3 0 171.4 -8 -7.78 -18 -13.52 -29.1 -13.16 0.32 -9.04 -1.36 -152.52 -1.32 -154.22zm286 164.3a25.46 25.46 0 0 1 -7.18 10.34c-6.26 6 -14 8.44 -24.6 8.18 -0.5 0 -0.46 1.02 0 1.14 2.66 0.7 4.98 3.08 6.86 7.04a20 20 0 0 1 2.26 13.82 28.12 28.12 0 0 1 -13.18 16.34c-12.6 7.52 -33.78 9 -48.46 7.82a0.38 0.38 0 0 0 0 0.76l2 0.26c-27.56 27.06 -74.32 37.34 -124.72 15.88a204.34 204.34 0 0 1 -19.54 -9.52c-4.94 -2.68 -10 -5.44 -13.12 -10 -0.24 -0.34 -0.78 0 -0.56 0.34a17.34 17.34 0 0 0 5.1 5.54c-8.34 9.7 -22.44 12.5 -35.14 14a138 138 0 0 1 -32.38 0c-9.84 -1.2 -23.82 -4.74 -34.54 -14.78a64.5 64.5 0 0 1 -12.52 -16.84 30.88 30.88 0 0 1 -3.72 -21c3.2 -15.18 18 -31.24 33.66 -27.34 0.26 0 0.8 -0.12 0.72 -0.44 -2.38 -10.92 7.14 -19.06 11.34 -22a30 30 0 0 1 22 -5.78c0 8 0.2 13.86 0.3 16.3a35.58 35.58 0 0 0 -6.86 1.16 0.3 0.3 0 0 0 0 0.6l0.78 -0.1c5.46 -0.74 22 -2.92 42.56 20 0.3 0.34 0.9 -0.12 0.6 -0.48a80.48 80.48 0 0 0 -6.2 -7.18c13.26 0.3 67.08 -3.12 81.8 -5.5a0.6 0.6 0 0 0 0.46 -0.58c-0.12 -9.3 -0.4 -26.24 -0.7 -43.52l0.8 -0.18c6.72 -1.52 19.2 -4.32 33.66 5.26a40 40 0 0 0 -7.16 6.96 0.32 0.32 0 0 0 0.48 0.42 46.94 46.94 0 0 1 18.92 -13.02c4.96 29 4.74 28.3 4.94 28.42a10 10 0 0 0 3.1 1.08c0 0.86 0.44 3.9 0.44 4 -2.4 1.36 -2 4.64 -6 6.84a11.26 11.26 0 0 0 -2.18 1.12c-1.42 1.26 -0.8 4 -0.78 5.54a0.62 0.62 0 0 0 0.6 0.6 124.9 124.9 0 0 0 24.18 -2.5 0.52 0.52 0 0 0 0.4 -0.5c0.38 -3.38 1 -7.56 -1.3 -10.8a31.36 31.36 0 0 0 0 -4.3c2.1 -0.22 3.52 -0.44 3.52 -0.44s0 2.1 3.58 -32.66a37.32 37.32 0 0 1 8.74 2.88c8 32.62 7.42 30.58 7.62 30.62 0.76 0.14 1.52 0.26 2.32 0.36a52.78 52.78 0 0 0 0.86 5.42c-1.54 0.72 -2.14 2 -3.04 3.38a15.18 15.18 0 0 1 -4.36 3.74 3.32 3.32 0 0 0 -1.38 1.6c-0.88 2.44 0.1 3.5 2.52 4 7.04 1.74 14.46 -0.76 21.46 -2.3a0.5 0.5 0 0 0 0.38 -0.48c0 -2.92 0.96 -7.42 -0.96 -10 0 -0.62 0.54 -4.56 0.66 -6.62a18.78 18.78 0 0 0 5.2 -2.46 0.2 0.2 0 0 0 0 -0.18c0 -0.96 -0.58 -9.88 -1.26 -20.86 13.54 -4.52 31.44 -0.8 44.12 9.32 12.18 9.72 15.56 22.78 12.9 31.34z" stroke-width="1"></path></g></svg>