<svg xmlns="http://www.w3.org/2000/svg" xmlns:xlink="http://www.w3.org/1999/xlink" zoomAndPan="magnify" preserveAspectRatio="xMidYMid meet" version="1.0" viewBox="58.8 150.18 211.01 76.38"><defs><g></g><clipPath id="a67799373b"><path d="M 63 157 L 128 157 L 128 219 L 63 219 Z M 63 157 " clip-rule="nonzero"></path></clipPath><clipPath id="ecb7f124f4"><path d="M 68.070312 150.179688 L 131.972656 158.941406 L 122.703125 226.558594 L 58.800781 217.800781 Z M 68.070312 150.179688 " clip-rule="nonzero"></path></clipPath><clipPath id="bc2ecd6b44"><path d="M 68.070312 150.179688 L 131.972656 158.941406 L 122.703125 226.558594 L 58.800781 217.800781 Z M 68.070312 150.179688 " clip-rule="nonzero"></path></clipPath></defs><g clip-path="url(#a67799373b)"><g clip-path="url(#ecb7f124f4)"><g clip-path="url(#bc2ecd6b44)"><path fill="#000000" d="M 126.441406 175.261719 C 124.0625 170.503906 118.648438 170.203125 114.21875 171.527344 C 105.226562 174.214844 95.917969 181.730469 89.65625 188.582031 C 95.84375 185.515625 102.777344 181.933594 109.246094 179.699219 C 111.332031 178.976562 113.519531 178.328125 115.648438 178.019531 C 116.660156 177.875 117.632812 177.828125 118.394531 177.925781 C 118.773438 177.972656 119.078125 178.058594 119.285156 178.144531 C 119.378906 178.195312 119.453125 178.238281 119.496094 178.277344 C 119.53125 178.316406 119.550781 178.347656 119.554688 178.367188 C 120.027344 182.160156 114.75 188.707031 112.179688 191.601562 C 108.371094 195.863281 104.132812 199.761719 99.605469 203.253906 C 98.511719 204.140625 97.304688 204.925781 96.160156 205.75 C 95.507812 206.171875 94.296875 206.945312 93.644531 207.371094 C 87.839844 210.878906 81.550781 213.714844 74.972656 215.648438 C 71.832031 216.574219 68.597656 217.335938 65.332031 217.640625 L 64.414062 217.726562 C 69.195312 219.226562 74.292969 219.140625 79.242188 218.644531 C 81.027344 218.4375 83.058594 218.078125 84.820312 217.707031 C 87.882812 217.03125 90.953125 216.0625 93.882812 214.929688 C 94.882812 214.515625 95.960938 214.035156 96.953125 213.605469 C 97.738281 213.214844 99.179688 212.496094 99.953125 212.101562 C 101.339844 211.296875 102.757812 210.539062 104.082031 209.628906 C 104.082031 209.628906 105.691406 208.558594 105.691406 208.558594 C 112.46875 203.761719 118.691406 197.984375 123.265625 190.992188 C 126.007812 186.644531 128.972656 180.472656 126.441406 175.261719 Z M 64.316406 201.480469 C 61.785156 196.269531 64.75 190.09375 67.496094 185.75 C 72.070312 178.753906 78.289062 172.980469 85.070312 168.183594 L 86.679688 167.113281 C 88.003906 166.199219 89.417969 165.441406 90.804688 164.636719 C 91.578125 164.242188 93.023438 163.523438 93.804688 163.136719 C 94.800781 162.707031 95.878906 162.226562 96.875 161.8125 C 99.808594 160.679688 102.875 159.707031 105.941406 159.03125 C 107.703125 158.664062 109.734375 158.304688 111.515625 158.097656 C 116.464844 157.597656 121.566406 157.515625 126.34375 159.015625 C 126.34375 159.015625 125.429688 159.101562 125.429688 159.101562 C 122.160156 159.40625 118.925781 160.167969 115.789062 161.09375 C 109.207031 163.023438 102.921875 165.859375 97.117188 169.367188 C 96.460938 169.796875 95.25 170.570312 94.597656 170.988281 C 93.453125 171.816406 92.246094 172.601562 91.15625 173.484375 C 86.625 176.980469 82.386719 180.878906 78.582031 185.140625 C 76.007812 188.03125 70.730469 194.582031 71.203125 198.375 C 71.207031 198.394531 71.226562 198.421875 71.265625 198.460938 C 71.304688 198.5 71.382812 198.546875 71.476562 198.59375 C 71.679688 198.683594 71.988281 198.765625 72.363281 198.816406 C 73.125 198.910156 74.101562 198.863281 75.109375 198.722656 C 77.238281 198.410156 79.425781 197.761719 81.511719 197.042969 C 87.980469 194.808594 94.914062 191.222656 101.101562 188.15625 C 94.839844 195.011719 85.53125 202.523438 76.539062 205.210938 C 72.109375 206.539062 66.699219 206.238281 64.316406 201.480469 " fill-opacity="1" fill-rule="nonzero"></path></g></g></g><g fill="#000000" fill-opacity="1"><g transform="translate(140.330575, 200.765905)"><g><path d="M 29.453125 -13.59375 C 29.453125 -11.5 29.097656 -9.578125 28.390625 -7.828125 C 27.691406 -6.078125 26.71875 -4.582031 25.46875 -3.34375 C 24.21875 -2.113281 22.703125 -1.164062 20.921875 -0.5 C 19.140625 0.164062 17.164062 0.5 15 0.5 C 11.53125 0.5 8.5625 -0.378906 6.09375 -2.140625 C 3.632812 -3.910156 1.882812 -6.445312 0.84375 -9.75 L 7.546875 -12.296875 C 8.285156 -10.203125 9.269531 -8.632812 10.5 -7.59375 C 11.726562 -6.5625 13.242188 -6.046875 15.046875 -6.046875 C 17.179688 -6.046875 18.90625 -6.757812 20.21875 -8.1875 C 21.539062 -9.625 22.203125 -11.492188 22.203125 -13.796875 L 22.203125 -35 L 29.453125 -35 Z M 29.453125 -13.59375 "></path></g></g></g><g fill="#000000" fill-opacity="1"><g transform="translate(170.925609, 200.765905)"><g><path d="M 1.5 -13 C 1.5 -14.894531 1.859375 -16.664062 2.578125 -18.3125 C 3.296875 -19.96875 4.28125 -21.40625 5.53125 -22.625 C 6.78125 -23.84375 8.253906 -24.800781 9.953125 -25.5 C 11.648438 -26.195312 13.46875 -26.546875 15.40625 -26.546875 C 17.332031 -26.546875 19.144531 -26.195312 20.84375 -25.5 C 22.550781 -24.800781 24.03125 -23.84375 25.28125 -22.625 C 26.53125 -21.40625 27.507812 -19.96875 28.21875 -18.3125 C 28.9375 -16.664062 29.296875 -14.894531 29.296875 -13 C 29.296875 -11.101562 28.9375 -9.328125 28.21875 -7.671875 C 27.507812 -6.023438 26.53125 -4.597656 25.28125 -3.390625 C 24.03125 -2.191406 22.550781 -1.242188 20.84375 -0.546875 C 19.144531 0.148438 17.332031 0.5 15.40625 0.5 C 13.46875 0.5 11.648438 0.148438 9.953125 -0.546875 C 8.253906 -1.242188 6.78125 -2.191406 5.53125 -3.390625 C 4.28125 -4.597656 3.296875 -6.023438 2.578125 -7.671875 C 1.859375 -9.328125 1.5 -11.101562 1.5 -13 Z M 15.40625 -5.453125 C 17.40625 -5.453125 19.101562 -6.179688 20.5 -7.640625 C 21.894531 -9.109375 22.59375 -10.894531 22.59375 -13 C 22.59375 -15.132812 21.894531 -16.929688 20.5 -18.390625 C 19.101562 -19.859375 17.40625 -20.59375 15.40625 -20.59375 C 13.40625 -20.59375 11.703125 -19.859375 10.296875 -18.390625 C 8.898438 -16.929688 8.203125 -15.132812 8.203125 -13 C 8.203125 -10.894531 8.898438 -9.109375 10.296875 -7.640625 C 11.703125 -6.179688 13.40625 -5.453125 15.40625 -5.453125 Z M 15.40625 -5.453125 "></path></g></g></g><g fill="#000000" fill-opacity="1"><g transform="translate(200.220846, 200.765905)"><g><path d="M 30.09375 -13 C 30.09375 -11.132812 29.742188 -9.382812 29.046875 -7.75 C 28.347656 -6.113281 27.398438 -4.695312 26.203125 -3.5 C 25.003906 -2.300781 23.578125 -1.359375 21.921875 -0.671875 C 20.273438 0.00390625 18.519531 0.34375 16.65625 0.34375 C 15.351562 0.34375 14.082031 0.160156 12.84375 -0.203125 C 11.613281 -0.566406 10.484375 -1.082031 9.453125 -1.75 L 9.453125 0 L 2.703125 0 L 2.703125 -35 L 9.546875 -36.5 L 9.546875 -24 C 10.578125 -24.769531 11.71875 -25.363281 12.96875 -25.78125 C 14.21875 -26.195312 15.507812 -26.40625 16.84375 -26.40625 C 18.675781 -26.40625 20.398438 -26.050781 22.015625 -25.34375 C 23.640625 -24.644531 25.050781 -23.695312 26.25 -22.5 C 27.445312 -21.300781 28.382812 -19.882812 29.0625 -18.25 C 29.75 -16.613281 30.09375 -14.863281 30.09375 -13 Z M 15.75 -20.546875 C 14.519531 -20.546875 13.367188 -20.335938 12.296875 -19.921875 C 11.234375 -19.503906 10.316406 -18.894531 9.546875 -18.09375 L 9.546875 -7.84375 C 10.285156 -7.113281 11.195312 -6.53125 12.28125 -6.09375 C 13.363281 -5.664062 14.519531 -5.453125 15.75 -5.453125 C 17.882812 -5.453125 19.679688 -6.175781 21.140625 -7.625 C 22.609375 -9.070312 23.34375 -10.863281 23.34375 -13 C 23.34375 -15.132812 22.601562 -16.925781 21.125 -18.375 C 19.644531 -19.820312 17.851562 -20.546875 15.75 -20.546875 Z M 15.75 -20.546875 "></path></g></g></g><g fill="#000000" fill-opacity="1"><g transform="translate(230.315956, 200.765905)"><g><path d="M 9.546875 -36.5 L 9.546875 0 L 2.703125 0 L 2.703125 -35 Z M 9.546875 -36.5 "></path></g></g></g><g fill="#000000" fill-opacity="1"><g transform="translate(241.014064, 200.765905)"><g><path d="M 9.75 1.203125 L 10.15625 0.25 L 0 -26.046875 L 7.546875 -26.046875 L 14 -8.296875 L 21.40625 -26.046875 L 28.796875 -26.046875 L 16.796875 2.046875 C 15.460938 5.179688 13.910156 7.414062 12.140625 8.75 C 10.378906 10.082031 8.082031 10.75 5.25 10.75 C 4.644531 10.75 4.066406 10.722656 3.515625 10.671875 C 2.972656 10.617188 2.535156 10.546875 2.203125 10.453125 L 2.203125 4.546875 C 2.535156 4.617188 2.882812 4.671875 3.25 4.703125 C 3.613281 4.734375 4.0625 4.75 4.59375 4.75 C 5.832031 4.75 6.875 4.445312 7.71875 3.84375 C 8.570312 3.25 9.25 2.367188 9.75 1.203125 Z M 9.75 1.203125 "></path></g></g></g></svg>